<svg width="400" height="206" viewBox="0 0 400 206" fill="none" xmlns="http://www.w3.org/2000/svg">
<g clip-path="url(#clip0_190_8630)">
<path opacity="0.8" fill-rule="evenodd" clip-rule="evenodd" d="M229.693 119.77H258.81L308.577 20.3085C310.436 16.598 310.23 12.5783 308.061 9.07397C305.893 5.56964 302.279 3.50826 298.149 3.50826H269.652H253.028H236.921C232.378 3.50826 228.558 5.87884 226.493 10.0016L200.576 61.639L171.459 119.77H229.693Z" fill="url(#paint0_linear_190_8630)" fill-opacity="0.7"/>
<path opacity="0.8" fill-rule="evenodd" clip-rule="evenodd" d="M171.459 119.769H229.693L200.576 61.6387L177.964 16.3916C173.937 8.35222 166.193 3.508 157.107 3.508H103.003C98.873 3.508 95.3624 5.56937 93.0909 9.07371C90.9226 12.578 90.7161 16.5977 92.5746 20.3082L135.94 106.886C139.967 114.925 147.711 119.769 156.797 119.769H171.459Z" fill="url(#paint1_linear_190_8630)" fill-opacity="0.7"/>
<path opacity="0.8" fill-rule="evenodd" clip-rule="evenodd" d="M262.424 3.50826L204.19 119.77H229.693H258.81L308.577 20.3085C310.436 16.598 310.229 12.5783 308.061 9.07397C305.893 5.56964 302.279 3.50826 298.149 3.50826H269.651H262.424Z" fill="url(#paint2_linear_190_8630)" fill-opacity="0.7"/>
<path d="M229.693 123.171H156.797C151.635 123.171 146.782 121.831 142.652 119.254C138.522 116.781 135.218 113.07 132.843 108.432L89.4773 21.8542C88.3415 19.4837 87.722 17.01 87.9285 14.4333C88.0318 11.9596 88.7545 9.48598 90.2 7.21847C91.5423 4.95096 93.5041 3.19879 95.6724 1.96197C97.8407 0.725143 100.319 0.00366211 103.003 0.00366211H157.107C162.27 0.00366211 167.122 1.44662 171.253 4.02334C175.383 6.49699 178.687 10.2075 181.061 14.8456L200.576 53.9086L223.395 8.4553C224.634 5.77551 226.595 3.71414 228.97 2.27117C231.242 0.828212 234.03 0.00366211 236.921 0.00366211H298.149C300.833 0.00366211 303.311 0.725143 305.583 1.96197C307.751 3.19879 309.61 4.95096 311.055 7.21847C312.397 9.48598 313.223 11.9596 313.327 14.4333C313.43 17.01 312.914 19.4837 311.675 21.8542L262.011 121.006C261.598 122.243 260.255 123.171 258.81 123.171H229.693ZM171.459 116.265H224.117L174.866 17.9376C173.111 14.5364 170.633 11.7535 167.535 9.89826C164.541 8.04302 161.031 7.01234 157.107 7.01234H103.003C101.558 7.01234 100.215 7.32154 99.0797 8.04302C97.8407 8.66143 96.9114 9.58905 96.0854 10.8259C95.3626 12.1658 94.9496 13.4026 94.8464 14.7425C94.7431 16.0824 95.0529 17.5253 95.7756 18.7622L139.038 105.34C140.793 108.741 143.271 111.524 146.369 113.379C149.363 115.234 152.874 116.265 156.797 116.265H171.459ZM204.5 61.6388L216.993 86.5814L256.848 7.01234H236.921C235.269 7.01234 233.823 7.42461 232.584 8.14609C231.345 8.97064 230.312 10.1044 229.59 11.5474L204.5 61.6388ZM220.813 94.3115L231.861 116.265H256.642L305.48 18.7622C306.099 17.5253 306.409 16.0824 306.409 14.7425C306.306 13.4026 305.893 12.1658 305.067 10.8259C304.344 9.58905 303.311 8.66143 302.176 8.04302C301.04 7.32154 299.698 7.01234 298.149 7.01234H264.592L220.813 94.3115Z" fill="white"/>
</g>
<path d="M18.8365 205.529C18.2607 205.529 17.7373 205.32 17.2663 204.902C16.8475 204.483 16.5597 204.012 16.4026 203.489L0.150982 147.792C-0.11072 146.851 -0.0322094 146.04 0.386513 145.36C0.805235 144.628 1.45949 144.262 2.34927 144.262C2.87268 144.262 3.31757 144.393 3.68395 144.654C4.10267 144.864 4.41672 145.334 4.62608 146.066L19.7786 198.469H17.8943L32.3403 148.106C32.4449 147.688 32.7066 147.348 33.1254 147.086C33.5964 146.773 34.0675 146.616 34.5386 146.616C35.062 146.616 35.533 146.773 35.9517 147.086C36.3705 147.348 36.6583 147.714 36.8154 148.185L51.2613 198.469H49.377L64.5295 145.831C64.7912 144.785 65.5502 144.262 66.8063 144.262C67.6961 144.262 68.3242 144.602 68.6906 145.282C69.1093 145.962 69.1878 146.799 68.9261 147.792L52.753 203.489C52.5436 204.169 52.2034 204.692 51.7323 205.058C51.3136 205.372 50.8426 205.529 50.3191 205.529C49.6911 205.529 49.1677 205.346 48.7489 204.98C48.3302 204.562 48.0423 204.065 47.8853 203.489L33.5964 152.97H35.4807L21.3488 203.489C21.1394 204.117 20.7992 204.614 20.3282 204.98C19.9094 205.346 19.4122 205.529 18.8365 205.529Z" fill="#555555"/>
<path d="M89.5057 206C85.3184 206 81.5499 205.058 78.2002 203.176C74.9027 201.241 72.2857 198.626 70.3491 195.331C68.4649 191.984 67.5227 188.245 67.5227 184.113C67.5227 179.929 68.4649 176.19 70.3491 172.895C72.2857 169.548 74.9027 166.933 78.2002 165.051C81.5499 163.116 85.3184 162.148 89.5057 162.148C93.6929 162.148 97.4352 163.116 100.733 165.051C104.03 166.933 106.621 169.548 108.505 172.895C110.442 176.19 111.41 179.929 111.41 184.113L109.447 187.251C109.447 190.807 108.558 193.997 106.778 196.822C105.051 199.646 102.695 201.894 99.712 203.568C96.7286 205.189 93.3265 206 89.5057 206ZM89.5057 201.607C92.8031 201.607 95.7342 200.848 98.2988 199.332C100.916 197.763 102.957 195.671 104.423 193.056C105.941 190.389 106.699 187.408 106.699 184.113C106.699 180.766 105.941 177.785 104.423 175.17C102.957 172.503 100.916 170.411 98.2988 168.894C95.7342 167.326 92.8031 166.541 89.5057 166.541C86.2606 166.541 83.3295 167.326 80.7125 168.894C78.0955 170.411 76.028 172.503 74.5102 175.17C72.9923 177.785 72.2334 180.766 72.2334 184.113C72.2334 187.408 72.9923 190.389 74.5102 193.056C76.028 195.671 78.0955 197.763 80.7125 199.332C83.3295 200.848 86.2606 201.607 89.5057 201.607ZM109.133 205.529C108.401 205.529 107.799 205.32 107.328 204.902C106.909 204.431 106.699 203.856 106.699 203.176V188.82L108.191 184.113H111.41V203.176C111.41 203.856 111.201 204.431 110.782 204.902C110.363 205.32 109.814 205.529 109.133 205.529Z" fill="#555555"/>
<path d="M131.8 205.529C129.811 205.529 128.032 204.98 126.461 203.882C124.944 202.783 123.74 201.267 122.85 199.332C122.012 197.397 121.594 195.148 121.594 192.585V146.616C121.594 145.883 121.803 145.308 122.222 144.89C122.693 144.471 123.269 144.262 123.949 144.262C124.682 144.262 125.258 144.471 125.676 144.89C126.095 145.308 126.304 145.883 126.304 146.616V192.585C126.304 194.991 126.802 196.978 127.796 198.547C128.843 200.064 130.178 200.822 131.8 200.822H133.763C134.339 200.822 134.81 201.031 135.176 201.45C135.542 201.868 135.726 202.444 135.726 203.176C135.726 203.856 135.516 204.431 135.098 204.902C134.679 205.32 134.103 205.529 133.37 205.529H131.8Z" fill="#555555"/>
<path d="M152.961 205.529C150.972 205.529 149.193 204.98 147.622 203.882C146.105 202.783 144.901 201.267 144.011 199.332C143.173 197.397 142.755 195.148 142.755 192.585V146.616C142.755 145.883 142.964 145.308 143.383 144.89C143.854 144.471 144.43 144.262 145.11 144.262C145.843 144.262 146.419 144.471 146.837 144.89C147.256 145.308 147.465 145.883 147.465 146.616V192.585C147.465 194.991 147.963 196.978 148.957 198.547C150.004 200.064 151.339 200.822 152.961 200.822H154.924C155.5 200.822 155.971 201.031 156.337 201.45C156.703 201.868 156.887 202.444 156.887 203.176C156.887 203.856 156.677 204.431 156.259 204.902C155.84 205.32 155.264 205.529 154.531 205.529H152.961Z" fill="#555555"/>
<path d="M182.109 205.921C177.974 205.921 174.284 205.006 171.039 203.176C167.846 201.293 165.334 198.704 163.502 195.409C161.67 192.115 160.754 188.349 160.754 184.113C160.754 179.825 161.617 176.059 163.345 172.817C165.072 169.522 167.453 166.933 170.489 165.051C173.525 163.168 177.006 162.227 180.931 162.227C184.804 162.227 188.233 163.142 191.216 164.972C194.199 166.75 196.528 169.234 198.203 172.425C199.878 175.562 200.716 179.197 200.716 183.329C200.716 184.009 200.506 184.558 200.088 184.976C199.669 185.342 199.119 185.525 198.439 185.525H163.894V181.446H199.695L196.241 184.035C196.345 180.635 195.77 177.628 194.513 175.013C193.257 172.398 191.451 170.359 189.096 168.894C186.793 167.378 184.071 166.62 180.931 166.62C177.948 166.62 175.278 167.378 172.923 168.894C170.62 170.359 168.788 172.398 167.427 175.013C166.119 177.628 165.465 180.661 165.465 184.113C165.465 187.513 166.171 190.52 167.584 193.135C168.997 195.749 170.96 197.815 173.473 199.332C175.985 200.796 178.864 201.528 182.109 201.528C184.15 201.528 186.191 201.188 188.233 200.509C190.326 199.776 191.975 198.835 193.179 197.684C193.597 197.266 194.095 197.057 194.67 197.057C195.298 197.005 195.822 197.161 196.241 197.528C196.816 197.998 197.104 198.521 197.104 199.096C197.157 199.672 196.921 200.195 196.398 200.665C194.723 202.182 192.524 203.437 189.803 204.431C187.133 205.425 184.569 205.921 182.109 205.921Z" fill="#555555"/>
<path d="M228.538 205.529C225.659 205.477 223.094 204.823 220.844 203.568C218.593 202.26 216.84 200.482 215.584 198.234C214.327 195.932 213.699 193.344 213.699 190.467V151.401C213.699 150.669 213.909 150.093 214.327 149.675C214.798 149.204 215.374 148.969 216.055 148.969C216.787 148.969 217.363 149.204 217.782 149.675C218.253 150.093 218.488 150.669 218.488 151.401V190.467C218.488 193.501 219.431 195.985 221.315 197.92C223.199 199.802 225.633 200.744 228.616 200.744H230.344C231.076 200.744 231.652 200.979 232.071 201.45C232.542 201.868 232.777 202.444 232.777 203.176C232.777 203.856 232.542 204.431 232.071 204.902C231.652 205.32 231.076 205.529 230.344 205.529H228.538ZM207.576 168.424C206.947 168.424 206.424 168.241 206.005 167.875C205.639 167.456 205.456 166.933 205.456 166.306C205.456 165.678 205.639 165.181 206.005 164.815C206.424 164.397 206.947 164.188 207.576 164.188H228.852C229.48 164.188 229.977 164.397 230.344 164.815C230.762 165.181 230.972 165.678 230.972 166.306C230.972 166.933 230.762 167.456 230.344 167.875C229.977 168.241 229.48 168.424 228.852 168.424H207.576Z" fill="#555555"/>
<path d="M269.464 205.529C268.575 205.529 267.842 205.346 267.266 204.98C266.69 204.562 266.403 203.96 266.403 203.176V146.616C266.403 145.883 266.612 145.308 267.031 144.89C267.502 144.471 268.077 144.262 268.758 144.262H287.993C290.924 144.262 293.593 144.916 296.001 146.223C298.409 147.479 300.345 149.23 301.811 151.479C303.276 153.676 304.009 156.212 304.009 159.089C304.009 162.122 303.198 164.789 301.575 167.09C300.005 169.339 297.938 171.039 295.373 172.189C298.932 173.183 301.785 175.013 303.931 177.681C306.129 180.348 307.228 183.695 307.228 187.722C307.228 191.173 306.443 194.259 304.873 196.978C303.355 199.646 301.235 201.738 298.513 203.254C295.792 204.771 292.677 205.529 289.171 205.529H269.464ZM271.113 200.822H289.171C291.788 200.822 294.091 200.273 296.079 199.175C298.068 198.024 299.639 196.482 300.79 194.547C301.942 192.559 302.517 190.284 302.517 187.722C302.517 185.211 301.942 182.989 300.79 181.054C299.639 179.119 298.068 177.602 296.079 176.504C294.091 175.406 291.788 174.856 289.171 174.856H271.113V200.822ZM271.113 170.15H287.993C291.29 170.15 293.986 169.156 296.079 167.169C298.225 165.129 299.298 162.436 299.298 159.089C299.298 155.846 298.225 153.362 296.079 151.636C293.986 149.858 291.29 148.969 287.993 148.969H271.113V170.15Z" fill="#555555"/>
<path d="M338.224 206C334.037 206 330.269 205.058 326.919 203.176C323.621 201.241 321.004 198.626 319.068 195.331C317.183 191.984 316.241 188.245 316.241 184.113C316.241 179.929 317.183 176.19 319.068 172.895C321.004 169.548 323.621 166.933 326.919 165.051C330.269 163.116 334.037 162.148 338.224 162.148C342.411 162.148 346.154 163.116 349.451 165.051C352.749 166.933 355.34 169.548 357.224 172.895C359.16 176.19 360.129 179.929 360.129 184.113C360.129 188.245 359.16 191.984 357.224 195.331C355.34 198.626 352.749 201.241 349.451 203.176C346.154 205.058 342.411 206 338.224 206ZM338.224 201.607C341.522 201.607 344.453 200.848 347.017 199.332C349.634 197.763 351.676 195.671 353.141 193.056C354.659 190.389 355.418 187.382 355.418 184.035C355.418 180.74 354.659 177.785 353.141 175.17C351.676 172.503 349.634 170.411 347.017 168.894C344.453 167.326 341.522 166.541 338.224 166.541C334.979 166.541 332.048 167.326 329.431 168.894C326.814 170.411 324.747 172.503 323.229 175.17C321.711 177.785 320.952 180.766 320.952 184.113C320.952 187.408 321.711 190.389 323.229 193.056C324.747 195.671 326.814 197.763 329.431 199.332C332.048 200.848 334.979 201.607 338.224 201.607Z" fill="#555555"/>
<path d="M397.806 205.529C397.178 205.529 396.681 205.425 396.315 205.215C395.948 204.954 395.556 204.562 395.137 204.039L381.633 186.153L379.67 184.662L365.931 166.541C365.512 166.018 365.329 165.469 365.381 164.894C365.434 164.266 365.669 163.743 366.088 163.325C366.507 162.854 367.056 162.619 367.737 162.619C368.417 162.619 368.993 162.854 369.464 163.325L382.575 180.74L384.695 182.387L399.219 201.685C399.9 202.522 400.135 203.228 399.926 203.803C399.769 204.379 399.455 204.823 398.984 205.137C398.513 205.398 398.12 205.529 397.806 205.529ZM366.01 205.529C365.329 205.529 364.78 205.32 364.361 204.902C363.942 204.483 363.707 203.986 363.654 203.411C363.602 202.783 363.785 202.208 364.204 201.685L379.435 182.78L382.183 186.231L367.658 204.823C367.344 205.294 366.795 205.529 366.01 205.529ZM383.674 184.976L380.848 181.524L395.137 164.031C395.556 163.56 395.948 163.22 396.315 163.011C396.733 162.749 397.152 162.619 397.571 162.619C398.304 162.619 398.853 162.854 399.219 163.325C399.586 163.743 399.769 164.266 399.769 164.894C399.769 165.469 399.56 166.018 399.141 166.541L383.674 184.976Z" fill="#555555"/>
<defs>
<linearGradient id="paint0_linear_190_8630" x1="171.501" y1="61.6321" x2="309.852" y2="61.6321" gradientUnits="userSpaceOnUse">
<stop stop-color="#BF38FF"/>
<stop offset="1" stop-color="#336CFF"/>
</linearGradient>
<linearGradient id="paint1_linear_190_8630" x1="91.3519" y1="61.6318" x2="229.703" y2="61.6318" gradientUnits="userSpaceOnUse">
<stop stop-color="#BF38FF"/>
<stop offset="1" stop-color="#336CFF"/>
</linearGradient>
<linearGradient id="paint2_linear_190_8630" x1="204.222" y1="61.6321" x2="309.849" y2="61.6321" gradientUnits="userSpaceOnUse">
<stop stop-color="#BF38FF"/>
<stop offset="1" stop-color="#336CFF"/>
</linearGradient>
<clipPath id="clip0_190_8630">
<rect width="225.605" height="123.277" fill="white" transform="translate(87.8247)"/>
</clipPath>
</defs>
</svg>
