<svg width="88" height="84" viewBox="0 0 88 84" fill="none" xmlns="http://www.w3.org/2000/svg">
<g filter="url(#filter0_d_190_8665)">
<rect x="19" y="12" width="50" height="50" rx="25" fill="#FDFDFD"/>
<path d="M48.5977 37.4629C48.5898 36.1309 49.1934 35.127 50.4121 34.3867C49.7305 33.4102 48.6992 32.873 47.3398 32.7695C46.0527 32.668 44.6445 33.5195 44.1289 33.5195C43.584 33.5195 42.3379 32.8047 41.3574 32.8047C39.334 32.8359 37.1836 34.418 37.1836 37.6367C37.1836 38.5879 37.3574 39.5703 37.7051 40.582C38.1699 41.9141 39.8457 45.1777 41.5938 45.125C42.5078 45.1035 43.1543 44.4766 44.3437 44.4766C45.498 44.4766 46.0957 45.125 47.1152 45.125C48.8789 45.0996 50.3945 42.1328 50.8359 40.7969C48.4707 39.6816 48.5977 37.5313 48.5977 37.4629ZM46.5449 31.5059C47.5352 30.3301 47.4453 29.2598 47.416 28.875C46.541 28.9258 45.5293 29.4707 44.9531 30.1406C44.3184 30.8594 43.9453 31.748 44.0254 32.75C44.9707 32.8223 45.834 32.3359 46.5449 31.5059Z" fill="url(#paint0_linear_190_8665)" fill-opacity="0.7"/>
<path d="M48.5977 37.4629C48.5898 36.1309 49.1934 35.127 50.4121 34.3867C49.7305 33.4102 48.6992 32.873 47.3398 32.7695C46.0527 32.668 44.6445 33.5195 44.1289 33.5195C43.584 33.5195 42.3379 32.8047 41.3574 32.8047C39.334 32.8359 37.1836 34.418 37.1836 37.6367C37.1836 38.5879 37.3574 39.5703 37.7051 40.582C38.1699 41.9141 39.8457 45.1777 41.5938 45.125C42.5078 45.1035 43.1543 44.4766 44.3437 44.4766C45.498 44.4766 46.0957 45.125 47.1152 45.125C48.8789 45.0996 50.3945 42.1328 50.8359 40.7969C48.4707 39.6816 48.5977 37.5313 48.5977 37.4629ZM46.5449 31.5059C47.5352 30.3301 47.4453 29.2598 47.416 28.875C46.541 28.9258 45.5293 29.4707 44.9531 30.1406C44.3184 30.8594 43.9453 31.748 44.0254 32.75C44.9707 32.8223 45.834 32.3359 46.5449 31.5059Z" fill="url(#paint1_linear_190_8665)" fill-opacity="0.7"/>
<path d="M48.5977 37.4629C48.5898 36.1309 49.1934 35.127 50.4121 34.3867C49.7305 33.4102 48.6992 32.873 47.3398 32.7695C46.0527 32.668 44.6445 33.5195 44.1289 33.5195C43.584 33.5195 42.3379 32.8047 41.3574 32.8047C39.334 32.8359 37.1836 34.418 37.1836 37.6367C37.1836 38.5879 37.3574 39.5703 37.7051 40.582C38.1699 41.9141 39.8457 45.1777 41.5938 45.125C42.5078 45.1035 43.1543 44.4766 44.3437 44.4766C45.498 44.4766 46.0957 45.125 47.1152 45.125C48.8789 45.0996 50.3945 42.1328 50.8359 40.7969C48.4707 39.6816 48.5977 37.5313 48.5977 37.4629ZM46.5449 31.5059C47.5352 30.3301 47.4453 29.2598 47.416 28.875C46.541 28.9258 45.5293 29.4707 44.9531 30.1406C44.3184 30.8594 43.9453 31.748 44.0254 32.75C44.9707 32.8223 45.834 32.3359 46.5449 31.5059Z" fill="url(#paint2_linear_190_8665)" fill-opacity="0.7"/>
<rect x="18" y="11" width="52" height="52" rx="26" stroke="#6A82FB" stroke-width="2"/>
</g>
<defs>
<filter id="filter0_d_190_8665" x="0" y="0" width="88" height="84" filterUnits="userSpaceOnUse" color-interpolation-filters="sRGB">
<feFlood flood-opacity="0" result="BackgroundImageFix"/>
<feColorMatrix in="SourceAlpha" type="matrix" values="0 0 0 0 0 0 0 0 0 0 0 0 0 0 0 0 0 0 127 0" result="hardAlpha"/>
<feOffset dy="5"/>
<feGaussianBlur stdDeviation="7.5"/>
<feComposite in2="hardAlpha" operator="out"/>
<feColorMatrix type="matrix" values="0 0 0 0 0 0 0 0 0 0 0 0 0 0 0 0 0 0 0.05 0"/>
<feBlend mode="normal" in2="BackgroundImageFix" result="effect1_dropShadow_190_8665"/>
<feBlend mode="normal" in="SourceGraphic" in2="effect1_dropShadow_190_8665" result="shape"/>
</filter>
<linearGradient id="paint0_linear_190_8665" x1="37.1877" y1="36.9994" x2="50.837" y2="36.9994" gradientUnits="userSpaceOnUse">
<stop stop-color="#BF38FF"/>
<stop offset="1" stop-color="#336CFF"/>
</linearGradient>
<linearGradient id="paint1_linear_190_8665" x1="37.1877" y1="36.9994" x2="50.837" y2="36.9994" gradientUnits="userSpaceOnUse">
<stop stop-color="#BF38FF"/>
<stop offset="1" stop-color="#336CFF"/>
</linearGradient>
<linearGradient id="paint2_linear_190_8665" x1="37.1877" y1="36.9994" x2="50.837" y2="36.9994" gradientUnits="userSpaceOnUse">
<stop stop-color="#BF38FF"/>
<stop offset="1" stop-color="#336CFF"/>
</linearGradient>
</defs>
</svg>
