<svg width="15" height="8" viewBox="0 0 15 8" fill="none" xmlns="http://www.w3.org/2000/svg">
<path d="M14.9999 1.49442C15.0005 1.65452 14.9651 1.8127 14.8965 1.95735C14.828 2.10199 14.7278 2.22943 14.6035 2.33029L8.17557 7.50622C7.98387 7.66383 7.74342 7.75 7.49528 7.75C7.24713 7.75 7.00668 7.66383 6.81498 7.50622L0.387019 2.14811C0.168236 1.96622 0.0306517 1.70484 0.00453305 1.42147C-0.0215856 1.13811 0.065901 0.855968 0.247747 0.637125C0.429592 0.418282 0.690901 0.28066 0.974188 0.254534C1.25748 0.228408 1.53954 0.315918 1.75832 0.497814L7.50063 5.28796L13.2429 0.658557C13.4002 0.527516 13.5917 0.444276 13.7948 0.418686C13.9978 0.393096 14.204 0.426227 14.3888 0.51416C14.5736 0.602093 14.7294 0.741146 14.8377 0.914867C14.946 1.08859 15.0023 1.28971 14.9999 1.49442Z" fill="#9C9AA8"/>
</svg>
