<svg width="123" height="122" viewBox="0 0 123 122" fill="none" xmlns="http://www.w3.org/2000/svg">
<g clip-path="url(#clip0_1_2)">
<path d="M6.87 3.3444e-06H49.49C50.5111 -0.000316408 51.5192 0.228649 52.44 0.670003C53.352 1.11186 54.1572 1.74648 54.8 2.53C55.2997 3.12264 55.6892 3.80001 55.95 4.53C56.2234 5.26591 56.3623 6.04496 56.36 6.83V49.3C56.3592 50.224 56.1708 51.1382 55.8064 51.9873C55.4421 52.8365 54.9092 53.6028 54.24 54.24C53.5956 54.8606 52.8342 55.3467 52 55.67C51.1894 55.9969 50.324 56.1666 49.45 56.17H6.87C6.00266 56.1645 5.14421 55.9949 4.34 55.67C3.5278 55.351 2.78436 54.8792 2.15 54.28C1.47651 53.633 0.9393 52.8578 0.57 52C0.195268 51.1491 0.00117603 50.2297 1.70334e-07 49.3V6.87C0.014933 5.21283 0.617332 3.6147 1.7 2.36L2 2.08C2.57314 1.47929 3.25086 0.987947 4 0.630003C4.89816 0.209912 5.87847 -0.00527758 6.87 3.3444e-06V3.3444e-06ZM90.78 66.91H101.15C102.169 66.91 103.147 67.3142 103.869 68.0341C104.591 68.754 104.997 69.7307 105 70.75V84.81H119C120.017 84.81 120.992 85.2132 121.712 85.9312C122.432 86.6492 122.837 87.6233 122.84 88.64V99C122.837 100.017 122.432 100.991 121.712 101.709C120.992 102.427 120.017 102.83 119 102.83H105V116.9C105 117.917 104.597 118.892 103.879 119.612C103.161 120.332 102.187 120.737 101.17 120.74H90.78C89.772 120.724 88.8106 120.313 88.1034 119.594C87.3962 118.876 86.9999 117.908 87 116.9V102.84H72.89C71.8724 102.837 70.8972 102.432 70.1776 101.712C69.4581 100.993 69.0526 100.018 69.05 99V88.64C69.0553 87.6241 69.4619 86.6515 70.1811 85.9341C70.9004 85.2167 71.8741 84.8126 72.89 84.81H87V70.75C87.0026 69.7341 87.4067 68.7604 88.1241 68.0411C88.8415 67.3219 89.8141 66.9153 90.83 66.91H90.78ZM6.87 64.91H49.49C50.5097 64.9125 51.5165 65.1378 52.44 65.57C53.3472 66.0063 54.1515 66.63 54.8 67.4C55.2985 67.9935 55.6878 68.6706 55.95 69.4C56.2225 70.1396 56.3613 70.9218 56.36 71.71V114.14C56.3563 115.519 55.9387 116.865 55.1614 118.005C54.3841 119.144 53.2828 120.024 52 120.53C51.1914 120.865 50.3251 121.038 49.45 121.04H6.87C5.11404 121.021 3.42931 120.343 2.15 119.14C1.47869 118.499 0.941608 117.731 0.57 116.88C0.193911 116.026 -0.000209911 115.103 1.70334e-07 114.17V71.74C0.0023042 70.916 0.154797 70.0993 0.45 69.33C0.736542 68.5573 1.15997 67.8425 1.7 67.22L2 66.94C2.57828 66.3452 3.25488 65.8547 4 65.49C4.88814 65.0833 5.85318 64.8719 6.83 64.87L6.87 64.91ZM49.49 71.75H6.87V114.21C10.52 114.21 49.49 114.21 49.53 114.21C49.53 110.62 49.53 71.76 49.53 71.74L49.49 71.75ZM72.64 3.3444e-06H115.26C116.281 -0.000316408 117.289 0.228649 118.21 0.670003C119.126 1.11064 119.934 1.74533 120.58 2.53C121.076 3.12504 121.465 3.80177 121.73 4.53C121.995 5.26778 122.131 6.04598 122.13 6.83V49.3C122.128 50.2247 121.938 51.1394 121.572 51.9885C121.206 52.8377 120.671 53.6037 120 54.24C119.369 54.8583 118.621 55.3444 117.8 55.67C116.99 55.9978 116.124 56.1676 115.25 56.17H72.64C71.7759 56.1645 70.9207 55.9948 70.12 55.67C69.3065 55.3535 68.5626 54.8814 67.93 54.28C67.2538 53.6353 66.7162 52.8595 66.35 52C65.9659 51.1483 65.7681 50.2243 65.77 49.29V6.87C65.7723 6.046 65.9248 5.22932 66.22 4.46C66.5103 3.69212 66.9334 2.98129 67.47 2.36L67.74 2.08C68.3363 1.47508 69.0377 0.98374 69.81 0.630003C70.6963 0.216585 71.6621 0.00158174 72.64 3.3444e-06V3.3444e-06ZM115.26 6.84H72.64V49.3C76.29 49.3 115.27 49.3 115.3 49.3C115.3 45.71 115.3 6.85 115.3 6.83L115.26 6.84ZM49.49 6.84H6.87V49.3C10.52 49.3 49.49 49.3 49.53 49.3C49.53 45.71 49.53 6.85 49.53 6.83L49.49 6.84Z" fill="#EEEEEE" fill-opacity="0.62"/>
</g>
<defs>
<clipPath id="clip0_1_2">
<rect width="122.88" height="121.04" fill="white"/>
</clipPath>
</defs>
</svg>
