<svg width="50" height="50" viewBox="0 0 50 50" fill="none" xmlns="http://www.w3.org/2000/svg">
<g filter="url(#filter0_b_0_1)">
<circle cx="25" cy="25" r="25" fill="#6A82FB"/>
</g>
<path d="M32 17H18C17.2044 17 16.4413 17.3161 15.8787 17.8787C15.3161 18.4413 15 19.2044 15 20V30C15 30.7956 15.3161 31.5587 15.8787 32.1213C16.4413 32.6839 17.2044 33 18 33H32C32.7956 33 33.5587 32.6839 34.1213 32.1213C34.6839 31.5587 35 30.7956 35 30V20C35 19.2044 34.6839 18.4413 34.1213 17.8787C33.5587 17.3161 32.7956 17 32 17V17ZM18 19H32C32.2652 19 32.5196 19.1054 32.7071 19.2929C32.8946 19.4804 33 19.7348 33 20L25 24.88L17 20C17 19.7348 17.1054 19.4804 17.2929 19.2929C17.4804 19.1054 17.7348 19 18 19V19ZM33 30C33 30.2652 32.8946 30.5196 32.7071 30.7071C32.5196 30.8946 32.2652 31 32 31H18C17.7348 31 17.4804 30.8946 17.2929 30.7071C17.1054 30.5196 17 30.2652 17 30V22.28L24.48 26.85C24.632 26.9378 24.8045 26.984 24.98 26.984C25.1555 26.984 25.328 26.9378 25.48 26.85L33 22.28V30Z" fill="white"/>
<defs>
<filter id="filter0_b_0_1" x="-100" y="-100" width="250" height="250" filterUnits="userSpaceOnUse" color-interpolation-filters="sRGB">
<feFlood flood-opacity="0" result="BackgroundImageFix"/>
<feGaussianBlur in="BackgroundImage" stdDeviation="50"/>
<feComposite in2="SourceAlpha" operator="in" result="effect1_backgroundBlur_0_1"/>
<feBlend mode="normal" in="SourceGraphic" in2="effect1_backgroundBlur_0_1" result="shape"/>
</filter>
</defs>
</svg>
