<svg width="50" height="50" viewBox="0 0 50 50" fill="none" xmlns="http://www.w3.org/2000/svg">
<circle cx="25" cy="25" r="25" fill="#6A82FB"/>
<path d="M31 26.18V23C30.9986 21.5831 30.4958 20.2125 29.5806 19.1308C28.6655 18.0491 27.3971 17.3261 26 17.09V16C26 15.7348 25.8946 15.4804 25.7071 15.2929C25.5196 15.1054 25.2652 15 25 15C24.7348 15 24.4804 15.1054 24.2929 15.2929C24.1054 15.4804 24 15.7348 24 16V17.09C22.6029 17.3261 21.3345 18.0491 20.4194 19.1308C19.5042 20.2125 19.0014 21.5831 19 23V26.18C18.4165 26.3863 17.911 26.7681 17.5529 27.2729C17.1949 27.7778 17.0017 28.3811 17 29V31C17 31.2652 17.1054 31.5196 17.2929 31.7071C17.4804 31.8946 17.7348 32 18 32H21.14C21.3703 32.8474 21.873 33.5954 22.5706 34.1287C23.2682 34.662 24.1219 34.951 25 34.951C25.8781 34.951 26.7318 34.662 27.4294 34.1287C28.127 33.5954 28.6297 32.8474 28.86 32H32C32.2652 32 32.5196 31.8946 32.7071 31.7071C32.8946 31.5196 33 31.2652 33 31V29C32.9983 28.3811 32.8051 27.7778 32.4471 27.2729C32.089 26.7681 31.5835 26.3863 31 26.18V26.18ZM21 23C21 21.9391 21.4214 20.9217 22.1716 20.1716C22.9217 19.4214 23.9391 19 25 19C26.0609 19 27.0783 19.4214 27.8284 20.1716C28.5786 20.9217 29 21.9391 29 23V26H21V23ZM25 33C24.651 32.9979 24.3086 32.9045 24.0068 32.729C23.7051 32.5536 23.4545 32.3023 23.28 32H26.72C26.5455 32.3023 26.2949 32.5536 25.9932 32.729C25.6914 32.9045 25.349 32.9979 25 33ZM31 30H19V29C19 28.7348 19.1054 28.4804 19.2929 28.2929C19.4804 28.1054 19.7348 28 20 28H30C30.2652 28 30.5196 28.1054 30.7071 28.2929C30.8946 28.4804 31 28.7348 31 29V30Z" fill="white"/>
</svg>
