<svg width="20" height="21" viewBox="0 0 20 21" fill="none" xmlns="http://www.w3.org/2000/svg">
<path d="M18.3333 14.6V17.1C18.3343 17.3321 18.2867 17.5618 18.1937 17.7745C18.1008 17.9871 17.9644 18.178 17.7934 18.3349C17.6224 18.4918 17.4205 18.6113 17.2006 18.6856C16.9808 18.76 16.7478 18.7876 16.5167 18.7667C13.9523 18.4881 11.4892 17.6118 9.32498 16.2084C7.31151 14.9289 5.60443 13.2218 4.32499 11.2084C2.91663 9.03438 2.04019 6.5592 1.76665 3.98337C1.74583 3.75293 1.77321 3.52067 1.84707 3.30139C1.92092 3.08211 2.03963 2.88061 2.19562 2.70972C2.35162 2.53883 2.54149 2.4023 2.75314 2.30881C2.9648 2.21532 3.1936 2.16692 3.42499 2.16671H5.92499C6.32941 2.16273 6.72148 2.30594 7.02812 2.56965C7.33476 2.83336 7.53505 3.19958 7.59165 3.60004C7.69717 4.4001 7.89286 5.18565 8.17499 5.94171C8.2871 6.23998 8.31137 6.56414 8.24491 6.87577C8.17844 7.18741 8.02404 7.47347 7.79998 7.70004L6.74165 8.75837C7.92795 10.8447 9.65536 12.5721 11.7417 13.7584L12.8 12.7C13.0266 12.476 13.3126 12.3216 13.6243 12.2551C13.9359 12.1887 14.26 12.2129 14.5583 12.325C15.3144 12.6072 16.0999 12.8029 16.9 12.9084C17.3048 12.9655 17.6745 13.1694 17.9388 13.4813C18.203 13.7932 18.3435 14.1914 18.3333 14.6Z" stroke="#555555" stroke-width="1.5" stroke-linecap="round" stroke-linejoin="round"/>
</svg>
