<svg width="50" height="50" viewBox="0 0 50 50" fill="none" xmlns="http://www.w3.org/2000/svg">
<circle cx="25" cy="25" r="25" fill="#6A82FB"/>
<path d="M34.07 29.83L32 27.71C31.5547 27.2868 30.9931 27.0063 30.3872 26.9047C29.7813 26.8032 29.1589 26.8851 28.6 27.14L27.7 26.24C28.7605 24.8229 29.2449 23.0567 29.0555 21.2968C28.8662 19.537 28.0172 17.9142 26.6794 16.7552C25.3417 15.5962 23.6145 14.987 21.8457 15.0502C20.0768 15.1134 18.3975 15.8444 17.146 17.096C15.8944 18.3476 15.1634 20.0268 15.1002 21.7957C15.0369 23.5645 15.6462 25.2917 16.8052 26.6294C17.9642 27.9672 19.587 28.8162 21.3468 29.0055C23.1067 29.1949 24.8729 28.7106 26.29 27.65L27.18 28.54C26.8951 29.0996 26.793 29.7346 26.8881 30.3553C26.9831 30.9761 27.2706 31.5513 27.71 32L29.83 34.12C30.3925 34.6818 31.155 34.9974 31.95 34.9974C32.745 34.9974 33.5075 34.6818 34.07 34.12C34.3557 33.8406 34.5828 33.5069 34.7378 33.1386C34.8928 32.7702 34.9726 32.3746 34.9726 31.975C34.9726 31.5754 34.8928 31.1798 34.7378 30.8114C34.5828 30.4431 34.3557 30.1094 34.07 29.83ZM25.59 25.59C24.8902 26.288 23.9993 26.7629 23.0297 26.9549C22.0602 27.1468 21.0555 27.047 20.1426 26.6682C19.2297 26.2894 18.4496 25.6485 17.9007 24.8265C17.3519 24.0046 17.0589 23.0384 17.0589 22.05C17.0589 21.0616 17.3519 20.0954 17.9007 19.2735C18.4496 18.4515 19.2297 17.8106 20.1426 17.4318C21.0555 17.053 22.0602 16.9533 23.0297 17.1452C23.9993 17.3371 24.8902 17.812 25.59 18.51C26.0556 18.9745 26.4251 19.5262 26.6771 20.1337C26.9292 20.7411 27.0589 21.3923 27.0589 22.05C27.0589 22.7077 26.9292 23.3589 26.6771 23.9663C26.4251 24.5738 26.0556 25.1255 25.59 25.59ZM32.66 32.66C32.567 32.7537 32.4564 32.8281 32.3346 32.8789C32.2127 32.9297 32.082 32.9558 31.95 32.9558C31.818 32.9558 31.6873 32.9297 31.5654 32.8789C31.4436 32.8281 31.333 32.7537 31.24 32.66L29.12 30.54C29.0263 30.447 28.9519 30.3364 28.9011 30.2146C28.8503 30.0927 28.8242 29.962 28.8242 29.83C28.8242 29.698 28.8503 29.5673 28.9011 29.4454C28.9519 29.3236 29.0263 29.213 29.12 29.12C29.213 29.0263 29.3236 28.9519 29.4454 28.9011C29.5673 28.8503 29.698 28.8242 29.83 28.8242C29.962 28.8242 30.0927 28.8503 30.2146 28.9011C30.3364 28.9519 30.447 29.0263 30.54 29.12L32.66 31.24C32.7537 31.333 32.8281 31.4436 32.8789 31.5654C32.9296 31.6873 32.9558 31.818 32.9558 31.95C32.9558 32.082 32.9296 32.2127 32.8789 32.3346C32.8281 32.4564 32.7537 32.567 32.66 32.66Z" fill="white"/>
</svg>
