<svg width="123" height="73" viewBox="0 0 123 73" fill="none" xmlns="http://www.w3.org/2000/svg">
<g clip-path="url(#clip0_1_5)">
<path fill-rule="evenodd" clip-rule="evenodd" d="M94.81 26.32L61.3 61.37L42.73 44.12L44.65 41.43L58.25 54L58.42 54.16C59.0435 54.7272 59.8666 55.0236 60.7085 54.9842C61.5504 54.9449 62.3422 54.5729 62.91 53.95L64 52.71L69.17 47L92 23.72L94.81 26.32ZM96.2 43.78V37C96.1952 36.9434 96.1952 36.8866 96.2 36.83C96.32 33.83 98.33 32.83 101.04 33.7C101.187 33.7511 101.326 33.8254 101.45 33.92C108.29 39.29 114.66 44.65 121.45 50.02L121.54 50.11C122.023 50.4702 122.393 50.9607 122.608 51.5239C122.822 52.0871 122.871 52.6998 122.75 53.29C122.466 54.2837 121.848 55.1491 121 55.74L102.62 70.62C99.38 73.17 96 72.69 96 68C96 65.91 96 63.8 96 61.71H69.9L87.08 43.71L96.2 43.78ZM30.53 33.06C30.53 34.7 30.68 36.72 30.53 38.32C30.496 38.9323 30.3817 39.5375 30.19 40.12C29.8642 41.1663 29.1902 42.0697 28.28 42.68C27.3867 43.2477 26.3363 43.5173 25.28 43.45C24.5558 43.3994 23.8423 43.2479 23.16 43V43C22.9845 42.94 22.814 42.8665 22.65 42.78C22.4908 42.6892 22.3372 42.5891 22.19 42.48V42.48C18.9 39.9 15.49 37.12 12.07 34.35C8.89 31.76 5.7 29.17 2.15 26.35L1.95 26.17C1.20979 25.5568 0.632666 24.7702 0.270005 23.88L0.210005 23.68C-0.0341714 22.8785 -0.0651913 22.0272 0.120005 21.21C0.304441 20.4636 0.645293 19.7648 1.12 19.16C1.54902 18.5941 2.0499 18.0865 2.61 17.65C8.79 13 14.82 7.58 21 2.78C22.3549 1.61521 24.0561 0.929801 25.84 0.83C26.5293 0.82291 27.2118 0.966241 27.84 1.25C28.4814 1.54362 29.0436 1.98583 29.48 2.54C30.3752 3.80044 30.8192 5.32601 30.74 6.87V6.87V11.23H55.63L51.94 15.09H28.76C28.507 15.0874 28.257 15.0348 28.0244 14.9353C27.7918 14.8357 27.5812 14.6912 27.4046 14.51C27.228 14.3288 27.089 14.1145 26.9956 13.8794C26.9021 13.6442 26.856 13.393 26.86 13.14C26.86 11.7 26.86 10.24 26.86 8.8V6.87C26.9253 6.18969 26.7711 5.50634 26.42 4.92C26.3633 4.84605 26.2918 4.78474 26.21 4.74C26.0921 4.69482 25.9661 4.6744 25.84 4.68C24.9175 4.78473 24.0524 5.18052 23.37 5.81L5 20.68C4.70648 20.9003 4.4441 21.1593 4.22 21.45C4.07921 21.6231 3.97694 21.8242 3.92 22.04C3.88426 22.1913 3.88426 22.3487 3.92 22.5V22.59C4.05717 22.8985 4.26228 23.172 4.52 23.39C7.76 25.93 11.13 28.66 14.52 31.39C17.91 34.12 20.95 36.62 24.52 39.39C24.8251 39.4869 25.1407 39.5474 25.46 39.57C25.7205 39.5952 25.9825 39.5393 26.21 39.41C26.396 39.2757 26.5302 39.0815 26.59 38.86C26.667 38.6098 26.714 38.3513 26.73 38.09V31.09C26.7376 30.5945 26.9364 30.1212 27.2849 29.7689C27.6334 29.4167 28.1047 29.2128 28.6 29.2H38.45L34.92 32.9L34.78 33.06H30.53ZM93.89 17.25L60.39 52.3L41.82 35.05L75.33 0L93.89 17.25ZM72.74 24.65C73.1256 25.722 73.1848 26.8842 72.9099 27.9897C72.635 29.0953 72.0384 30.0945 71.1957 30.861C70.3529 31.6275 69.3018 32.1269 68.1752 32.296C67.0486 32.4652 65.8971 32.2964 64.8665 31.8111C63.8358 31.3259 62.9721 30.5458 62.3848 29.5697C61.7974 28.5936 61.5126 27.4653 61.5665 26.3273C61.6204 25.1894 62.0105 24.093 62.6876 23.1768C63.3646 22.2606 64.2981 21.5657 65.37 21.18C66.0818 20.9239 66.837 20.8105 67.5926 20.8463C68.3482 20.8821 69.0893 21.0664 69.7737 21.3886C70.4581 21.7108 71.0723 22.1647 71.5812 22.7243C72.0902 23.2839 72.4839 23.9382 72.74 24.65V24.65ZM85.52 20.65L63.13 43.67C62.4012 42.9967 61.4352 42.6397 60.4437 42.6772C59.4522 42.7147 58.5159 43.1436 57.84 43.87L50.5 37.06C51.1733 36.3312 51.5303 35.3652 51.4928 34.3737C51.4553 33.3822 51.0264 32.4459 50.3 31.77L72.69 8.68C73.0507 9.01766 73.4747 9.28049 73.9376 9.45334C74.4005 9.62618 74.893 9.70559 75.3867 9.687C75.8804 9.6684 76.3656 9.55216 76.8141 9.34499C77.2627 9.13782 77.6657 8.84383 78 8.48L85.35 15.3C84.6748 16.0292 84.3158 16.9961 84.3514 17.9892C84.387 18.9823 84.8144 19.921 85.54 20.6L85.52 20.65Z" fill="#EEEEEE"/>
</g>
<defs>
<clipPath id="clip0_1_5">
<rect width="122.88" height="72.15" fill="white"/>
</clipPath>
</defs>
</svg>
