<svg width="104" height="104" viewBox="0 0 104 104" fill="none" xmlns="http://www.w3.org/2000/svg">
<path d="M94.2537 80.1246C94.2537 80.842 93.6722 81.4256 92.9505 81.4256C92.2331 81.4256 91.6516 80.842 91.6516 80.1246V73.7784H82.4784C75.6377 73.7784 70.0705 67.9353 70.0705 60.7487C70.0705 58.6963 70.5608 56.7819 71.3716 55.0478C73.39 50.7223 77.5904 47.7169 82.472 47.7169H89.1917H91.6367V41.3729C91.6367 40.6534 92.2247 40.0697 92.9399 40.0697C93.6552 40.0697 94.2389 40.6534 94.2389 41.3729V47.7169H100.755V29.7207C100.755 25.4036 97.257 21.9015 92.9357 21.9015H90.5437V8.31151C90.5437 7.12506 90.0067 6.00865 89.0834 5.26579C88.1602 4.52082 86.9525 4.24277 85.7936 4.49535L5.14906 22.239C4.2449 22.4364 3.46171 22.9607 2.90351 23.6865C1.14612 25.1171 0 27.2735 0 29.7207V91.7789C0 96.0939 3.49992 99.5959 7.81698 99.5959H92.9399C97.2591 99.5959 100.759 96.0981 100.759 91.7789V73.7784H94.2473V80.1246H94.2537V80.1246ZM89.0431 28.4196H90.5522H92.9505C93.6722 28.4196 94.2537 29.0011 94.2537 29.7228V33.6323C94.2537 34.3518 93.6722 34.9334 92.9505 34.9334C92.2331 34.9334 91.6516 34.3518 91.6516 33.6323V31.026H90.5522H89.0431C88.3215 31.026 87.7399 30.4423 87.7399 29.7228C87.7399 29.0011 88.3172 28.4196 89.0431 28.4196ZM64.5755 29.7228C64.5755 30.4423 63.994 31.026 63.2766 31.026H54.687C53.9654 31.026 53.386 30.4423 53.386 29.7228C53.386 29.0011 53.9654 28.4196 54.687 28.4196H63.2766C63.9918 28.4196 64.5755 29.0011 64.5755 29.7228ZM80.4493 31.0281H71.8597C71.1424 31.0281 70.5587 30.4444 70.5587 29.7249C70.5587 29.0033 71.1424 28.4217 71.8597 28.4217H80.4493C81.1688 28.4217 81.7504 29.0033 81.7504 29.7249C81.7567 30.4423 81.1752 31.0281 80.4493 31.0281ZM20.3246 28.4196H28.9141C29.6336 28.4196 30.2173 29.0011 30.2173 29.7228C30.2173 30.4423 29.6336 31.026 28.9141 31.026H20.3246C19.6072 31.026 19.0214 30.4423 19.0214 29.7228C19.0214 29.0011 19.6029 28.4196 20.3246 28.4196ZM6.52229 41.3793C6.52229 40.8253 6.87037 40.3584 7.35853 40.1716C7.50286 40.1164 7.65992 40.0761 7.82547 40.0761C8.54498 40.0761 9.12865 40.6598 9.12865 41.3793V44.6669V49.1283C9.12865 49.8478 8.54498 50.4315 7.82547 50.4315C7.10808 50.4315 6.52229 49.8478 6.52229 49.1283V41.3793V41.3793ZM6.52229 56.8753C6.52229 56.1579 7.10596 55.5763 7.82547 55.5763C8.54498 55.5763 9.12865 56.1579 9.12865 56.8753V64.6264C9.12865 65.3438 8.54498 65.9296 7.82547 65.9296C7.10808 65.9296 6.52229 65.3438 6.52229 64.6264V56.8753V56.8753ZM6.52229 72.3755C6.52229 71.6539 7.10596 71.0744 7.82547 71.0744C8.54498 71.0744 9.12865 71.6539 9.12865 72.3755V80.1203C9.12865 80.842 8.54498 81.4235 7.82547 81.4235C7.10808 81.4235 6.52229 80.842 6.52229 80.1203V72.3755V72.3755ZM11.7329 93.0864H7.82547C7.10808 93.0864 6.52229 92.5006 6.52229 91.7832V87.8736C6.52229 87.1562 7.10596 86.5726 7.82547 86.5726C8.54498 86.5726 9.12865 87.1562 9.12865 87.8736V90.48H11.735C12.4524 90.48 13.0382 91.0658 13.0382 91.7832C13.0382 92.5006 12.4567 93.0864 11.7329 93.0864ZM12.1234 30.9453C11.9982 30.9878 11.8709 31.0238 11.7329 31.0238H9.12865V33.6302C9.12865 34.3497 8.54498 34.9334 7.82547 34.9334C7.10808 34.9334 6.52229 34.3497 6.52229 33.6302V29.7228C6.52229 29.0011 7.10596 28.4196 7.82547 28.4196H11.735C11.9961 28.4196 12.2232 28.5151 12.4291 28.6446C12.7878 28.8759 13.0382 29.2601 13.0382 29.7228C13.0361 30.3022 12.6498 30.7755 12.1234 30.9453ZM28.9162 93.0864H20.3246C19.6072 93.0864 19.0214 92.5006 19.0214 91.7832C19.0214 91.0658 19.6051 90.48 20.3246 90.48H28.9162C29.6358 90.48 30.2194 91.0658 30.2194 91.7832C30.2194 92.5006 29.6358 93.0864 28.9162 93.0864ZM46.0932 93.0864H37.5037C36.7842 93.0864 36.2005 92.5006 36.2005 91.7832C36.2005 91.0658 36.7842 90.48 37.5037 90.48H46.0911C46.8085 90.48 47.3943 91.0658 47.3943 91.7832C47.3943 92.5006 46.8149 93.0864 46.0932 93.0864ZM46.0932 31.0281H37.5016C36.7842 31.0281 36.1984 30.4444 36.1984 29.7249C36.1984 29.0033 36.782 28.4217 37.5016 28.4217H46.0932C46.8106 28.4217 47.3964 29.0033 47.3964 29.7249C47.3964 30.4423 46.8149 31.0281 46.0932 31.0281ZM63.2744 93.0864H54.6849C53.9633 93.0864 53.3838 92.5006 53.3838 91.7832C53.3838 91.0658 53.9633 90.48 54.6849 90.48H63.2744C63.9918 90.48 64.5776 91.0658 64.5776 91.7832C64.5776 92.5006 63.9918 93.0864 63.2744 93.0864ZM80.4493 93.0864H71.8597C71.1424 93.0864 70.5608 92.5006 70.5608 91.7832C70.5608 91.0658 71.1424 90.48 71.8597 90.48H80.4493C81.1688 90.48 81.7504 91.0658 81.7504 91.7832C81.7504 92.5006 81.1752 93.0864 80.4493 93.0864ZM94.2537 91.7832C94.2537 92.5006 93.6722 93.0864 92.9505 93.0864H89.0431C88.3215 93.0864 87.7399 92.5006 87.7399 91.7832C87.7399 91.0658 88.3215 90.48 89.0431 90.48H91.6516V87.8736C91.6516 87.1562 92.2331 86.5726 92.9505 86.5726C93.6722 86.5726 94.2537 87.1562 94.2537 87.8736V91.7832ZM100.772 50.3275H93.4642H92.4475H83.2849H82.4762C79.768 50.3275 77.3102 51.5076 75.5337 53.3987C73.7657 55.2855 72.6727 57.8834 72.6727 60.7487C72.6727 66.5006 77.0661 71.1721 82.472 71.1721H92.4411H93.4557H100.765H104V50.3275H100.772V50.3275ZM83.2488 63.8433C81.6294 63.8433 80.3177 62.4594 80.3177 60.7487C80.3177 59.0359 81.6273 57.6521 83.2488 57.6521C84.8704 57.6521 86.1799 59.038 86.1799 60.7487C86.1799 62.4594 84.864 63.8433 83.2488 63.8433Z" fill="#EEEEEE" fill-opacity="0.39"/>
</svg>
