<svg width="20" height="21" viewBox="0 0 20 21" fill="none" xmlns="http://www.w3.org/2000/svg">
<path d="M14.1666 3.00005C14.3855 2.78118 14.6453 2.60756 14.9313 2.48911C15.2173 2.37066 15.5238 2.30969 15.8333 2.30969C16.1428 2.30969 16.4493 2.37066 16.7353 2.48911C17.0213 2.60756 17.2811 2.78118 17.5 3.00005C17.7188 3.21892 17.8924 3.47875 18.0109 3.76472C18.1294 4.05069 18.1903 4.35719 18.1903 4.66672C18.1903 4.97624 18.1294 5.28274 18.0109 5.56871C17.8924 5.85468 17.7188 6.11451 17.5 6.33338L6.24996 17.5834L1.66663 18.8334L2.91663 14.25L14.1666 3.00005Z" stroke="#9C9AA8" stroke-width="2" stroke-linecap="round" stroke-linejoin="round"/>
</svg>
