<svg width="19" height="19" viewBox="0 0 19 19" fill="none" xmlns="http://www.w3.org/2000/svg">
<path d="M0 1C0 0.447715 0.447715 0 1 0H5V1H1.5C1.22386 1 1 1.22386 1 1.5V5H0V1Z" fill="#fff"/>
<path d="M1 17.5C1 17.7761 1.22386 18 1.5 18H5V19H1C0.447715 19 0 18.5523 0 18V14H1V17.5Z" fill="#fff"/>
<path d="M19 1C19 0.447715 18.5523 0 18 0H14V1H17.5C17.7761 1 18 1.22386 18 1.5V5H19V1Z" fill="#fff"/>
<path d="M14 18H17.5C17.7761 18 18 17.7761 18 17.5V14H19V18C19 18.5523 18.5523 19 18 19H14V18Z" fill="#fff"/>
<path fill-rule="evenodd" clip-rule="evenodd" d="M4 11H8V15H4V11ZM5 12H7V14H5V12Z" fill="#fff"/>
<path fill-rule="evenodd" clip-rule="evenodd" d="M15 4H11V8H15V4ZM14 5H12V7H14V5Z" fill="#fff"/>
<path fill-rule="evenodd" clip-rule="evenodd" d="M4 4H8V8H4V4ZM5 5H7V7H5V5Z" fill="#fff"/>
<path d="M9 5H10V8H9V5Z" fill="#fff"/>
<path d="M9 12H10V9H7V10H9V12Z" fill="#fff"/>
<path d="M4 9H5V10H4V9Z" fill="#fff"/>
<path d="M13 9H12V10H13V11H12V13H9V15H10V14H13V15H14V14H13V11H14V13H15V11H14V10H15V9H14V10H13V9Z" fill="#fff"/>
</svg>
