<svg width="18" height="18" viewBox="0 0 18 18" fill="none" xmlns="http://www.w3.org/2000/svg">
<path d="M14.25 3H3.75C3.15326 3 2.58097 3.23705 2.15901 3.65901C1.73705 4.08097 1.5 4.65326 1.5 5.25V12.75C1.5 13.3467 1.73705 13.919 2.15901 14.341C2.58097 14.7629 3.15326 15 3.75 15H14.25C14.8467 15 15.419 14.7629 15.841 14.341C16.2629 13.919 16.5 13.3467 16.5 12.75V5.25C16.5 4.65326 16.2629 4.08097 15.841 3.65901C15.419 3.23705 14.8467 3 14.25 3ZM3.75 13.5C3.55109 13.5 3.36032 13.421 3.21967 13.2803C3.07902 13.1397 3 12.9489 3 12.75V10.935L5.475 8.4675C5.6152 8.33008 5.80369 8.25311 6 8.25311C6.19631 8.25311 6.3848 8.33008 6.525 8.4675L11.5575 13.5H3.75ZM15 12.75C15 12.9489 14.921 13.1397 14.7803 13.2803C14.6397 13.421 14.4489 13.5 14.25 13.5H13.6725L10.815 10.6275L11.475 9.9675C11.6152 9.83008 11.8037 9.75311 12 9.75311C12.1963 9.75311 12.3848 9.83008 12.525 9.9675L15 12.435V12.75ZM15 10.32L13.59 8.9175C13.1625 8.50682 12.5928 8.27747 12 8.27747C11.4072 8.27747 10.8375 8.50682 10.41 8.9175L9.75 9.5775L7.59 7.4175C7.16254 7.00682 6.59277 6.77747 6 6.77747C5.40723 6.77747 4.83746 7.00682 4.41 7.4175L3 8.82V5.25C3 5.05109 3.07902 4.86032 3.21967 4.71967C3.36032 4.57902 3.55109 4.5 3.75 4.5H14.25C14.4489 4.5 14.6397 4.57902 14.7803 4.71967C14.921 4.86032 15 5.05109 15 5.25V10.32Z" fill="#6A82FB"/>
</svg>
