<svg width="18" height="18" viewBox="0 0 18 18" fill="none" xmlns="http://www.w3.org/2000/svg">
<path d="M15.99 7.1625L14.5725 6.69L15.24 5.355C15.3077 5.21526 15.3303 5.05797 15.3048 4.90483C15.2793 4.75168 15.2068 4.61024 15.0975 4.5L13.5 2.9025C13.3892 2.79156 13.2464 2.71815 13.0917 2.69259C12.937 2.66703 12.7781 2.69061 12.6375 2.76L11.3025 3.4275L10.83 2.01C10.7801 1.86224 10.6854 1.73372 10.559 1.64231C10.4327 1.5509 10.281 1.50116 10.125 1.5H7.875C7.71777 1.49959 7.56439 1.54861 7.43653 1.64013C7.30868 1.73165 7.21282 1.86103 7.1625 2.01L6.69 3.4275L5.355 2.76C5.21527 2.69233 5.05798 2.6697 4.90483 2.69523C4.75169 2.72075 4.61024 2.79317 4.5 2.9025L2.9025 4.5C2.79157 4.61082 2.71816 4.75363 2.6926 4.90834C2.66704 5.06305 2.69061 5.22188 2.76 5.3625L3.4275 6.6975L2.01 7.17C1.86225 7.2199 1.73372 7.31462 1.64231 7.44098C1.55091 7.56734 1.50116 7.71905 1.5 7.875V10.125C1.4996 10.2822 1.54862 10.4356 1.64013 10.5635C1.73165 10.6913 1.86104 10.7872 2.01 10.8375L3.4275 11.31L2.76 12.645C2.69234 12.7847 2.66971 12.942 2.69523 13.0952C2.72075 13.2483 2.79318 13.3898 2.9025 13.5L4.5 15.0975C4.61083 15.2084 4.75363 15.2818 4.90834 15.3074C5.06305 15.333 5.22189 15.3094 5.3625 15.24L6.6975 14.5725L7.17 15.99C7.22032 16.139 7.31618 16.2684 7.44403 16.3599C7.57189 16.4514 7.72527 16.5004 7.8825 16.5H10.1325C10.2897 16.5004 10.4431 16.4514 10.571 16.3599C10.6988 16.2684 10.7947 16.139 10.845 15.99L11.3175 14.5725L12.6525 15.24C12.7913 15.306 12.9471 15.3277 13.0987 15.3022C13.2503 15.2767 13.3904 15.2052 13.5 15.0975L15.0975 13.5C15.2084 13.3892 15.2818 13.2464 15.3074 13.0917C15.333 12.9369 15.3094 12.7781 15.24 12.6375L14.5725 11.3025L15.99 10.83C16.1378 10.7801 16.2663 10.6854 16.3577 10.559C16.4491 10.4327 16.4988 10.2809 16.5 10.125V7.875C16.5004 7.71777 16.4514 7.56438 16.3599 7.43653C16.2684 7.30867 16.139 7.21281 15.99 7.1625ZM15 9.585L14.1 9.885C13.893 9.95213 13.7032 10.0635 13.5435 10.2113C13.3839 10.3592 13.2584 10.54 13.1756 10.7412C13.0928 10.9424 13.0548 11.1592 13.0642 11.3766C13.0736 11.594 13.1302 11.8067 13.23 12L13.6575 12.855L12.8325 13.68L12 13.23C11.8077 13.1342 11.597 13.0808 11.3822 13.0735C11.1675 13.0661 10.9537 13.105 10.7552 13.1875C10.5568 13.27 10.3785 13.3942 10.2322 13.5516C10.0859 13.7091 9.9752 13.8961 9.9075 14.1L9.6075 15H8.415L8.115 14.1C8.04787 13.893 7.93652 13.7032 7.78868 13.5435C7.64083 13.3839 7.46003 13.2584 7.25882 13.1756C7.0576 13.0928 6.84079 13.0548 6.62342 13.0642C6.40605 13.0736 6.19333 13.1302 6 13.23L5.145 13.6575L4.32 12.8325L4.77 12C4.86982 11.8067 4.92639 11.594 4.93579 11.3766C4.94518 11.1592 4.90718 10.9424 4.82441 10.7412C4.74164 10.54 4.61609 10.3592 4.45646 10.2113C4.29684 10.0635 4.10696 9.95213 3.9 9.885L3 9.585V8.415L3.9 8.115C4.10696 8.04787 4.29684 7.93652 4.45646 7.78867C4.61609 7.64083 4.74164 7.46003 4.82441 7.25881C4.90718 7.0576 4.94518 6.84079 4.93579 6.62342C4.92639 6.40605 4.86982 6.19332 4.77 6L4.3425 5.1675L5.1675 4.3425L6 4.77C6.19333 4.86982 6.40605 4.92639 6.62342 4.93578C6.84079 4.94518 7.0576 4.90717 7.25882 4.8244C7.46003 4.74163 7.64083 4.61608 7.78868 4.45646C7.93652 4.29683 8.04787 4.10696 8.115 3.9L8.415 3H9.585L9.885 3.9C9.95213 4.10696 10.0635 4.29683 10.2113 4.45646C10.3592 4.61608 10.54 4.74163 10.7412 4.8244C10.9424 4.90717 11.1592 4.94518 11.3766 4.93578C11.594 4.92639 11.8067 4.86982 12 4.77L12.855 4.3425L13.68 5.1675L13.23 6C13.1342 6.19233 13.0808 6.40301 13.0735 6.61776C13.0662 6.83252 13.1051 7.04635 13.1875 7.24476C13.27 7.44318 13.3942 7.62155 13.5516 7.76781C13.7091 7.91407 13.8961 8.0248 14.1 8.0925L15 8.3925V9.585ZM9 6C8.40666 6 7.82664 6.17595 7.33329 6.50559C6.83994 6.83523 6.45543 7.30377 6.22836 7.85195C6.0013 8.40013 5.94189 9.00333 6.05765 9.58527C6.1734 10.1672 6.45912 10.7018 6.87868 11.1213C7.29824 11.5409 7.83279 11.8266 8.41473 11.9424C8.99667 12.0581 9.59987 11.9987 10.1481 11.7716C10.6962 11.5446 11.1648 11.1601 11.4944 10.6667C11.8241 10.1734 12 9.59334 12 9C12 8.20435 11.6839 7.44129 11.1213 6.87868C10.5587 6.31607 9.79565 6 9 6ZM9 10.5C8.70333 10.5 8.41332 10.412 8.16665 10.2472C7.91997 10.0824 7.72771 9.84811 7.61418 9.57402C7.50065 9.29993 7.47095 8.99833 7.52882 8.70736C7.5867 8.41639 7.72956 8.14912 7.93934 7.93934C8.14912 7.72956 8.4164 7.5867 8.70737 7.52882C8.99834 7.47094 9.29994 7.50065 9.57403 7.61418C9.84812 7.72771 10.0824 7.91997 10.2472 8.16664C10.412 8.41332 10.5 8.70333 10.5 9C10.5 9.39782 10.342 9.77935 10.0607 10.0607C9.77936 10.342 9.39783 10.5 9 10.5Z" fill="#6A82FB"/>
</svg>
