<svg width="18" height="18" viewBox="0 0 18 18" fill="none" xmlns="http://www.w3.org/2000/svg">
<path d="M5.78248 11.4675L4.05748 9.75L11.25 9.75C11.4489 9.75 11.6397 9.67098 11.7803 9.53033C11.921 9.38968 12 9.19891 12 9C12 8.80109 11.921 8.61032 11.7803 8.46967C11.6397 8.32902 11.4489 8.25 11.25 8.25L4.05748 8.25L5.78248 6.5325C5.85278 6.46278 5.90858 6.37983 5.94665 6.28843C5.98473 6.19704 6.00433 6.09901 6.00433 6C6.00433 5.90099 5.98473 5.80296 5.94665 5.71157C5.90858 5.62017 5.85278 5.53722 5.78248 5.4675C5.71276 5.3972 5.62981 5.34141 5.53842 5.30333C5.44702 5.26525 5.34899 5.24565 5.24998 5.24565C5.15097 5.24565 5.05295 5.26525 4.96155 5.30333C4.87016 5.34141 4.78721 5.3972 4.71748 5.4675L1.71748 8.4675C1.6492 8.53883 1.59568 8.62294 1.55998 8.715C1.48497 8.8976 1.48497 9.1024 1.55998 9.285C1.59568 9.37706 1.6492 9.46117 1.71748 9.5325L4.71748 12.5325C4.78741 12.6024 4.87043 12.6579 4.9618 12.6957C5.05316 12.7336 5.15109 12.7531 5.24998 12.7531C5.34888 12.7531 5.4468 12.7336 5.53817 12.6957C5.62954 12.6579 5.71255 12.6024 5.78248 12.5325C5.85241 12.4626 5.90788 12.3796 5.94573 12.2882C5.98357 12.1968 6.00305 12.0989 6.00305 12C6.00305 11.9011 5.98357 11.8032 5.94573 11.7118C5.90788 11.6204 5.85241 11.5374 5.78248 11.4675ZM8.99998 2.25C8.99998 2.44891 9.079 2.63968 9.21965 2.78033C9.36031 2.92098 9.55107 3 9.74998 3L14.25 3C14.4489 3 14.6397 3.07902 14.7803 3.21967C14.921 3.36032 15 3.55109 15 3.75L15 14.25C15 14.4489 14.921 14.6397 14.7803 14.7803C14.6397 14.921 14.4489 15 14.25 15L9.74998 15C9.55107 15 9.36031 15.079 9.21965 15.2197C9.079 15.3603 8.99998 15.5511 8.99998 15.75C8.99998 15.9489 9.079 16.1397 9.21965 16.2803C9.36031 16.421 9.55107 16.5 9.74998 16.5L14.25 16.5C14.8467 16.5 15.419 16.2629 15.841 15.841C16.2629 15.419 16.5 14.8467 16.5 14.25L16.5 3.75C16.5 3.15326 16.2629 2.58097 15.841 2.15901C15.419 1.73705 14.8467 1.5 14.25 1.5L9.74998 1.5C9.55107 1.5 9.36031 1.57902 9.21965 1.71967C9.079 1.86032 8.99998 2.05109 8.99998 2.25Z" fill="#6A82FB"/>
</svg>
