<svg width="18" height="18" viewBox="0 0 18 18" fill="none" xmlns="http://www.w3.org/2000/svg">
<path d="M14.25 5.25H13.5V4.5C13.5 3.90326 13.2629 3.33097 12.841 2.90901C12.419 2.48705 11.8467 2.25 11.25 2.25H3.75C3.15326 2.25 2.58097 2.48705 2.15901 2.90901C1.73705 3.33097 1.5 3.90326 1.5 4.5V13.5C1.5 14.0967 1.73705 14.669 2.15901 15.091C2.58097 15.5129 3.15326 15.75 3.75 15.75H14.25C14.8467 15.75 15.419 15.5129 15.841 15.091C16.2629 14.669 16.5 14.0967 16.5 13.5V7.5C16.5 6.90326 16.2629 6.33097 15.841 5.90901C15.419 5.48705 14.8467 5.25 14.25 5.25ZM3.75 3.75H11.25C11.4489 3.75 11.6397 3.82902 11.7803 3.96967C11.921 4.11032 12 4.30109 12 4.5V5.25H3.75C3.55109 5.25 3.36032 5.17098 3.21967 5.03033C3.07902 4.88968 3 4.69891 3 4.5C3 4.30109 3.07902 4.11032 3.21967 3.96967C3.36032 3.82902 3.55109 3.75 3.75 3.75ZM15 11.25H14.25C14.0511 11.25 13.8603 11.171 13.7197 11.0303C13.579 10.8897 13.5 10.6989 13.5 10.5C13.5 10.3011 13.579 10.1103 13.7197 9.96967C13.8603 9.82902 14.0511 9.75 14.25 9.75H15V11.25ZM15 8.25H14.25C13.6533 8.25 13.081 8.48705 12.659 8.90901C12.2371 9.33097 12 9.90326 12 10.5C12 11.0967 12.2371 11.669 12.659 12.091C13.081 12.5129 13.6533 12.75 14.25 12.75H15V13.5C15 13.6989 14.921 13.8897 14.7803 14.0303C14.6397 14.171 14.4489 14.25 14.25 14.25H3.75C3.55109 14.25 3.36032 14.171 3.21967 14.0303C3.07902 13.8897 3 13.6989 3 13.5V6.6225C3.24095 6.70726 3.49458 6.75038 3.75 6.75H14.25C14.4489 6.75 14.6397 6.82902 14.7803 6.96967C14.921 7.11032 15 7.30109 15 7.5V8.25Z" fill="#6A82FB"/>
</svg>
