<svg width="18" height="18" viewBox="0 0 18 18" fill="none" xmlns="http://www.w3.org/2000/svg">
<path d="M11.0775 4.4025C11.2497 4.50028 11.4536 4.52598 11.6447 4.47399C11.8358 4.422 11.9985 4.29655 12.0975 4.125C12.1794 3.98052 12.3069 3.86729 12.46 3.80308C12.6132 3.73888 12.7833 3.72731 12.9437 3.77021C13.1042 3.8131 13.2458 3.90803 13.3465 4.04011C13.4472 4.17218 13.5011 4.33394 13.5 4.5C13.5 4.69891 13.421 4.88968 13.2803 5.03033C13.1397 5.17098 12.9489 5.25 12.75 5.25C12.5511 5.25 12.3603 5.32902 12.2197 5.46967C12.079 5.61032 12 5.80109 12 6C12 6.19891 12.079 6.38968 12.2197 6.53033C12.3603 6.67098 12.5511 6.75 12.75 6.75C13.1449 6.74975 13.5328 6.64557 13.8746 6.44793C14.2165 6.25029 14.5004 5.96615 14.6976 5.62406C14.8949 5.28198 14.9987 4.89399 14.9985 4.4991C14.9984 4.1042 14.8943 3.7163 14.6967 3.37438C14.4992 3.03245 14.2151 2.74854 13.8731 2.55117C13.531 2.35381 13.1431 2.24994 12.7482 2.25C12.3533 2.25006 11.9654 2.35406 11.6234 2.55153C11.2814 2.74901 10.9974 3.03301 10.8 3.375C10.7504 3.4606 10.7182 3.55517 10.7053 3.65325C10.6925 3.75133 10.6991 3.851 10.7249 3.9465C10.7507 4.04201 10.7951 4.13147 10.8556 4.20973C10.9161 4.28799 10.9915 4.3535 11.0775 4.4025ZM14.3025 9.75C14.1056 9.72445 13.9066 9.77799 13.7492 9.8989C13.5917 10.0198 13.4886 10.1982 13.4625 10.395C13.3051 11.6664 12.6883 12.8363 11.7282 13.6845C10.7681 14.5327 9.53106 15.0006 8.24998 15H4.05748L4.54498 14.5125C4.68467 14.372 4.76308 14.1819 4.76308 13.9837C4.76308 13.7856 4.68467 13.5955 4.54498 13.455C3.81369 12.7208 3.31602 11.7867 3.11465 10.7702C2.91328 9.75372 3.01722 8.70039 3.41338 7.74287C3.80954 6.78536 4.4802 5.96649 5.34087 5.38942C6.20155 4.81235 7.21375 4.50288 8.24998 4.5C8.44889 4.5 8.63966 4.42098 8.78031 4.28033C8.92096 4.13968 8.99998 3.94891 8.99998 3.75C8.99998 3.55109 8.92096 3.36032 8.78031 3.21967C8.63966 3.07902 8.44889 3 8.24998 3C6.98191 3.00529 5.74097 3.36768 4.66933 4.04565C3.59769 4.72361 2.73871 5.68974 2.19078 6.83334C1.64285 7.97694 1.42815 9.25176 1.57127 10.5117C1.71438 11.7717 2.20953 12.9659 2.99998 13.9575L1.71748 15.2175C1.61341 15.323 1.54292 15.4569 1.51489 15.6024C1.48686 15.7479 1.50255 15.8984 1.55998 16.035C1.61625 16.172 1.7118 16.2892 1.83459 16.372C1.95738 16.4547 2.10191 16.4993 2.24998 16.5H8.24998C9.89357 16.5002 11.4808 15.9008 12.7138 14.8141C13.9469 13.7273 14.7411 12.2281 14.9475 10.5975C14.9612 10.4994 14.9554 10.3996 14.9303 10.3038C14.9053 10.2081 14.8615 10.1182 14.8015 10.0394C14.7416 9.9606 14.6666 9.89446 14.5809 9.84479C14.4953 9.79512 14.4006 9.76291 14.3025 9.75ZM13.035 7.5525C12.8984 7.49209 12.747 7.47381 12.6 7.5L12.465 7.545L12.33 7.6125L12.2175 7.71C12.15 7.77911 12.0965 7.86061 12.06 7.95C12.0156 8.04355 11.995 8.14659 12 8.25C11.9978 8.35003 12.0156 8.44948 12.0525 8.5425C12.0913 8.63251 12.1473 8.71405 12.2175 8.7825C12.2876 8.85201 12.3707 8.907 12.4621 8.94433C12.5534 8.98165 12.6513 9.00057 12.75 9C12.9489 9 13.1397 8.92098 13.2803 8.78033C13.421 8.63968 13.5 8.44891 13.5 8.25C13.5025 8.15162 13.482 8.05401 13.44 7.965C13.3594 7.78478 13.2152 7.64059 13.035 7.56V7.5525Z" fill="#6A82FB"/>
</svg>
