<svg width="14" height="20" viewBox="0 0 14 20" fill="none" xmlns="http://www.w3.org/2000/svg">
<path d="M13.0455 12.4547H10.8182C9.41464 12.4547 8.27274 11.3128 8.27274 9.9093C8.27274 8.50576 9.41464 7.36386 10.8182 7.36386H13.0455C13.2213 7.36386 13.3636 7.22154 13.3636 7.04566V6.09112C13.3636 5.42389 12.8461 4.88126 12.1922 4.82865L10.3649 1.63689C10.1955 1.3417 9.92207 1.13071 9.59487 1.0431C9.26922 0.956089 8.92869 1.00179 8.63722 1.17143L2.37294 4.81838H1.27274C0.570817 4.81838 0 5.38917 0 6.09112V13.7275C0 14.4294 0.570788 15.0002 1.27274 15.0002H12.0909C12.7928 15.0002 13.3636 14.4294 13.3636 13.7275V12.7729C13.3636 12.5971 13.2213 12.4547 13.0455 12.4547ZM10.7595 3.60743L11.4528 4.81838H8.67949L10.7595 3.60743ZM3.63771 4.81838L8.95756 1.72139C9.10143 1.63719 9.26952 1.61481 9.43018 1.65771C9.59269 1.7012 9.72818 1.80623 9.81238 1.9532L9.81304 1.95436L4.89386 4.81838H3.63771Z" fill="white"/>
<path d="M13.0455 8.00021H10.8182C9.76543 8.00021 8.90909 8.85655 8.90909 9.9093C8.90909 10.962 9.76543 11.8184 10.8182 11.8184H13.0455C13.5718 11.8184 14 11.3902 14 10.8638V8.95475C14 8.42838 13.5718 8.00021 13.0455 8.00021ZM10.8182 10.5456C10.4674 10.5456 10.1818 10.2601 10.1818 9.9093C10.1818 9.5585 10.4674 9.27294 10.8182 9.27294C11.169 9.27294 11.4545 9.5585 11.4545 9.9093C11.4546 10.2601 11.169 10.5456 10.8182 10.5456Z" fill="white"/>
</svg>

