<svg width="255" height="263" viewBox="0 0 255 263" fill="none" xmlns="http://www.w3.org/2000/svg">
<g clip-path="url(#clip0_190_9602)">
<path d="M144.348 71.1547C145.952 75.0541 155.39 74.7855 165.278 70.7044C175.166 66.6234 181.892 60.1533 180.288 56.2539C179.911 55.3534 178.837 51.9768 177.764 51.5121C174.078 49.9508 167.063 53.4582 159.467 56.5952C152.394 59.4998 144.305 61.3951 143.05 65.2365C142.295 67.5747 143.891 70.0436 144.348 71.1547Z" fill="#6A82FB"/>
<path opacity="0.2" d="M143.05 65.2363C142.447 68.2934 143.775 69.7603 144.348 71.1545C144.921 72.5487 146.597 73.4637 148.94 73.7832C149.233 73.8331 149.529 73.867 149.826 73.8849C151.622 73.9906 153.425 73.8956 155.201 73.6017C155.455 73.6017 155.709 73.5218 155.97 73.4782C158.055 73.1037 160.109 72.5745 162.115 71.8952L162.84 71.6483C163.646 71.3651 164.473 71.0528 165.3 70.7116C166.127 70.3703 166.91 69.9854 167.687 69.6441L168.354 69.3246C170.183 68.4194 171.945 67.3856 173.628 66.2311L174.223 65.81C175.692 64.7706 177.038 63.5671 178.235 62.2228C178.416 62.0194 178.583 61.8234 178.743 61.62C180.303 59.6449 180.919 57.7569 180.303 56.2537C179.896 55.2879 179.026 51.9839 177.778 51.5046C176.243 51.0719 174.619 51.0719 173.084 51.5046L172.359 51.6789C168.731 52.6084 164.161 54.678 159.496 56.6023C153.997 58.8752 147.49 61.2352 144.297 63.9583C144.108 64.1183 143.926 64.2879 143.753 64.4666C143.499 64.704 143.263 64.9614 143.05 65.2363Z" fill="black"/>
<g opacity="0.2">
<path opacity="0.2" d="M171.996 51.0543L172.33 51.6643L178.221 62.2154C178.402 62.0121 178.569 61.816 178.728 61.6127L173.07 51.49L172.627 50.7058L171.996 51.0543Z" fill="black"/>
</g>
<g opacity="0.2">
<path opacity="0.2" d="M167.541 55.3605L173.614 66.2529L174.208 65.8318L168.173 55.0265L167.541 55.3605Z" fill="black"/>
</g>
<g opacity="0.2">
<path opacity="0.2" d="M156.376 61.6057L162.115 71.8954L162.84 71.6485L157.037 61.2209L156.376 61.6057Z" fill="black"/>
</g>
<g opacity="0.2">
<path opacity="0.2" d="M161.571 58.701L167.672 69.6442L168.339 69.3247L162.202 58.3161L161.571 58.701Z" fill="black"/>
</g>
<g opacity="0.2">
<path opacity="0.2" d="M149.608 63.5951L155.201 73.6016C155.455 73.6016 155.709 73.5217 155.97 73.4781L150.246 63.232L149.608 63.5951Z" fill="black"/>
</g>
<path d="M143.093 67.7563C144.696 71.6558 154.019 71.5033 163.914 67.415C173.809 63.3267 180.527 56.8639 178.917 52.9644C177.306 49.0649 167.991 49.2247 158.096 53.3057C148.2 57.3867 141.49 63.835 143.093 67.7563Z" fill="#6A82FB"/>
<path opacity="0.2" d="M146.46 66.3402C147.591 69.0924 154.86 68.7075 162.688 65.4761C170.516 62.2447 175.943 57.3867 174.811 54.6345C173.679 51.8824 166.41 52.2672 158.575 55.4986C150.74 58.7301 145.321 63.5881 146.46 66.3402Z" fill="white"/>
<path d="M94.3489 35.9068C91.7662 39.2398 96.6849 47.3075 105.151 53.8647C113.617 60.4219 122.562 63.0361 125.138 59.674C125.733 58.9042 128.141 56.3264 127.996 55.121C127.51 51.1489 120.988 46.8064 114.488 41.7669C108.438 37.0759 102.786 30.9907 98.8323 31.8112C96.431 32.3413 95.0816 34.9628 94.3489 35.9068Z" fill="#6A82FB"/>
<path opacity="0.2" d="M98.832 31.8405C95.8793 32.8426 95.2699 34.7451 94.3486 35.9069C93.4272 37.0688 93.4635 39.0076 94.3486 41.2079C94.4502 41.4766 94.5735 41.7453 94.7041 42.0212C95.4989 43.6355 96.4723 45.1555 97.6059 46.5524C97.7583 46.7558 97.9252 46.9518 98.092 47.1552C99.4564 48.7839 100.94 50.3082 102.532 51.7154L103.091 52.202C103.736 52.7611 104.418 53.3202 105.122 53.8649C105.826 54.4095 106.529 54.9251 107.24 55.4116C107.436 55.5568 107.646 55.6948 107.842 55.8328C109.537 56.9709 111.312 57.9853 113.153 58.8681C113.378 58.9843 113.595 59.0787 113.806 59.1804C115.441 59.9376 117.157 60.5076 118.92 60.8796C119.181 60.9377 119.435 60.9812 119.689 61.0175C122.178 61.3879 124.122 61.0175 125.116 59.7032C125.754 58.8754 128.185 56.4718 127.974 55.1574C127.595 53.6037 126.788 52.1874 125.645 51.0692C125.486 50.8876 125.312 50.7061 125.13 50.5173C122.511 47.8014 118.456 44.8895 114.466 41.8034C109.758 38.1726 104.476 33.6776 100.537 32.2689C100.299 32.1815 100.057 32.1063 99.8114 32.0438C99.4903 31.9522 99.163 31.8842 98.832 31.8405Z" fill="black"/>
<g opacity="0.2">
<path opacity="0.2" d="M125.515 49.9216L125.152 50.5171L118.942 60.8794C119.203 60.9375 119.457 60.981 119.711 61.0173L125.667 51.0544L126.131 50.3283L125.515 49.9216Z" fill="black"/>
</g>
<g opacity="0.2">
<path opacity="0.2" d="M119.573 48.1935L113.175 58.868C113.4 58.9842 113.617 59.0786 113.828 59.1803L120.197 48.5638L119.573 48.1935Z" fill="black"/>
</g>
<g opacity="0.2">
<path opacity="0.2" d="M108.611 41.6146L102.554 51.7228L103.112 52.2093L109.235 41.985L108.611 41.6146Z" fill="black"/>
</g>
<g opacity="0.2">
<path opacity="0.2" d="M113.704 44.6716L107.262 55.4115C107.458 55.5568 107.668 55.6947 107.864 55.8327L114.335 45.042L113.704 44.6716Z" fill="black"/>
</g>
<g opacity="0.2">
<path opacity="0.2" d="M103.519 36.7128L97.6277 46.5522C97.7801 46.7556 97.9469 46.9516 98.1138 47.1549L104.142 37.0904L103.519 36.7128Z" fill="black"/>
</g>
<path d="M107.347 51.015C98.8867 44.4555 94.1183 36.4366 96.697 33.1043C99.2756 29.7719 108.225 32.3881 116.685 38.9476C125.146 45.5072 129.914 53.5261 127.336 56.8584C124.757 60.1907 115.808 57.5745 107.347 51.015Z" fill="#6A82FB"/>
<path opacity="0.2" d="M108.397 48.994C101.701 43.8024 97.7499 37.684 99.5728 35.3282C101.396 32.9725 108.302 35.2714 114.998 40.463C121.695 45.6546 125.645 51.773 123.822 54.1288C121.999 56.4845 115.093 54.1856 108.397 48.994Z" fill="white"/>
<path d="M129.367 20.2945C130.194 25.0727 140.902 27.0914 153.032 24.9129C165.162 22.7344 174.31 17.1212 173.461 12.3431C173.266 11.2321 172.925 7.18737 171.786 6.38133C168.02 3.72359 159.271 5.94564 149.956 7.60128C141.25 9.148 131.725 9.27144 129.367 13.2871C127.938 15.756 129.128 18.9294 129.367 20.2945Z" fill="#6A82FB"/>
<path opacity="0.2" d="M129.367 13.2941C127.916 16.5908 129.07 18.5587 129.367 20.2724C129.665 21.9862 131.326 23.4167 133.88 24.3607C134.192 24.4842 134.518 24.5858 134.852 24.6875C136.849 25.2494 138.903 25.588 140.975 25.6969C141.272 25.6969 141.562 25.6969 141.867 25.7477C144.308 25.8375 146.752 25.7477 149.18 25.479L150.029 25.3701C151.008 25.2466 152.016 25.1014 153.025 24.9199C154.033 24.7383 155.013 24.535 155.978 24.3099C156.253 24.2518 156.529 24.1792 156.805 24.1138C159.084 23.5505 161.319 22.8224 163.493 21.9354C163.762 21.8337 164.016 21.7175 164.27 21.6158C166.178 20.8029 167.988 19.7774 169.667 18.5587C169.921 18.3772 170.153 18.1956 170.393 18.0068C172.642 16.1696 173.795 14.1945 173.469 12.3573C173.251 11.1664 173.077 7.2742 171.8 6.39554C170.523 5.51689 168.695 5.24095 166.519 5.23369H165.648C161.295 5.37892 155.687 6.5916 149.963 7.60823C143.217 8.81365 135.316 9.86658 131.065 12.1467C130.816 12.279 130.573 12.4244 130.339 12.5824C129.997 12.7939 129.672 13.0319 129.367 13.2941Z" fill="black"/>
<g opacity="0.2">
<path opacity="0.2" d="M165.409 4.49333L165.641 5.25579L169.674 18.5736C169.928 18.392 170.16 18.2105 170.4 18.0217L166.526 5.24853L166.221 4.25369L165.409 4.49333Z" fill="black"/>
</g>
<g opacity="0.2">
<path opacity="0.2" d="M159.344 8.21112L163.5 21.9283C163.769 21.8266 164.023 21.7104 164.277 21.6088L160.142 7.95697L159.344 8.21112Z" fill="black"/>
</g>
<g opacity="0.2">
<path opacity="0.2" d="M145.248 12.5099L149.187 25.5009L150.036 25.3919L146.053 12.263L145.248 12.5099Z" fill="black"/>
</g>
<g opacity="0.2">
<path opacity="0.2" d="M151.799 10.5205L155.985 24.3175C156.26 24.2594 156.536 24.1868 156.812 24.1214L152.604 10.259L151.799 10.5205Z" fill="black"/>
</g>
<g opacity="0.2">
<path opacity="0.2" d="M137.144 13.0765L140.982 25.7189C141.28 25.7189 141.57 25.7189 141.874 25.7697L137.95 12.8369L137.144 13.0765Z" fill="black"/>
</g>
<path d="M128.802 16.1225C127.953 11.3449 137.101 5.71986 149.235 3.55862C161.369 1.39738 171.894 3.51837 172.743 8.29599C173.592 13.0736 164.444 18.6987 152.31 20.8599C140.177 23.0211 129.652 20.9001 128.802 16.1225Z" fill="#6A82FB"/>
<path opacity="0.2" d="M132.932 15.3924C132.331 12.0165 139.628 7.89345 149.23 6.18329C158.831 4.47313 167.101 5.82349 167.701 9.1994C168.301 12.5753 161.004 16.6984 151.403 18.4086C141.802 20.1187 133.532 18.7684 132.932 15.3924Z" fill="white"/>
<path d="M66.0334 142.282L140.692 146.639C143.329 146.795 145.917 147.424 148.331 148.498L229.424 184.806C230.847 185.432 232.012 186.528 232.725 187.91C233.438 189.293 233.656 190.878 233.342 192.402L219.942 255.832C219.716 256.853 219.259 257.809 218.606 258.627C217.954 259.444 217.124 260.102 216.179 260.549C215.234 260.996 214.199 261.221 213.154 261.206C212.109 261.191 211.081 260.938 210.148 260.465L130.107 220.468L56.1961 217.991C55.2866 217.967 54.3927 217.749 53.5739 217.352C52.7551 216.955 52.0302 216.388 51.4475 215.689C50.8648 214.989 50.4376 214.174 50.1943 213.296C49.9511 212.418 49.8974 211.499 50.0368 210.599L59.925 149.863C60.4401 146.726 62.8196 142.188 66.0334 142.282Z" fill="#6A82FB"/>
<path opacity="0.1" d="M66.0334 142.282L140.692 146.639C143.329 146.795 145.917 147.424 148.331 148.498L229.424 184.806C230.847 185.432 232.012 186.528 232.725 187.91C233.438 189.293 233.656 190.878 233.342 192.402L219.942 255.832C219.716 256.853 219.259 257.809 218.606 258.627C217.954 259.444 217.124 260.102 216.179 260.549C215.234 260.996 214.199 261.221 213.154 261.206C212.109 261.191 211.081 260.938 210.148 260.465L130.107 220.468L56.1961 217.991C55.2866 217.967 54.3927 217.749 53.5739 217.352C52.7551 216.955 52.0302 216.388 51.4475 215.689C50.8648 214.989 50.4376 214.174 50.1943 213.296C49.9511 212.418 49.8974 211.499 50.0368 210.599L59.925 149.863C60.4401 146.726 62.8196 142.188 66.0334 142.282Z" fill="black"/>
<path d="M215.887 100.981L255.067 137.131L184.758 213.477L145.578 177.327L215.887 100.981Z" fill="#6A82FB"/>
<path opacity="0.5" d="M145.589 177.334L184.771 213.482L255.07 137.141L229.359 113.417L215.887 100.985L213.645 103.425L145.589 177.334Z" fill="#FAFAFA"/>
<path d="M215.636 105.649L250.207 137.546L184.441 208.958L149.87 177.061L215.636 105.649Z" stroke="#6A82FB" stroke-miterlimit="10"/>
<path d="M192.26 165.758C188.294 162.1 188.796 155.098 193.38 150.121C197.964 145.143 204.894 144.074 208.86 147.733C212.825 151.392 212.324 158.393 207.74 163.37C203.156 168.348 196.225 169.417 192.26 165.758Z" fill="#6A82FB"/>
<path opacity="0.1" d="M185.185 182.497L199.107 187.311L229.359 113.417L215.887 100.985L213.645 103.425L185.185 182.497Z" fill="black"/>
<path d="M182.472 71.0712L232.567 89.2521L197.207 186.867L147.112 168.686L182.472 71.0712Z" fill="#6A82FB"/>
<path opacity="0.5" d="M182.472 71.0712L232.567 89.2521L197.207 186.867L147.112 168.686L182.472 71.0712Z" fill="#FAFAFA"/>
<path d="M184.047 75.4732L228.249 91.5154L195.174 182.822L150.972 166.78L184.047 75.4732Z" stroke="#6A82FB" stroke-miterlimit="10"/>
<path d="M185.692 139.949C180.622 138.109 178.381 131.458 180.686 125.094C182.992 118.729 188.97 115.062 194.04 116.902C199.11 118.742 201.352 125.393 199.046 131.757C196.741 138.121 190.762 141.789 185.692 139.949Z" fill="#6A82FB"/>
<path d="M65.5474 144.86L139.183 149.013C141.793 149.157 144.354 149.784 146.735 150.865L226.638 186.97C228.046 187.606 229.194 188.705 229.893 190.083C230.592 191.462 230.8 193.038 230.483 194.551L217.084 258.01C216.868 259.025 216.423 259.977 215.782 260.793C215.141 261.609 214.322 262.267 213.387 262.716C212.452 263.166 211.427 263.395 210.391 263.386C209.354 263.377 208.333 263.13 207.406 262.665L128.547 222.893L55.652 220.584C54.7496 220.555 53.8636 220.334 53.0533 219.936C52.2429 219.537 51.5268 218.97 50.9528 218.272C50.3788 217.575 49.9601 216.763 49.7245 215.89C49.489 215.018 49.4422 214.105 49.5871 213.213L59.5043 152.484C60.0193 149.318 62.3699 144.773 65.5474 144.86Z" fill="#6A82FB"/>
<path opacity="0.2" d="M136.187 160.124L73.0054 156.232" stroke="black" stroke-width="2" stroke-linecap="round" stroke-linejoin="round"/>
<path opacity="0.2" d="M143.753 161.757L132.211 214.825" stroke="black" stroke-width="2" stroke-linecap="round" stroke-linejoin="round"/>
<path opacity="0.2" d="M220.711 209.669L212.571 250.487C212.571 250.487 206.332 234.293 220.711 209.669Z" fill="#FAFAFA"/>
<path opacity="0.2" d="M219.645 210.149C219.362 210.875 147.344 179.94 147.344 179.94C147.149 186.954 148.901 193.884 152.405 199.96C155.909 206.037 161.028 211.022 167.193 214.36C188.87 226.524 219.645 210.149 219.645 210.149Z" fill="#FAFAFA"/>
<path d="M171.807 211.354C170.084 211.354 168.688 209.956 168.688 208.232C168.688 206.507 170.084 205.109 171.807 205.109C173.53 205.109 174.927 206.507 174.927 208.232C174.927 209.956 173.53 211.354 171.807 211.354Z" fill="#6A82FB"/>
<path opacity="0.2" d="M147.308 179.94C147.308 179.94 138.378 193.396 140.54 216.314L147.308 179.94Z" fill="black"/>
<g opacity="0.2">
<path opacity="0.2" d="M224.157 193.636L222.496 192.902" stroke="#FAFAFA" stroke-linecap="round" stroke-linejoin="round"/>
<path opacity="0.2" d="M219.05 191.377L151.799 161.619" stroke="#FAFAFA" stroke-linecap="round" stroke-linejoin="round" stroke-dasharray="5.2 5.2"/>
<path opacity="0.2" d="M150.072 160.857L148.418 160.124" stroke="#FAFAFA" stroke-linecap="round" stroke-linejoin="round"/>
</g>
<path opacity="0.2" d="M134.068 172.055L70.8871 168.155" stroke="black" stroke-width="2" stroke-linecap="round" stroke-linejoin="round"/>
<path opacity="0.2" d="M131.224 186.933L68.043 183.034" stroke="black" stroke-width="2" stroke-linecap="round" stroke-linejoin="round"/>
<path d="M81.8924 81.2339C81.8924 81.2339 83.4811 98.1752 89.7709 99.6348C93.666 100.477 97.7271 100.07 101.378 98.4729L106.493 94.5372L108.989 103.251C108.989 103.251 106.261 106.962 100.566 104.391C100.566 104.391 90.4094 108.864 84.7942 104.391C79.1791 99.918 77.3799 87.6459 77.3799 87.6459L81.8924 81.2339Z" fill="#B97964"/>
<path d="M76.836 73.0283C76.836 73.0283 81.2251 65.5416 79.23 51.9697C77.235 38.3978 65.8668 36.7204 61.4777 37.7007C57.0886 38.681 53.4976 42.9 50.5086 50.9313C47.5197 58.9626 46.417 61.054 41.433 59.6452C36.449 58.2365 23.1874 53.8359 19.4947 57.7499C18.4326 58.8191 17.6499 60.1336 17.2159 61.5775C16.7819 63.0213 16.71 64.5499 17.0064 66.0282C17.0064 66.0282 -1.44238 61.5405 0.153664 78.0098C1.74969 94.4791 28.3745 109.852 53.7007 93.5787C79.0269 77.3054 76.836 73.0283 76.836 73.0283Z" fill="#263238"/>
<path d="M77.0388 112.887C77.0388 112.887 82.0518 156.043 81.8849 176.281C81.718 196.519 74.5359 244.213 74.5359 244.213H65.6779C65.6779 244.213 66.8459 206.075 66.679 193.026C66.5122 179.977 64.1761 158.389 64.1761 158.389C64.1761 158.389 61.3396 177.791 57.9951 184.646C54.6507 191.501 36.1004 215.762 23.2306 223.293L17.2164 217.767C17.2164 217.767 30.5868 201.21 35.5998 193.012C40.6128 184.813 45.118 182.49 46.9607 167.24C48.8034 151.991 45.6186 127.599 50.9653 112.88L77.0388 112.887Z" fill="#263238"/>
<path opacity="0.2" d="M64.1764 158.388L68.0287 131.034C68.0287 131.034 71.0684 147.474 65.0833 167.553L64.1764 158.388Z" fill="black"/>
<path d="M72.7153 246.631L72.4178 255.106L66.4762 255.599L66.1788 254.808V246.036L72.7153 246.631Z" fill="#D39480"/>
<path d="M75.5374 243.407L74.9933 246.58L64.7932 246.827L64.1475 243.015L75.5374 243.407Z" fill="#6A82FB"/>
<path d="M26.0237 223.881L16.5709 215.065L14.4888 218.384L22.6068 225.82L26.0237 223.881Z" fill="#6A82FB"/>
<path d="M21.4679 223.881L15.2289 229.138L11.2243 224.425L16.3461 219.124L21.4679 223.881Z" fill="#D39480"/>
<path d="M10.0126 224.062L6.24016 226.386C6.06826 226.492 5.92159 226.634 5.81041 226.803C5.69923 226.972 5.62621 227.163 5.5965 227.362C5.56678 227.562 5.58107 227.766 5.63836 227.96C5.69566 228.154 5.79458 228.333 5.92819 228.484C8.66322 231.578 15.6495 239.435 16.346 239.987C17.2093 240.713 18.254 239.493 18.5224 238.404C18.5224 238.404 16.5419 235.775 16.346 234.09C16.2635 232.789 16.2635 231.485 16.346 230.184C16.3613 229.858 16.2523 229.539 16.0413 229.29L11.8263 224.338C11.6086 224.08 11.3048 223.91 10.9712 223.859C10.6377 223.808 10.297 223.88 10.0126 224.062Z" fill="#263238"/>
<path d="M65.0252 255.832L64.2417 260.189C64.2057 260.388 64.2137 260.593 64.2651 260.789C64.3166 260.984 64.4103 261.167 64.5396 261.322C64.6689 261.478 64.8306 261.603 65.0135 261.69C65.1965 261.776 65.396 261.822 65.5983 261.823C69.7263 261.823 80.2311 261.866 81.1089 261.721C82.2044 261.539 82.0085 259.971 81.3628 259.056C81.3628 259.056 78.091 258.78 76.7198 257.785C75.7 256.984 74.7309 256.121 73.8179 255.2C73.5846 254.971 73.2737 254.839 72.9474 254.83L66.4544 254.677C66.1172 254.665 65.7868 254.775 65.5242 254.987C65.2616 255.199 65.0844 255.499 65.0252 255.832Z" fill="#263238"/>
<path d="M50.015 88.953L40.9611 82.5918C40.9611 82.5918 43.3697 72.9485 46.939 72.4692C50.5083 71.9899 68.2243 68.6133 79.4909 72.4692C79.4909 72.4692 83.539 73.6238 84.7868 85.0027L79.9697 86.5421C79.9697 86.5421 78.2431 107.848 77.1766 111.13H51.4659C51.4659 111.13 51.1757 92.8089 50.015 88.953Z" fill="#6A82FB"/>
<path d="M48.0636 87.5805C48.0636 87.5805 44.6321 97.3836 44.0227 102.656C44.0227 102.656 52.177 99.4023 54.2809 97.9137L55.8769 92.177L61.2744 89.5411L62.8777 93.898L58.3725 99.4895C58.3725 99.4895 46.0903 110.992 39.8658 108.363C33.6412 105.734 42.3251 83.5721 42.3251 83.5721L48.0636 87.5805Z" fill="#D39480"/>
<path d="M71.0973 44.6571C71.0973 44.6571 74.2386 50.9311 73.9992 56.036C73.7598 61.1409 71.1844 63.225 66.2874 63.9439C66.2874 63.9439 64.1981 70.4793 69.6826 71.1401C70.1034 71.191 70.2485 72.8539 70.2195 73.1226C70.0744 74.1827 69.0224 74.7637 68.0431 75.0106C67.0115 75.2392 65.9583 75.3561 64.9018 75.3591C63.7923 75.3974 62.6887 75.1826 61.6744 74.7309C60.6601 74.2793 59.7617 73.6027 59.0472 72.7522C58.9311 72.6142 57.8284 71.2055 57.8284 71.2055C57.8284 71.2055 60.4474 69.9057 59.526 61.3951C58.2762 60.5807 57.3162 59.391 56.7837 57.9966C56.2834 57.7308 55.8409 57.3679 55.4822 56.929C55.1235 56.4901 54.8556 55.9841 54.6944 55.4406C54.3026 53.7414 55.8044 51.3886 58.5466 53.7414C58.5466 53.7414 63.712 51.1272 65.6708 41.9703C67.1232 43.4555 69.0366 44.4028 71.0973 44.6571Z" fill="#D39480"/>
<path d="M69.6247 54.6421L69.1822 51.2872L71.5545 53.9159C71.3098 54.1767 71.0085 54.3777 70.674 54.5036C70.3394 54.6295 69.9805 54.6769 69.6247 54.6421Z" fill="#C98376"/>
<path d="M68.2461 57.0965C68.2461 57.0965 65.7432 57.4814 64.539 55.8766" stroke="#222221" stroke-width="0.75" stroke-linecap="round" stroke-linejoin="round"/>
<path d="M65.7433 46.5889C65.1752 46.4272 64.5739 46.4221 64.0031 46.5742C63.4323 46.7264 62.9132 47.03 62.5005 47.453" stroke="#222221" stroke-linecap="round" stroke-linejoin="round"/>
<path d="M70.0744 45.8629C70.0744 45.8629 71.5253 45.6377 72.171 46.4583" stroke="#222221" stroke-linecap="round" stroke-linejoin="round"/>
<path d="M64.735 51.004C64.8003 51.5123 65.1268 51.8827 65.4605 51.8391C65.7942 51.7955 66.0192 51.3526 65.9539 50.8443C65.8886 50.336 65.5621 49.9656 65.2284 50.0092C64.8947 50.0528 64.6697 50.4957 64.735 51.004Z" fill="#222221"/>
<path d="M70.5262 49.8801C70.4607 49.3751 70.6813 48.93 71.0191 48.8861C71.3568 48.8422 71.6837 49.2161 71.7493 49.7212C71.8148 50.2262 71.5941 50.6713 71.2564 50.7152C70.9187 50.7591 70.5918 50.3852 70.5262 49.8801Z" fill="#222221"/>
<path d="M65.2212 50.009L66.3674 49.508C66.3523 49.6336 66.3047 49.753 66.2293 49.8545C66.1539 49.956 66.0533 50.0361 65.9375 50.0867C65.8217 50.1373 65.6947 50.1568 65.569 50.1431C65.4434 50.1295 65.3235 50.0833 65.2212 50.009Z" fill="#222221"/>
<path d="M70.9087 48.9344L72.0549 48.4333C72.0398 48.5589 71.9922 48.6784 71.9168 48.7799C71.8414 48.8814 71.7408 48.9614 71.625 49.012C71.5092 49.0627 71.3822 49.0821 71.2565 49.0685C71.1309 49.0549 71.011 49.0086 70.9087 48.9344Z" fill="#222221"/>
<path d="M78.0764 109.997V113.025L50.2183 113.257L50.9656 109.656L78.0764 109.997Z" fill="#6A82FB"/>
<path opacity="0.4" d="M78.0764 109.997V113.025L50.2183 113.257L50.9656 109.656L78.0764 109.997Z" fill="white"/>
<path d="M77.7355 95.2996L93.0574 148.643C93.5668 150.43 94.5993 152.022 96.0218 153.216C97.4442 154.409 99.1913 155.149 101.038 155.338C102.213 155.451 103.399 155.343 104.534 155.019L133.822 146.588C136.189 145.904 138.189 144.309 139.383 142.151C140.577 139.994 140.868 137.45 140.191 135.079L124.862 81.7204C124.177 79.3539 122.584 77.3554 120.43 76.1631C118.276 74.9707 115.737 74.6817 113.371 75.3593L84.0616 83.7827C81.6993 84.474 79.7071 86.0742 78.5213 88.2329C77.3356 90.3916 77.053 92.9328 77.7355 95.2996Z" fill="#6A82FB"/>
<path opacity="0.2" d="M77.7355 95.2996L93.0574 148.643C93.5668 150.43 94.5993 152.022 96.0218 153.216C97.4442 154.409 99.1913 155.149 101.038 155.338C102.213 155.451 103.399 155.343 104.534 155.019L133.822 146.588C136.189 145.904 138.189 144.309 139.383 142.151C140.577 139.994 140.868 137.45 140.191 135.079L124.862 81.7204C124.177 79.3539 122.584 77.3554 120.43 76.1631C118.276 74.9707 115.737 74.6817 113.371 75.3593L84.0616 83.7827C81.6993 84.474 79.7071 86.0742 78.5213 88.2329C77.3356 90.3916 77.053 92.9328 77.7355 95.2996Z" fill="black"/>
<path d="M80.2819 95.9312L95.6038 149.282C95.9912 150.64 96.6835 151.892 97.6277 152.941C98.5719 153.991 99.7432 154.811 101.052 155.338C102.227 155.451 103.413 155.342 104.549 155.019L133.822 146.588C136.189 145.904 138.189 144.309 139.383 142.151C140.577 139.994 140.868 137.45 140.191 135.078L124.862 81.7203C124.474 80.3641 123.782 79.1147 122.837 78.0675C121.893 77.0204 120.722 76.2032 119.414 75.6786C118.239 75.5589 117.051 75.6673 115.917 75.9981L86.666 84.4579C84.3029 85.1373 82.3046 86.7257 81.1083 88.8757C79.9119 91.0257 79.6148 93.5625 80.2819 95.9312Z" fill="#6A82FB"/>
<path opacity="0.5" d="M80.2819 95.9312L95.6038 149.282C95.9912 150.64 96.6835 151.892 97.6277 152.941C98.5719 153.991 99.7432 154.811 101.052 155.338C102.227 155.451 103.413 155.342 104.549 155.019L133.822 146.588C136.189 145.904 138.189 144.309 139.383 142.151C140.577 139.994 140.868 137.45 140.191 135.078L124.862 81.7203C124.474 80.3641 123.782 79.1147 122.837 78.0675C121.893 77.0204 120.722 76.2032 119.414 75.6786C118.239 75.5589 117.051 75.6673 115.917 75.9981L86.666 84.4579C84.3029 85.1373 82.3046 86.7257 81.1083 88.8757C79.9119 91.0257 79.6148 93.5625 80.2819 95.9312Z" fill="#FAFAFA"/>
<path d="M121.473 100.468L124.609 99.5834L135.893 139.66L132.758 140.545L121.473 100.468Z" fill="#FAFAFA"/>
<path d="M128.257 141.817L131.391 140.91L120.11 100.848L116.983 101.748L128.257 141.817Z" fill="#FAFAFA"/>
<path d="M123.701 143.125L126.835 142.224L115.554 102.162L112.42 103.062L123.701 143.125Z" fill="#FAFAFA"/>
<path opacity="0.5" d="M94.1765 108.312L97.3117 107.428L108.596 147.505L105.461 148.389L94.1765 108.312Z" fill="black"/>
<path d="M94.5738 96.9842L96.0973 102.423L97.9545 101.9C98.8542 101.645 99.6159 101.043 100.073 100.226C100.53 99.4094 100.645 98.4446 100.392 97.5434L99.3764 93.9126L95.6257 94.9873C95.2219 95.1127 94.8843 95.3935 94.687 95.7679C94.4898 96.1423 94.4491 96.5798 94.5738 96.9842Z" fill="#FAFAFA"/>
<path d="M95.4658 94.3194L99.2165 93.2447L98.092 89.2653C97.9665 88.8189 97.7543 88.4016 97.4675 88.0373C97.1808 87.6731 96.8251 87.3689 96.4208 87.1423C96.0166 86.9157 95.5717 86.7711 95.1115 86.7167C94.6514 86.6623 94.1851 86.6993 93.7392 86.8254L91.8094 87.37L93.4925 93.2301C93.5484 93.4328 93.6442 93.6221 93.7742 93.7871C93.9043 93.9521 94.066 94.0894 94.2499 94.1909C94.4338 94.2924 94.6361 94.3561 94.8449 94.3781C95.0537 94.4002 95.2648 94.3802 95.4658 94.3194Z" fill="#FAFAFA"/>
<path d="M91.9113 96.0766L88.1388 97.1586L89.14 100.71C89.2638 101.157 89.475 101.575 89.7613 101.941C90.0477 102.306 90.4035 102.611 90.8082 102.838C91.2129 103.065 91.6586 103.209 92.1194 103.262C92.5802 103.316 93.047 103.278 93.4928 103.149L95.4516 102.598L93.8918 97.1659C93.8343 96.9635 93.7373 96.7746 93.6063 96.6101C93.4753 96.4455 93.313 96.3086 93.1288 96.2073C92.9446 96.106 92.7421 96.0423 92.5331 96.0199C92.3241 95.9974 92.1128 96.0167 91.9113 96.0766Z" fill="#FAFAFA"/>
<path d="M86.804 92.4457L87.943 96.4831L91.7154 95.4011C92.1194 95.283 92.4603 95.0099 92.6641 94.6413C92.8679 94.2728 92.9181 93.8386 92.8036 93.4332L91.1205 87.5731L89.2416 88.1032C88.7966 88.2281 88.3806 88.4395 88.0173 88.7254C87.654 89.0112 87.3506 89.3658 87.1242 89.7691C86.8979 90.1723 86.7531 90.6162 86.6981 91.0755C86.6432 91.5347 86.6792 92.0003 86.804 92.4457Z" fill="#FAFAFA"/>
</g>
<defs>
<clipPath id="clip0_190_9602">
<rect width="255" height="263" fill="white" transform="matrix(-1 0 0 1 255 0)"/>
</clipPath>
</defs>
</svg>
