<svg width="270" height="278" viewBox="0 0 270 278" fill="none" xmlns="http://www.w3.org/2000/svg">
<path d="M53.5896 224.802L46.3374 219.687C45.8024 219.092 45.3917 218.39 45.1307 217.625C44.8697 216.86 44.7639 216.048 44.82 215.239L48.4704 164.02L121.025 218.508C131.296 218.508 53.5896 224.802 53.5896 224.802Z" fill="#6A82FB"/>
<path d="M127.742 248.198C104.781 248.198 86.1678 246.01 86.1678 243.311C86.1678 240.612 104.781 238.424 127.742 238.424C150.703 238.424 169.317 240.612 169.317 243.311C169.317 246.01 150.703 248.198 127.742 248.198Z" fill="#6A82FB"/>
<path d="M246.661 217.813H23.3389" stroke="#263238" stroke-linecap="round" stroke-linejoin="round"/>
<path d="M42.5736 75.8276C51.1378 67.3294 62.5774 62.5956 74.4714 62.6281C86.3688 62.5945 97.8121 67.3282 106.38 75.8276L107.044 76.4836V133.579H41.9202V76.4836L42.5736 75.8276ZM46.2294 94.7316H72.8514V67.115C62.9539 67.4823 53.5107 71.4839 46.2294 78.3963V94.7316ZM102.713 128.542V98.0898H76.0914V128.564L102.713 128.542ZM72.8514 128.542V98.0898H46.2294V128.564L72.8514 128.542ZM76.0914 67.0928V94.7316H102.713V78.3963C95.4321 71.4839 85.9889 67.4823 76.0914 67.115V67.0928Z" fill="#6A82FB"/>
<path opacity="0.4" d="M42.5736 75.8276C51.1378 67.3294 62.5774 62.5956 74.4714 62.6281C86.3688 62.5945 97.8121 67.3282 106.38 75.8276L107.044 76.4836V133.579H41.9202V76.4836L42.5736 75.8276ZM46.2294 94.7316H72.8514V67.115C62.9539 67.4823 53.5107 71.4839 46.2294 78.3963V94.7316ZM102.713 128.542V98.0898H76.0914V128.564L102.713 128.542ZM72.8514 128.542V98.0898H46.2294V128.564L72.8514 128.542ZM76.0914 67.0928V94.7316H102.713V78.3963C95.4321 71.4839 85.9889 67.4823 76.0914 67.115V67.0928Z" fill="white"/>
<path d="M42.5736 75.8276C51.1378 67.3294 62.5774 62.5956 74.4714 62.6281V62.6281C86.3688 62.5945 97.8121 67.3282 106.38 75.8276L107.044 76.4836V133.579H41.9202V76.4836L42.5736 75.8276ZM46.2294 94.7316H72.8514V67.115C62.9539 67.4823 53.5107 71.4839 46.2294 78.3963V94.7316ZM102.713 128.542V98.0898H76.0914V128.564L102.713 128.542ZM72.8514 128.542V98.0898H46.2294V128.564L72.8514 128.542ZM76.0914 67.0928V94.7316H102.713V78.3963C95.4321 71.4839 85.9889 67.4823 76.0914 67.115V67.0928Z" stroke="#263238" stroke-width="0.75" stroke-linecap="round" stroke-linejoin="round"/>
<path d="M39.7494 135.803H109.193V75.5717L108.562 74.9211C99.5133 65.6257 87.2533 60.4053 74.4714 60.4053C61.6895 60.4053 49.4296 65.6257 40.3812 74.9211L39.7494 75.5717V135.803ZM104.873 131.355H44.0694V77.4231C52.2495 69.3517 63.1415 64.8456 74.4714 64.8456C85.8013 64.8456 96.6933 69.3517 104.873 77.4231V131.355Z" fill="#6A82FB"/>
<path opacity="0.7" d="M39.7494 135.803H109.193V75.5717L108.562 74.9211C99.5133 65.6257 87.2533 60.4053 74.4714 60.4053C61.6895 60.4053 49.4296 65.6257 40.3812 74.9211L39.7494 75.5717V135.803ZM104.873 131.355H44.0694V77.4231C52.2495 69.3517 63.1415 64.8456 74.4714 64.8456C85.8013 64.8456 96.6933 69.3517 104.873 77.4231V131.355Z" fill="white"/>
<path d="M39.7494 135.803H109.193V75.5717L108.562 74.9211C99.5133 65.6257 87.2533 60.4053 74.4714 60.4053C61.6895 60.4053 49.4296 65.6257 40.3812 74.9211L39.7494 75.5717V135.803ZM104.873 131.355H44.0694V77.4231C52.2495 69.3517 63.1415 64.8456 74.4714 64.8456C85.8013 64.8456 96.6933 69.3517 104.873 77.4231V131.355Z" stroke="#263238" stroke-width="0.75" stroke-linecap="round" stroke-linejoin="round"/>
<path d="M163.62 75.8275C172.185 67.3309 183.624 62.5974 195.518 62.6281C207.412 62.5956 218.851 67.3294 227.416 75.8275L228.08 76.4836V133.579H162.956V76.4836L163.62 75.8275ZM167.276 94.7315H193.898V67.115C184.004 67.4849 174.565 71.4863 167.287 78.3963L167.276 94.7315ZM223.771 128.564V98.0898H197.149V128.564H223.771ZM193.909 128.564V98.0898H167.287V128.564H193.909ZM197.149 67.115V94.7538H223.771V78.3963C216.489 71.4839 207.046 67.4823 197.149 67.115Z" fill="#6A82FB"/>
<path opacity="0.4" d="M163.62 75.8275C172.185 67.3309 183.624 62.5974 195.518 62.6281C207.412 62.5956 218.851 67.3294 227.416 75.8275L228.08 76.4836V133.579H162.956V76.4836L163.62 75.8275ZM167.276 94.7315H193.898V67.115C184.004 67.4849 174.565 71.4863 167.287 78.3963L167.276 94.7315ZM223.771 128.564V98.0898H197.149V128.564H223.771ZM193.909 128.564V98.0898H167.287V128.564H193.909ZM197.149 67.115V94.7538H223.771V78.3963C216.489 71.4839 207.046 67.4823 197.149 67.115Z" fill="white"/>
<path d="M163.62 75.8275C172.185 67.3309 183.624 62.5974 195.518 62.6281V62.6281C207.412 62.5956 218.851 67.3294 227.416 75.8275L228.08 76.4836V133.579H162.956V76.4836L163.62 75.8275ZM167.276 94.7315H193.898V67.115C184.004 67.4849 174.565 71.4863 167.287 78.3963L167.276 94.7315ZM223.771 128.564V98.0898H197.149V128.564H223.771ZM193.909 128.564V98.0898H167.287V128.564H193.909ZM197.149 67.115V94.7538H223.771V78.3963C216.489 71.4839 207.046 67.4823 197.149 67.115V67.115Z" stroke="#263238" stroke-width="0.75" stroke-linecap="round" stroke-linejoin="round"/>
<path d="M160.807 135.803H230.251V75.5717L229.619 74.9211C220.57 65.6257 208.311 60.4053 195.529 60.4053C182.747 60.4053 170.487 65.6257 161.438 74.9211L160.807 75.5717V135.803ZM225.931 131.355H165.127V77.4231C173.307 69.3517 184.199 64.8456 195.529 64.8456C206.859 64.8456 217.751 69.3517 225.931 77.4231V131.355Z" fill="#6A82FB"/>
<path opacity="0.7" d="M160.807 135.803H230.251V75.5717L229.619 74.9211C220.57 65.6257 208.311 60.4053 195.529 60.4053C182.747 60.4053 170.487 65.6257 161.438 74.9211L160.807 75.5717V135.803ZM225.931 131.355H165.127V77.4231C173.307 69.3517 184.199 64.8456 195.529 64.8456C206.859 64.8456 217.751 69.3517 225.931 77.4231V131.355Z" fill="white"/>
<path d="M160.807 135.803H230.251V75.5717L229.619 74.9211C220.57 65.6257 208.311 60.4053 195.529 60.4053C182.747 60.4053 170.487 65.6257 161.438 74.9211L160.807 75.5717V135.803ZM225.931 131.355H165.127V77.4231C173.307 69.3517 184.199 64.8456 195.529 64.8456C206.859 64.8456 217.751 69.3517 225.931 77.4231V131.355Z" stroke="#263238" stroke-width="0.75" stroke-linecap="round" stroke-linejoin="round"/>
<path d="M147.982 224.802H53.6328L48.4704 164.009H142.819L147.982 224.802Z" fill="#6A82FB" stroke="#263238" stroke-linecap="round" stroke-linejoin="round"/>
<path d="M102.821 196.602C100.375 198.603 96.795 198.603 94.0032 196.602L48.4704 164.02L53.6328 224.813H147.96L142.819 164.02L102.821 196.602Z" fill="#6A82FB"/>
<path opacity="0.4" d="M102.821 196.602C100.375 198.603 96.795 198.603 94.0032 196.602L48.4704 164.02L53.6328 224.813H147.96L142.819 164.02L102.821 196.602Z" fill="white"/>
<path d="M102.821 196.602C100.375 198.603 96.795 198.603 94.0032 196.602L48.4704 164.02L53.6328 224.813H147.96L142.819 164.02L102.821 196.602Z" stroke="#263238" stroke-linecap="round" stroke-linejoin="round"/>
<path d="M147.96 224.802H53.6328L93.6306 192.204C96.0822 190.208 99.657 190.208 102.449 192.204L147.96 224.802Z" fill="#6A82FB"/>
<path opacity="0.3" d="M147.96 224.802H53.6328L93.6306 192.204C96.0822 190.208 99.657 190.208 102.449 192.204L147.96 224.802Z" fill="white"/>
<path d="M147.96 224.802H53.6328L93.6306 192.204C96.0822 190.208 99.657 190.208 102.449 192.204L147.96 224.802Z" stroke="#263238" stroke-linecap="round" stroke-linejoin="round"/>
<path d="M142.819 164.02H48.4704L99.7164 131.422C102.854 129.426 106.434 129.426 108.535 131.422L142.819 164.02Z" fill="white" stroke="#263238" stroke-linecap="round" stroke-linejoin="round"/>
<path d="M195.674 212.575H185.987L191.079 169.88C191.203 168.989 191.629 168.171 192.282 167.573C192.936 166.974 193.774 166.633 194.648 166.611H236.909L230.71 212.575H195.674Z" fill="#6A82FB"/>
<path opacity="0.7" d="M195.674 212.575H185.987L191.079 169.88C191.203 168.989 191.629 168.171 192.282 167.573C192.936 166.974 193.774 166.633 194.648 166.611H236.909L230.71 212.575H195.674Z" fill="white"/>
<path d="M195.674 212.575H185.987L191.079 169.88C191.203 168.989 191.629 168.171 192.282 167.573C192.936 166.974 193.774 166.633 194.648 166.611H236.909L230.71 212.575H195.674Z" stroke="#263238" stroke-width="0.75" stroke-linecap="round" stroke-linejoin="round"/>
<path d="M226.39 212.575H236.072L241.164 169.88C241.227 169.47 241.201 169.051 241.089 168.652C240.977 168.254 240.781 167.885 240.515 167.573C240.249 167.261 239.92 167.013 239.55 166.847C239.181 166.681 238.781 166.6 238.378 166.611H235.051C234.177 166.632 233.338 166.973 232.684 167.571C232.03 168.17 231.604 168.988 231.482 169.88L226.39 212.575Z" fill="#6A82FB"/>
<path opacity="0.3" d="M226.39 212.575H236.072L241.164 169.88C241.227 169.47 241.201 169.051 241.089 168.652C240.977 168.254 240.781 167.885 240.515 167.573C240.249 167.261 239.92 167.013 239.55 166.847C239.181 166.681 238.781 166.6 238.378 166.611H235.051C234.177 166.632 233.338 166.973 232.684 167.571C232.03 168.17 231.604 168.988 231.482 169.88L226.39 212.575Z" fill="white" stroke="#263238" stroke-width="0.75" stroke-linecap="round" stroke-linejoin="round"/>
<path d="M226.39 212.575H236.072L241.164 169.88C241.227 169.47 241.201 169.051 241.089 168.652C240.977 168.254 240.781 167.885 240.515 167.573C240.249 167.261 239.92 167.013 239.55 166.847C239.181 166.681 238.781 166.6 238.378 166.611H235.051C234.177 166.632 233.338 166.973 232.684 167.571C232.03 168.17 231.604 168.988 231.482 169.88L226.39 212.575Z" stroke="#263238" stroke-width="0.75" stroke-linecap="round" stroke-linejoin="round"/>
<path d="M220.676 215.172L222.431 194.522C222.466 194.07 222.651 193.644 222.955 193.316C223.259 192.988 223.663 192.778 224.1 192.72L224.824 192.626C225.405 192.549 225.943 192.271 226.348 191.836C226.754 191.401 227.003 190.836 227.054 190.235L227.34 186.471C227.371 186.106 227.327 185.739 227.213 185.393C227.099 185.046 226.916 184.728 226.675 184.458C226.435 184.189 226.143 183.973 225.818 183.826C225.493 183.678 225.141 183.602 224.786 183.602H240.986C241.341 183.601 241.693 183.677 242.019 183.824C242.345 183.971 242.637 184.187 242.877 184.457C243.118 184.727 243.301 185.045 243.415 185.392C243.529 185.739 243.571 186.106 243.54 186.471L243.221 190.235C243.172 190.836 242.923 191.402 242.517 191.837C242.111 192.272 241.573 192.55 240.991 192.626L240.273 192.72C239.839 192.776 239.437 192.984 239.134 193.309C238.831 193.634 238.646 194.056 238.61 194.505L236.866 215.172C236.802 215.897 236.478 216.571 235.957 217.063C235.435 217.555 234.754 217.828 234.047 217.829H217.847C218.556 217.832 219.241 217.561 219.765 217.068C220.289 216.576 220.614 215.899 220.676 215.172Z" fill="#6A82FB"/>
<g opacity="0.3">
<path opacity="0.3" d="M220.676 215.172L222.431 194.522C222.466 194.07 222.651 193.644 222.955 193.316C223.259 192.988 223.663 192.778 224.1 192.72L224.824 192.626C225.405 192.549 225.943 192.271 226.348 191.836C226.754 191.401 227.003 190.836 227.054 190.235L227.34 186.471C227.371 186.106 227.327 185.739 227.213 185.393C227.099 185.046 226.916 184.728 226.675 184.458C226.435 184.189 226.143 183.973 225.818 183.826C225.493 183.678 225.141 183.602 224.786 183.602H240.986C241.341 183.601 241.693 183.677 242.019 183.824C242.345 183.971 242.637 184.187 242.877 184.457C243.118 184.727 243.301 185.045 243.415 185.392C243.529 185.739 243.571 186.106 243.54 186.471L243.221 190.235C243.172 190.836 242.923 191.402 242.517 191.837C242.111 192.272 241.573 192.55 240.991 192.626L240.273 192.72C239.839 192.776 239.437 192.984 239.134 193.309C238.831 193.634 238.646 194.056 238.61 194.505L236.866 215.172C236.802 215.897 236.478 216.571 235.957 217.063C235.435 217.555 234.754 217.828 234.047 217.829H217.847C218.556 217.832 219.241 217.561 219.765 217.068C220.289 216.576 220.614 215.899 220.676 215.172Z" fill="white" stroke="#263238" stroke-width="0.75" stroke-linecap="round" stroke-linejoin="round"/>
</g>
<path d="M220.676 215.172L222.431 194.522C222.466 194.07 222.651 193.644 222.955 193.316C223.259 192.988 223.663 192.778 224.1 192.72L224.824 192.626C225.405 192.549 225.943 192.271 226.348 191.836C226.754 191.401 227.003 190.836 227.054 190.235L227.34 186.471C227.371 186.106 227.327 185.739 227.213 185.393C227.099 185.046 226.916 184.728 226.675 184.458C226.435 184.189 226.143 183.973 225.818 183.826C225.493 183.678 225.141 183.602 224.786 183.602H240.986C241.341 183.601 241.693 183.677 242.019 183.824C242.345 183.971 242.637 184.187 242.877 184.457C243.118 184.727 243.301 185.045 243.415 185.392C243.529 185.739 243.571 186.106 243.54 186.471L243.221 190.235C243.172 190.836 242.923 191.402 242.517 191.837C242.111 192.272 241.573 192.55 240.991 192.626L240.273 192.72C239.839 192.776 239.437 192.984 239.134 193.309C238.831 193.634 238.646 194.056 238.61 194.505L236.866 215.172C236.802 215.897 236.478 216.571 235.957 217.063C235.435 217.555 234.754 217.828 234.047 217.829H217.847C218.556 217.832 219.241 217.561 219.765 217.068C220.289 216.576 220.614 215.899 220.676 215.172V215.172Z" stroke="#263238" stroke-width="0.75" stroke-linecap="round" stroke-linejoin="round"/>
<path d="M176.137 189.334C176.005 187.77 175.307 186.313 174.183 185.251C173.058 184.19 171.588 183.602 170.062 183.602H184.14C185.666 183.602 187.136 184.19 188.261 185.251C189.385 186.313 190.083 187.77 190.215 189.334L191.619 205.72H177.53L176.137 189.334Z" fill="#6A82FB"/>
<path opacity="0.3" d="M176.137 189.334C176.005 187.77 175.307 186.313 174.183 185.251C173.058 184.19 171.588 183.602 170.062 183.602H184.14C185.666 183.602 187.136 184.19 188.261 185.251C189.385 186.313 190.083 187.77 190.215 189.334L191.619 205.72H177.53L176.137 189.334Z" fill="white"/>
<path d="M176.137 189.334C176.005 187.77 175.307 186.313 174.183 185.251C173.058 184.19 171.588 183.602 170.062 183.602H184.14C185.666 183.602 187.136 184.19 188.261 185.251C189.385 186.313 190.083 187.77 190.215 189.334L191.619 205.72H177.53L176.137 189.334Z" stroke="#263238" stroke-width="0.75" stroke-linecap="round" stroke-linejoin="round"/>
<path d="M180.927 195.884H213.899C215.516 195.884 216.826 197.233 216.826 198.898V202.69C216.826 204.354 215.516 205.703 213.899 205.703H180.927C179.311 205.703 178 204.354 178 202.69V198.898C178 197.233 179.311 195.884 180.927 195.884Z" fill="#6A82FB"/>
<g opacity="0.5">
<path opacity="0.5" d="M180.927 195.884H213.899C215.516 195.884 216.826 197.233 216.826 198.898V202.69C216.826 204.354 215.516 205.703 213.899 205.703H180.927C179.311 205.703 178 204.354 178 202.69V198.898C178 197.233 179.311 195.884 180.927 195.884Z" fill="white"/>
</g>
<path d="M180.927 195.884H213.899C215.516 195.884 216.826 197.233 216.826 198.898V202.69C216.826 204.354 215.516 205.703 213.899 205.703H180.927C179.311 205.703 178 204.354 178 202.69V198.898C178 197.233 179.311 195.884 180.927 195.884Z" stroke="#263238" stroke-width="0.75" stroke-linecap="round" stroke-linejoin="round"/>
<path d="M163.804 183.602H170.062C171.588 183.602 173.058 184.19 174.183 185.251C175.307 186.313 176.005 187.77 176.137 189.334L177.53 205.72H211.086L212.479 189.351C212.612 187.786 213.309 186.329 214.434 185.268C215.558 184.207 217.029 183.618 218.554 183.619H224.813C225.164 183.623 225.512 183.701 225.832 183.85C226.153 183.998 226.441 184.212 226.678 184.48C226.915 184.747 227.096 185.062 227.21 185.405C227.324 185.747 227.368 186.11 227.34 186.471L227.021 190.235C226.971 190.836 226.722 191.401 226.316 191.836C225.91 192.271 225.372 192.549 224.791 192.626L224.068 192.72C223.634 192.778 223.233 192.987 222.931 193.311C222.628 193.636 222.443 194.057 222.404 194.505L220.682 215.172C220.618 215.898 220.293 216.573 219.771 217.065C219.248 217.557 218.566 217.83 217.858 217.829H170.759C170.051 217.829 169.37 217.557 168.848 217.065C168.326 216.573 168.002 215.897 167.94 215.172L166.185 194.522C166.147 194.074 165.961 193.653 165.659 193.328C165.356 193.003 164.955 192.795 164.522 192.737L163.798 192.643C163.218 192.565 162.68 192.286 162.275 191.851C161.869 191.417 161.62 190.852 161.568 190.252L161.249 186.488C161.216 186.122 161.258 185.753 161.371 185.404C161.485 185.056 161.667 184.736 161.908 184.464C162.148 184.192 162.441 183.976 162.767 183.827C163.094 183.679 163.447 183.602 163.804 183.602Z" fill="#6A82FB"/>
<path opacity="0.7" d="M163.804 183.602H170.062C171.588 183.602 173.058 184.19 174.183 185.251C175.307 186.313 176.005 187.77 176.137 189.334L177.53 205.72H211.086L212.479 189.351C212.612 187.786 213.309 186.329 214.434 185.268C215.558 184.207 217.029 183.618 218.554 183.619H224.813C225.164 183.623 225.512 183.701 225.832 183.85C226.153 183.998 226.441 184.212 226.678 184.48C226.915 184.747 227.096 185.062 227.21 185.405C227.324 185.747 227.368 186.11 227.34 186.471L227.021 190.235C226.971 190.836 226.722 191.401 226.316 191.836C225.91 192.271 225.372 192.549 224.791 192.626L224.068 192.72C223.634 192.778 223.233 192.987 222.931 193.311C222.628 193.636 222.443 194.057 222.404 194.505L220.682 215.172C220.618 215.898 220.293 216.573 219.771 217.065C219.248 217.557 218.566 217.83 217.858 217.829H170.759C170.051 217.829 169.37 217.557 168.848 217.065C168.326 216.573 168.002 215.897 167.94 215.172L166.185 194.522C166.147 194.074 165.961 193.653 165.659 193.328C165.356 193.003 164.955 192.795 164.522 192.737L163.798 192.643C163.218 192.565 162.68 192.286 162.275 191.851C161.869 191.417 161.62 190.852 161.568 190.252L161.249 186.488C161.216 186.122 161.258 185.753 161.371 185.404C161.485 185.056 161.667 184.736 161.908 184.464C162.148 184.192 162.441 183.976 162.767 183.827C163.094 183.679 163.447 183.602 163.804 183.602Z" fill="white" stroke="#263238" stroke-width="0.75" stroke-linecap="round" stroke-linejoin="round"/>
<path d="M163.804 183.602H170.062C171.588 183.602 173.058 184.19 174.183 185.251C175.307 186.313 176.005 187.77 176.137 189.334L177.53 205.72H211.086L212.479 189.351C212.612 187.786 213.309 186.329 214.434 185.268C215.558 184.207 217.029 183.618 218.554 183.619H224.813C225.164 183.623 225.512 183.701 225.832 183.85C226.153 183.998 226.441 184.212 226.678 184.48C226.915 184.747 227.096 185.062 227.21 185.405C227.324 185.747 227.368 186.11 227.34 186.471L227.021 190.235C226.971 190.836 226.722 191.401 226.316 191.836C225.91 192.271 225.372 192.549 224.791 192.626L224.068 192.72C223.634 192.778 223.233 192.987 222.931 193.311C222.628 193.636 222.443 194.057 222.404 194.505L220.682 215.172C220.618 215.898 220.293 216.573 219.771 217.065C219.248 217.557 218.566 217.83 217.858 217.829H170.759C170.051 217.829 169.37 217.557 168.848 217.065C168.326 216.573 168.002 215.897 167.94 215.172L166.185 194.522C166.147 194.074 165.961 193.653 165.659 193.328C165.356 193.003 164.955 192.795 164.522 192.737L163.798 192.643C163.218 192.565 162.68 192.286 162.275 191.851C161.869 191.417 161.62 190.852 161.568 190.252L161.249 186.488C161.216 186.122 161.258 185.753 161.371 185.404C161.485 185.056 161.667 184.736 161.908 184.464C162.148 184.192 162.441 183.976 162.767 183.827C163.094 183.679 163.447 183.602 163.804 183.602V183.602Z" stroke="#263238" stroke-width="0.75" stroke-linecap="round" stroke-linejoin="round"/>
<path d="M148.133 213.699L143.462 220.66C143.462 220.66 142.209 223.501 141.458 225.219C140.708 226.937 141.377 230.223 139.952 230.223C138.019 230.223 137.365 226.014 137.284 222.745C137.203 219.475 135.88 213.893 138.667 214.238H141.458L144.877 209.234L148.133 213.699Z" fill="white" stroke="#263238" stroke-linecap="round" stroke-linejoin="round"/>
<path d="M140.108 216.245L140.897 218.686C140.897 218.686 142.798 218.085 143.532 218.686C144.266 219.286 143.462 220.66 143.462 220.66C143.462 220.66 142.209 223.501 141.458 225.219C140.708 226.937 141.377 230.223 139.952 230.223C138.019 230.223 137.365 226.014 137.284 222.745C137.203 219.475 135.88 213.893 138.667 214.238H141.458C141.55 215.027 140.972 214.972 140.47 215.239C140.301 215.332 140.171 215.486 140.105 215.672C140.038 215.857 140.039 216.061 140.108 216.245Z" fill="#6A82FB" stroke="#263238" stroke-linecap="round" stroke-linejoin="round"/>
<path d="M142.533 220.509C142.533 220.509 140.06 219.019 139.919 220.787C139.779 222.555 142.533 220.509 142.533 220.509Z" stroke="#263238" stroke-linecap="round" stroke-linejoin="round"/>
<path d="M142.517 222.8C142.517 222.8 142.749 221.688 140.897 221.688" stroke="#263238" stroke-linecap="round" stroke-linejoin="round"/>
<path d="M141.89 223.762C141.89 223.762 142.117 222.65 140.27 222.65" stroke="#263238" stroke-linecap="round" stroke-linejoin="round"/>
<path d="M142.695 220.576C142.695 220.576 145.309 221.783 143.996 222.928C142.684 224.073 142.695 220.576 142.695 220.576Z" stroke="#263238" stroke-linecap="round" stroke-linejoin="round"/>
<path d="M137.84 217.051C137.84 219.781 138.202 221.427 138.542 225.819C138.807 229.294 139.914 229.461 140.897 228.855C140.773 229.639 140.546 230.206 139.952 230.2C138.019 230.2 137.365 225.992 137.284 222.722C137.203 219.453 135.88 213.871 138.667 214.215C138.667 214.215 137.857 214.327 137.84 217.051Z" fill="#263238" stroke="#263238" stroke-linecap="round" stroke-linejoin="round"/>
<path d="M152.609 156.313C150.504 157.675 147.984 158.184 145.535 157.742C141.431 156.992 139.698 156.569 139.698 156.569C139.698 156.569 135.146 169.48 139.428 175.996C143.71 182.512 151.308 196.963 151.308 196.963C151.308 196.963 148.608 198.453 149.688 198.864C149.688 198.864 147.182 201.033 144.828 207.343C144.828 207.343 143.84 209.784 142.981 209.99C142.981 209.99 144.428 215.855 147.841 215.755C147.841 215.755 151.929 210.195 155.552 206.665C156.924 205.33 158.944 203.129 160.132 201.828C160.772 201.121 161.123 200.187 161.109 199.22C161.082 197.585 154.435 165.61 153.182 165.816C153.182 165.816 154.3 163.781 153.117 162.691C153.312 160.551 153.14 158.392 152.609 156.313Z" fill="#6A82FB"/>
<path opacity="0.3" d="M148.003 201.155C148.003 201.155 149.17 199.27 152.771 198.275C156.373 197.28 151.567 188.823 148.381 183.708C145.319 178.798 141.307 174.812 142.949 169.48C144.59 164.147 136.129 174.484 136.129 174.484L141.264 184.981L145.692 191.948L148.203 197.83L148.003 201.155Z" fill="black"/>
<path d="M152.609 156.313C150.504 157.675 147.984 158.184 145.535 157.742C141.431 156.992 139.698 156.569 139.698 156.569C139.698 156.569 135.146 169.48 139.428 175.996C143.71 182.512 151.308 196.963 151.308 196.963C151.308 196.963 148.608 198.453 149.688 198.864C149.688 198.864 147.182 201.033 144.828 207.343C144.828 207.343 143.84 209.784 142.981 209.99C142.981 209.99 144.428 215.855 147.841 215.755C147.841 215.755 151.929 210.195 155.552 206.665C156.924 205.33 158.944 203.129 160.132 201.828C160.772 201.121 161.123 200.187 161.109 199.22C161.082 197.585 154.435 165.61 153.182 165.816C153.182 165.816 154.3 163.781 153.117 162.691C153.312 160.551 153.14 158.392 152.609 156.313V156.313Z" stroke="#263238" stroke-linecap="round" stroke-linejoin="round"/>
<path d="M148.835 167.461C148.241 167.712 147.604 168.017 146.988 168.301C145.665 168.968 144.434 169.752 143.91 170.553C142.528 172.671 145.886 170.553 148.192 170.553" stroke="#263238" stroke-linecap="round" stroke-linejoin="round"/>
<path d="M151.621 166.427C151.621 166.427 151.011 166.622 150.125 166.95" stroke="#263238" stroke-linecap="round" stroke-linejoin="round"/>
<path d="M150.503 199.47C150.503 199.47 151.751 200.288 155.644 199.47" stroke="#263238" stroke-linecap="round" stroke-linejoin="round"/>
<path d="M153.074 196.557C153.074 196.557 158.015 194.383 156.562 192.209" stroke="#263238" stroke-linecap="round" stroke-linejoin="round"/>
<path d="M113.551 183.074C114.491 183.78 117.504 185.609 117.504 185.609L115.571 190.402C115.571 190.402 111.694 186.932 110.387 185.787L107.822 183.563L111.224 181.033C111.224 181.033 112.936 182.612 113.551 183.074Z" fill="white" stroke="#263238" stroke-linecap="round" stroke-linejoin="round"/>
<path d="M145.535 157.743C145.535 157.743 144.823 164.192 141.48 173.527C140.706 175.674 140.299 177.943 140.276 180.233C140.211 188.061 137.884 204.697 132.354 204.413C125.334 204.052 117.067 190.674 114.604 191.036C114.604 191.036 114.253 185.609 117.418 185.064C117.418 185.064 124.978 189.223 127.786 192.848C127.786 192.848 128.504 178.915 127.975 175.118C127.445 171.32 124.4 163.998 132.354 152.5C132.354 152.494 133.234 155.93 145.535 157.743Z" fill="#6A82FB"/>
<path d="M127.44 196.351C127.229 198.286 127.04 200.76 127.04 200.76" stroke="#263238" stroke-linecap="round" stroke-linejoin="round"/>
<path d="M128.774 200.16C128.287 198.537 128.015 196.854 127.964 195.156" stroke="#263238" stroke-linecap="round" stroke-linejoin="round"/>
<path d="M129.541 202.117C129.384 201.816 129.245 201.506 129.125 201.188" stroke="#263238" stroke-linecap="round" stroke-linejoin="round"/>
<path d="M134.757 168.518C134.419 168.553 134.086 168.626 133.763 168.735" stroke="#263238" stroke-linecap="round" stroke-linejoin="round"/>
<path d="M133.763 165.477C133.763 165.477 141.669 169.274 141.275 170.364C140.945 171.259 138.542 168.696 135.626 168.507" stroke="#263238" stroke-linecap="round" stroke-linejoin="round"/>
<path d="M140.794 175.874C140.657 176.452 140.549 177.036 140.47 177.625C140.351 178.489 140.286 179.36 140.276 180.233C140.211 188.061 136.895 205.164 132.354 204.413C125.404 203.262 117.067 190.674 114.604 191.036C114.604 191.036 114.253 185.609 117.418 185.064C117.418 185.064 124.978 189.223 127.786 192.848C127.786 192.848 128.504 178.915 127.975 175.118C127.445 171.32 124.4 163.998 132.354 152.5" stroke="#263238" stroke-linecap="round" stroke-linejoin="round"/>
<path d="M143.743 166.16C143.154 168.156 142.279 171.036 141.291 173.977" stroke="#263238" stroke-linecap="round" stroke-linejoin="round"/>
<path d="M144.515 163.464C144.515 163.464 144.374 163.964 144.131 164.815" stroke="#263238" stroke-linecap="round" stroke-linejoin="round"/>
<path d="M98.415 183.546C98.3287 183.647 98.269 183.769 98.2413 183.9C98.2136 184.032 98.219 184.168 98.2568 184.297C98.2947 184.425 98.3638 184.542 98.4576 184.635C98.5514 184.729 98.6669 184.796 98.793 184.831C99.4548 184.982 100.139 184.999 100.807 184.881C103.707 184.519 110.387 185.787 110.387 185.787C110.474 185.441 110.44 185.075 110.291 184.753C110.142 184.43 109.887 184.173 109.571 184.024C108.421 183.391 111.65 182.54 111.65 182.54C111.65 182.54 112.617 183.502 113.551 183.096C113.358 181.013 112.418 179.078 110.916 177.669C110.101 176.947 109.296 176.557 106.666 178.298C104.171 179.966 101.493 179.871 98.415 183.546Z" fill="#6A82FB" stroke="#263238" stroke-linecap="round" stroke-linejoin="round"/>
<path d="M108.405 185.448C108.405 185.448 110.516 186.922 109.334 187.733C108.151 188.545 108.005 185.387 108.005 185.387C108.005 185.387 107.708 188.228 106.342 187.867C104.976 187.505 107.563 185.32 107.563 185.32L108.405 185.448Z" stroke="#263238" stroke-linecap="round" stroke-linejoin="round"/>
<path d="M106.774 185.214C106.865 184.933 106.885 184.633 106.833 184.341C106.781 184.05 106.659 183.776 106.477 183.546" stroke="#263238" stroke-linecap="round" stroke-linejoin="round"/>
<path d="M105.775 185.087C105.811 184.901 105.806 184.709 105.761 184.525C105.715 184.341 105.629 184.17 105.511 184.025" stroke="#263238" stroke-linecap="round" stroke-linejoin="round"/>
<path d="M98.5931 184.742C98.4982 184.682 98.4172 184.601 98.3556 184.505C98.294 184.409 98.2533 184.3 98.2364 184.187C98.2194 184.073 98.2266 183.957 98.2574 183.846C98.2883 183.736 98.342 183.634 98.4149 183.547C101.493 179.871 104.171 179.966 106.666 178.276C109.274 176.513 110.101 176.925 110.916 177.647L111.078 177.803C109.633 178.041 108.257 178.601 107.044 179.443C104.026 181.406 103.367 180.394 99.9431 183.424C99.4682 183.836 99.0174 184.276 98.5931 184.742Z" fill="#263238" stroke="#263238" stroke-linecap="round" stroke-linejoin="round"/>
<path d="M131.058 152.494C136.458 149.497 133.758 127.768 133.758 127.768L131.56 123.532C134.752 125.244 134.654 116.749 134.654 116.749L141.075 122.32C151.988 124.166 152.858 120.652 152.858 120.652L154.656 116.76C154.656 116.76 157.988 126.212 159.143 123.276L158.063 127.78C158.063 127.78 159.894 137.788 156.443 140.178C156.443 140.178 151.702 155.63 153.365 156.947C153.365 156.947 150.703 160.383 141.07 158.271C131.436 156.158 131.058 152.494 131.058 152.494Z" fill="#263238" stroke="#263238" stroke-linecap="round" stroke-linejoin="round"/>
<path d="M137.095 136.515C136.947 136.245 136.815 135.967 136.701 135.681" stroke="#7F7F7F" stroke-linecap="round" stroke-linejoin="round"/>
<path d="M138.91 138.761C138.382 138.338 137.921 137.833 137.543 137.265" stroke="#7F7F7F" stroke-linecap="round" stroke-linejoin="round"/>
<path d="M151.076 139C148.808 138.483 145.778 138.16 143.311 139.234" stroke="#7F7F7F" stroke-linecap="round" stroke-linejoin="round"/>
<path d="M154.37 140.034C154.37 140.034 153.76 139.773 152.782 139.478" stroke="#7F7F7F" stroke-linecap="round" stroke-linejoin="round"/>
<path d="M166.412 83.3999C163.869 89.1295 161.614 94.99 159.656 100.958C158.209 105.334 154.37 118.789 154.37 118.789C155.104 123.41 158.436 124.861 158.436 124.861C158.436 124.861 163.377 108.092 164.273 104.528C164.57 103.349 165.829 100.769 166.725 97.8559C168.556 91.89 170.429 83.9559 170.429 83.9559C170.429 83.9559 172.049 82.9829 171.65 81.1759C171.65 81.1759 172.287 80.1195 171.072 78.9964C169.857 77.8732 168.307 76.0607 167.292 76.6167C166.009 77.2212 165 78.3099 164.473 79.658C163.798 81.1759 166.412 83.3999 166.412 83.3999Z" fill="white" stroke="#263238" stroke-linecap="round" stroke-linejoin="round"/>
<path d="M163.955 102.665C164.034 103.056 164.023 103.462 163.923 103.848C163.822 104.234 163.635 104.591 163.377 104.889" stroke="#263238" stroke-linecap="round" stroke-linejoin="round"/>
<path d="M112.109 91.1003C118.859 98.5952 120.528 100.552 123.449 104.444C124.427 105.745 125.734 106.874 127.661 109.131C131.058 113.107 134.811 117.872 134.811 117.872C135.799 122.442 133.234 125.072 133.234 125.072C133.234 125.072 121.894 111.122 119.777 108.164C118.886 106.924 117.666 105.94 115.355 102.782C112.142 98.3839 110.781 95.754 108.799 93.8247C108.13 93.1742 107.087 92.646 106.153 91.1948C106.153 91.1948 105.176 90.4609 105.894 88.9708C106.612 87.4807 108.934 85.19 110.084 85.3123C110.932 85.4068 110.705 85.4902 112.244 87.047C113.443 88.1924 112.109 91.1003 112.109 91.1003Z" fill="white" stroke="#263238" stroke-linecap="round" stroke-linejoin="round"/>
<path d="M119.405 106.318C119.471 106.717 119.628 107.093 119.862 107.417C120.097 107.74 120.403 108.002 120.755 108.181" stroke="#263238" stroke-linecap="round" stroke-linejoin="round"/>
<path d="M153.652 115.047C153.652 115.047 149.029 123.765 139.153 119.84L136.512 113.029L136.35 108.425L140.4 102.137L143.764 101.581L146.421 102.215L149.661 104.895L151.362 106.285L153.063 110.844L153.652 115.047Z" fill="#263238" stroke="#263238" stroke-linecap="round" stroke-linejoin="round"/>
<path d="M151.362 122.064C151.362 122.064 152.042 126.234 147.938 126.701C143.834 127.168 142.225 122.52 142.225 122.52C142.225 122.52 143.386 123.02 143.192 121.725C142.946 120.48 142.623 119.252 142.225 118.05L148.532 116.137C148.532 116.137 148.694 123.432 151.362 122.064Z" fill="white"/>
<path d="M148.981 106.902C148.981 106.902 150.838 112.462 150.682 114.402C150.39 116.264 149.674 118.029 148.592 119.551C148.131 120.052 147.581 120.458 146.972 120.746C146.305 120.882 145.619 120.882 144.952 120.746C143.212 120.158 141.633 119.151 140.346 117.811C139.136 116.343 137.495 110.694 137.495 110.694L138.947 104.528L142.83 102.304L146.443 102.938L148.981 106.902Z" fill="#263238" stroke="#263238" stroke-linecap="round" stroke-linejoin="round"/>
<path d="M151.362 122.064C151.362 122.064 152.042 126.234 147.938 126.701C143.834 127.168 142.225 122.52 142.225 122.52C142.225 122.52 143.386 123.02 143.192 121.725C142.946 120.48 142.623 119.252 142.225 118.05L148.532 116.137C148.532 116.137 148.694 123.432 151.362 122.064Z" stroke="#263238" stroke-linecap="round" stroke-linejoin="round"/>
<path d="M148.981 106.196C148.981 106.196 150.838 111.756 150.682 113.696C150.391 115.557 149.674 117.32 148.592 118.839C148.176 119.404 147.602 119.823 146.947 120.04C146.292 120.256 145.588 120.261 144.931 120.052C143.189 119.464 141.608 118.458 140.319 117.116C139.109 115.648 137.468 109.999 137.468 109.999L138.947 103.811L142.83 101.62L146.443 102.254L148.981 106.196Z" fill="white" stroke="#263238" stroke-linecap="round" stroke-linejoin="round"/>
<path d="M144.958 110.088C144.896 110.558 144.937 111.037 145.078 111.489C145.22 111.941 145.457 112.355 145.773 112.701L145.087 114.069" stroke="#263238" stroke-linecap="round" stroke-linejoin="round"/>
<path d="M146.691 115.375C146.691 115.375 145.071 116.348 143.861 115.548C143.861 115.548 144.304 117.522 145.379 117.388C146.453 117.255 146.691 115.375 146.691 115.375Z" stroke="#263238" stroke-linecap="round" stroke-linejoin="round"/>
<path d="M146.048 110.183C146.162 110.544 146.421 110.777 146.626 110.739C146.831 110.7 146.907 110.322 146.799 109.966C146.691 109.61 146.426 109.365 146.221 109.437C146.016 109.51 145.94 109.821 146.048 110.183Z" fill="#263238"/>
<path d="M140.94 111.878C141.199 111.642 141.502 111.463 141.831 111.354C142.16 111.245 142.508 111.208 142.852 111.244C142.852 111.244 142.312 110.182 140.908 110.755" stroke="#263238" stroke-linecap="round" stroke-linejoin="round"/>
<path d="M145.26 108.492C145.26 108.492 145.201 107.803 146.448 107.38C146.799 107.257 147.176 107.229 147.541 107.299C147.906 107.369 148.248 107.535 148.532 107.781" stroke="#263238" stroke-linecap="round" stroke-linejoin="round"/>
<path d="M142.943 109.671C142.825 110.104 142.744 109.009 141.437 109.115C141.066 109.137 140.708 109.257 140.396 109.464C140.084 109.67 139.828 109.956 139.655 110.293" stroke="#263238" stroke-linecap="round" stroke-linejoin="round"/>
<path d="M149.958 106.502C149.958 106.502 147.965 107.653 144.736 103.327C144.736 103.327 139.876 109.665 137.716 110.866C137.716 110.866 140.513 113.579 140.783 116.348C141.053 119.117 140.951 121.23 142.463 121.491C142.463 121.491 134.703 123.587 134.233 115.203C133.763 106.819 133.774 106.085 137.851 101.592C140.011 99.218 143.051 99.1179 145.751 99.8574C148.16 100.513 150.287 101.742 151.238 104.305C153.257 109.765 159.192 114.547 153.889 118.545C148.586 122.542 151.06 115.209 151.06 115.209C151.06 115.209 152.113 116.943 152.372 115.092C152.766 112.401 149.688 110.644 149.958 106.502Z" fill="#263238" stroke="#263238" stroke-linecap="round" stroke-linejoin="round"/>
<path d="M146.426 100.397C146.426 100.397 146.588 97.8727 143.818 98.1229C141.048 98.3731 145.703 98.9124 146.426 100.397Z" fill="#263238" stroke="#263238" stroke-linecap="round" stroke-linejoin="round"/>
<path d="M149.477 107.575C149.447 107.188 149.447 106.799 149.477 106.413" stroke="#7F7F7F" stroke-width="0.75" stroke-linecap="round" stroke-linejoin="round"/>
<path d="M151.902 114.997C152.199 112.885 150.347 111.328 149.683 108.748" stroke="#7F7F7F" stroke-width="0.75" stroke-linecap="round" stroke-linejoin="round"/>
<path d="M150.59 115.092C150.59 115.092 151 115.77 151.373 115.826" stroke="#7F7F7F" stroke-width="0.75" stroke-linecap="round" stroke-linejoin="round"/>
<path d="M150.466 116.382C150.317 117.005 150.254 117.647 150.277 118.289" stroke="#7F7F7F" stroke-width="0.75" stroke-linecap="round" stroke-linejoin="round"/>
<path d="M140.94 118.289C140.94 118.289 141.005 119.957 141.356 120.54" stroke="#7F7F7F" stroke-width="0.75" stroke-linecap="round" stroke-linejoin="round"/>
<path d="M136.08 111.144C136.156 113.896 134.779 117.816 139.671 120.54" stroke="#7F7F7F" stroke-width="0.75" stroke-linecap="round" stroke-linejoin="round"/>
<path d="M142.387 101.431C141.065 101.465 139.804 102.016 138.861 102.971C136.744 105.284 135.437 107.552 135.977 110.288" stroke="#7F7F7F" stroke-width="0.75" stroke-linecap="round" stroke-linejoin="round"/>
<path d="M144.688 101.598C144.269 101.502 143.842 101.444 143.413 101.425" stroke="#7F7F7F" stroke-width="0.75" stroke-linecap="round" stroke-linejoin="round"/>
<path d="M96.0858 38.8743L167.827 28.5324C170.054 28.2114 172.112 29.81 172.424 32.1029L178.346 75.6522C178.657 77.9452 177.105 80.0642 174.878 80.3852L103.137 90.7271C100.91 91.0481 98.8516 89.4496 98.5399 87.1566L92.6181 43.6073C92.3063 41.3144 93.8589 39.1954 96.0858 38.8743Z" fill="#263238" stroke="#263238" stroke-linecap="round" stroke-linejoin="round"/>
<path d="M95.9728 38.5106L167.714 28.1687C169.941 27.8476 171.999 29.4462 172.311 31.7392L178.233 75.2884C178.544 77.5814 176.992 79.7004 174.765 80.0214L103.024 90.3633C100.797 90.6844 98.7386 89.0858 98.4268 86.7929L92.5051 43.2436C92.1933 40.9506 93.7458 38.8316 95.9728 38.5106Z" fill="#6A82FB"/>
<path opacity="0.6" d="M169.29 85.0511L179.361 83.5944L141.858 26.6934L131.787 28.1445L169.29 85.0511Z" fill="white"/>
<path opacity="0.6" d="M125.399 91.3786L138.807 89.4437L101.304 32.5371L87.8904 34.472L125.399 91.3786Z" fill="white"/>
<path opacity="0.6" d="M162.491 86.0295L165.866 85.5402L128.358 28.6392L124.983 29.1229L162.491 86.0295Z" fill="white"/>
<path d="M95.9728 38.5106L167.714 28.1687C169.941 27.8476 171.999 29.4462 172.311 31.7392L178.233 75.2884C178.544 77.5814 176.992 79.7004 174.765 80.0214L103.024 90.3633C100.797 90.6844 98.7386 89.0858 98.4268 86.7929L92.5051 43.2436C92.1933 40.9506 93.7458 38.8316 95.9728 38.5106Z" stroke="#263238" stroke-width="0.75" stroke-linecap="round" stroke-linejoin="round"/>
<path d="M137.527 58.33C136.863 58.33 136.285 57.8185 135.832 57.0234L95.2721 63.5786L94.1921 55.5111L134.881 50.7072C134.967 49.8973 135.313 49.1401 135.864 48.5555C137.57 47.0154 143.764 48.6111 146.318 49.3561L147.042 49.2727C147.108 49.1605 147.19 49.0592 147.285 48.9725L143.932 31.5975L151.384 30.5244L153.106 47.9995C153.263 48.0436 153.411 48.115 153.544 48.2108L154.84 47.9383C157.291 46.4038 162.351 43.4903 164.295 44.4522C164.807 44.7411 165.23 45.1728 165.515 45.6977L173.972 43.9685L175.079 52.1028L166.439 52.9979C166.364 53.299 166.219 53.5768 166.017 53.8074C165.815 54.038 165.561 54.2143 165.278 54.3212C164.198 54.6215 162.475 54.4491 160.607 54.1822C167.319 58.2521 169.117 67.4095 169.117 67.4095L164.905 65.1855L161.665 69.6335C161.239 61.6437 156.524 56.712 153.895 54.5659L158.15 82.4437L151.4 83.4L148.241 55.044H148.073C146.167 57.6517 142.549 63.94 144.353 72.1077L140.033 68.7717L136.582 72.1077C136.582 72.1077 135.896 63.1727 140.902 57.3459C139.838 57.8655 138.698 58.1981 137.527 58.33Z" fill="#263238"/>
<path d="M173.831 42.9395L174.917 50.9181L151.999 53.231L95.1155 62.4272L94.0301 54.4431L151.249 47.6877L173.831 42.9395Z" fill="white" stroke="#263238" stroke-linecap="round" stroke-linejoin="round"/>
<path d="M159.257 82.6383L152.572 83.6058L148.862 50.9574L144.99 31.4418L152.361 30.3799L154.246 50.1846L159.257 82.6383Z" fill="white" stroke="#263238" stroke-linecap="round" stroke-linejoin="round"/>
<path d="M152.998 51.9968C152.998 51.9968 161.73 57.0675 162.308 67.9651L165.494 63.6228L169.609 65.8134C169.609 65.8134 167.206 53.5536 157.507 51.3574L152.998 51.9968Z" fill="white" stroke="#263238" stroke-linecap="round" stroke-linejoin="round"/>
<path d="M150.044 52.4194C150.044 52.4194 143.024 59.7698 145.357 70.4116L141.14 67.1312L137.765 70.406C137.765 70.406 136.804 57.935 145.541 53.07L150.044 52.4194Z" fill="white" stroke="#263238" stroke-linecap="round" stroke-linejoin="round"/>
<path d="M154.278 47.638C154.278 47.638 162.319 42.1225 164.867 43.3568C167.416 44.5912 168.302 52.3195 165.856 53.0145C163.409 53.7095 157.162 51.8191 154.516 52.2028L154.278 47.638Z" fill="white" stroke="#263238" stroke-linecap="round" stroke-linejoin="round"/>
<path d="M166.158 51.9581C166.066 52.9311 163.312 52.9756 161.206 52.8644C159.64 52.6364 157.999 52.3473 156.611 52.2194C159.975 51.669 166.271 50.7905 166.158 51.9581Z" fill="#999999" stroke="#263238" stroke-linecap="round" stroke-linejoin="round"/>
<path d="M148.381 48.4886C148.381 48.4886 139.174 45.4584 137.041 47.3766C134.908 49.2948 136.129 56.962 138.661 56.9342C141.194 56.9064 146.702 53.3258 149.359 52.9421L148.381 48.4886Z" fill="white" stroke="#263238" stroke-linecap="round" stroke-linejoin="round"/>
<path d="M138.105 56.0001C138.456 56.9119 141.118 56.1724 143.111 55.4441C144.558 54.788 146.059 54.043 147.361 53.5259C143.98 53.9762 137.7 54.9159 138.105 56.0001Z" fill="#999999" stroke="#263238" stroke-linecap="round" stroke-linejoin="round"/>
<path d="M150.12 53.932L153.981 53.376C154.325 53.3263 154.639 53.1447 154.859 52.8675C155.079 52.5903 155.19 52.2378 155.169 51.8804L154.937 48.1163C154.926 47.9193 154.876 47.7268 154.789 47.551C154.702 47.3751 154.58 47.2198 154.432 47.0949C154.284 46.9699 154.112 46.8781 153.927 46.8251C153.743 46.7722 153.55 46.7594 153.36 46.7874L148.954 47.4268C148.765 47.4529 148.583 47.5192 148.42 47.6214C148.257 47.7236 148.117 47.8595 148.008 48.0205C147.899 48.1815 147.823 48.364 147.786 48.5566C147.749 48.7492 147.751 48.9476 147.793 49.1393L148.586 52.82C148.658 53.1706 148.856 53.4801 149.141 53.6864C149.425 53.8927 149.775 53.9805 150.12 53.932Z" fill="white" stroke="#263238" stroke-linecap="round" stroke-linejoin="round"/>
<path d="M168.377 82.5156C168.377 82.5156 169.409 80.9644 167.033 79.8079C165.24 78.935 165.748 77.8286 164.592 77.9564C163.436 78.0843 166.115 80.9922 165.748 82.0486" fill="white"/>
<path d="M168.377 82.5156C168.377 82.5156 169.409 80.9644 167.033 79.8079C165.24 78.935 165.748 77.8286 164.592 77.9564C163.436 78.0843 166.115 80.9922 165.748 82.0486" stroke="#263238" stroke-linecap="round" stroke-linejoin="round"/>
<path d="M109.723 91.4006C109.723 91.4006 108.162 90.3275 109.987 88.3704C111.272 86.9971 109.544 86.0852 110.457 85.5125C111.677 84.7508 111.272 89.121 111.991 89.9606" fill="white"/>
<path d="M109.723 91.4006C109.723 91.4006 108.162 90.3275 109.987 88.3704C111.272 86.9971 109.544 86.0852 110.457 85.5125C111.677 84.7508 111.272 89.121 111.991 89.9606" stroke="#263238" stroke-linecap="round" stroke-linejoin="round"/>
<path d="M104.278 83.0313C103.239 82.9495 102.627 82.2089 102.491 81.0433L102.417 80.4363L103.749 80.2703L103.831 80.9729C103.827 81.0799 103.847 81.1864 103.89 81.2843C103.932 81.3821 103.996 81.4686 104.076 81.5372C104.156 81.6057 104.25 81.6545 104.351 81.6798C104.452 81.705 104.557 81.706 104.659 81.6828C105.109 81.6278 105.361 81.351 105.291 80.7601C105.221 80.1692 104.897 79.6543 103.857 79.0087C102.592 78.2066 102.108 77.5285 101.986 76.5258C101.858 75.41 102.261 74.5506 103.22 74.1995L103.123 73.3974L104.282 73.2506L104.375 74.0595C105.403 74.1442 106.007 74.8755 106.146 76.0343L106.176 76.2968L104.845 76.4682L104.802 76.1115C104.736 75.5543 104.446 75.3233 103.998 75.3837C103.55 75.4441 103.325 75.719 103.388 76.2601C103.45 76.8012 103.777 77.304 104.813 77.9564C106.083 78.7571 106.562 79.4366 106.692 80.4944C106.833 81.6815 106.406 82.5534 105.432 82.8913L105.537 83.812L104.384 83.9574L104.278 83.0313Z" fill="#263238"/>
<path d="M107.664 80.5773L107.581 79.8518L108.914 79.6858L109.012 80.5162C109.088 81.1744 109.398 81.3767 109.848 81.3218C110.298 81.2668 110.55 80.99 110.474 80.3318L110.225 78.2591C110.149 77.6009 109.835 77.3825 109.386 77.4428C108.938 77.5032 108.687 77.7854 108.764 78.4435L108.783 78.5187L107.452 78.6901L107.09 73.4945L110.813 73.043L110.972 74.3633L108.509 74.6743L108.656 76.8904L108.682 76.8832C108.779 76.6509 108.937 76.4508 109.138 76.3051C109.338 76.1593 109.574 76.0734 109.82 76.057C110.859 75.9257 111.473 76.6083 111.636 77.9676L111.884 80.0578C112.061 81.5343 111.447 82.4809 110.058 82.6452C108.67 82.8095 107.843 82.0591 107.664 80.5773Z" fill="#263238"/>
<path d="M112.731 79.939L112.153 75.0789C111.976 73.6024 112.638 72.6428 114.017 72.4868C115.396 72.3307 116.257 73.0603 116.436 74.5421L117.012 79.3968C117.189 80.8733 116.527 81.8329 115.148 81.9889C113.769 82.145 112.908 81.4154 112.731 79.939ZM115.612 79.6679L115.016 74.6516C114.94 73.9935 114.628 73.7804 114.178 73.8354C113.728 73.8904 113.479 74.1779 113.555 74.8361L114.157 79.8792C114.239 80.536 114.548 80.7558 114.996 80.6955C115.444 80.6351 115.693 80.3247 115.612 79.6679Z" fill="#263238"/>
<path d="M119.14 115.32L118.265 114.502" stroke="#263238" stroke-linecap="round" stroke-linejoin="round"/>
<path d="M128.882 127.846C127.456 124.749 124.772 120.768 119.81 115.959" stroke="#263238" stroke-linecap="round" stroke-linejoin="round"/>
<path d="M129.821 130.293C129.692 129.87 129.535 129.42 129.352 128.947" stroke="#263238" stroke-linecap="round" stroke-linejoin="round"/>
<path d="M130.14 135.63C130.376 134.874 130.457 134.075 130.378 133.284" stroke="#263238" stroke-linecap="round" stroke-linejoin="round"/>
<path d="M158.22 214.649V218.497" stroke="#263238" stroke-linecap="round" stroke-linejoin="round"/>
<path d="M158.22 209.3V213.292" stroke="#263238" stroke-linecap="round" stroke-linejoin="round"/>
<path d="M158.22 206.432V208.1" stroke="#263238" stroke-linecap="round" stroke-linejoin="round"/>
<path d="M153.576 222.922V224.679" stroke="#263238" stroke-linecap="round" stroke-linejoin="round"/>
<path d="M153.576 214.755V221.688" stroke="#263238" stroke-linecap="round" stroke-linejoin="round"/>
<path d="M153.576 211.502V213.292" stroke="#263238" stroke-linecap="round" stroke-linejoin="round"/>
<path d="M114.745 204.246C114.469 204.113 114.205 203.968 113.913 203.824" stroke="#263238" stroke-linecap="round" stroke-linejoin="round"/>
<path d="M123.838 207.766C121 207.018 118.241 205.981 115.603 204.669" stroke="#263238" stroke-linecap="round" stroke-linejoin="round"/>
<path d="M138.046 205.536C136.004 207.454 132.219 209.384 125.582 208.149" stroke="#263238" stroke-linecap="round" stroke-linejoin="round"/>
<path d="M140.162 202.562C139.898 203.205 139.545 203.806 139.115 204.346" stroke="#263238" stroke-linecap="round" stroke-linejoin="round"/>
<path d="M130.14 89.6436L128.169 89.9049" stroke="#263238" stroke-linecap="round" stroke-linejoin="round"/>
<path d="M144.931 87.6641L132.23 89.3654" stroke="#263238" stroke-linecap="round" stroke-linejoin="round"/>
<path d="M150.498 86.9194L147.685 87.2975" stroke="#263238" stroke-linecap="round" stroke-linejoin="round"/>
<path d="M132.943 30.6468L134.908 30.3799" stroke="#263238" stroke-linecap="round" stroke-linejoin="round"/>
<path d="M118.147 32.6257L130.847 30.9243" stroke="#263238" stroke-linecap="round" stroke-linejoin="round"/>
<path d="M112.585 33.3708L115.398 32.9927" stroke="#263238" stroke-linecap="round" stroke-linejoin="round"/>
</svg>
