<svg width="297" height="246" viewBox="0 0 297 246" fill="none" xmlns="http://www.w3.org/2000/svg">
<path d="M276.45 70.207L281.664 61.8483L279.088 60.2541C278.723 60.0223 278.43 59.6938 278.242 59.3052C278.053 58.9166 277.976 58.4833 278.019 58.0534C278.061 57.5774 278.077 57.0995 278.069 56.6218C278.052 56.1854 278.158 55.7531 278.373 55.3733C278.588 54.9934 278.905 54.681 279.288 54.4711L281.939 53.0457L277.287 44.3744L274.637 45.7998C274.264 46.0021 273.842 46.097 273.418 46.0738C272.994 46.0506 272.585 45.9103 272.236 45.6685C271.807 45.37 271.363 45.0945 270.904 44.8433C270.532 44.6383 270.223 44.3341 270.012 43.9645C269.801 43.5949 269.697 43.1742 269.71 42.7489L269.804 39.7355L259.976 39.4292L259.882 42.4551C259.869 42.8811 259.737 43.2948 259.502 43.6503C259.267 44.0057 258.937 44.2889 258.551 44.4682C258.319 44.5745 258.094 44.6933 257.869 44.812C257.644 44.9308 257.419 45.0621 257.2 45.1934C256.838 45.4156 256.422 45.5333 255.997 45.5333C255.572 45.5333 255.155 45.4156 254.793 45.1934L252.218 43.5992L247.035 51.9579L249.617 53.5584C249.979 53.791 250.269 54.1189 250.457 54.5061C250.644 54.8932 250.722 55.3246 250.68 55.7528C250.638 56.2309 250.621 56.7108 250.63 57.1907C250.644 57.6258 250.538 58.0566 250.323 58.4351C250.108 58.8136 249.792 59.1251 249.411 59.3351L246.76 60.7605L251.405 69.4255L254.062 68.0064C254.448 67.8033 254.882 67.7115 255.317 67.7413C255.752 67.7712 256.171 67.9214 256.525 68.1752C256.918 68.4486 257.325 68.7011 257.744 68.9316C258.129 69.1295 258.449 69.4313 258.671 69.8027C258.892 70.1741 259.004 70.6001 258.995 71.0323L258.901 74.0707L268.735 74.377L268.829 71.3574C268.847 70.9268 268.983 70.5095 269.224 70.1519C269.465 69.7944 269.799 69.5105 270.192 69.3318C270.41 69.2255 270.629 69.1192 270.848 69.0004C271.067 68.8816 271.273 68.7628 271.473 68.6441C271.841 68.4159 272.266 68.2951 272.699 68.2951C273.132 68.2951 273.556 68.4159 273.924 68.6441L276.45 70.207ZM269.023 63.4425C267.655 64.426 266.014 64.9563 264.329 64.9587C262.644 64.9611 261.002 64.4355 259.631 63.4559C258.261 62.4763 257.232 61.0919 256.689 59.4972C256.146 57.9025 256.116 56.1779 256.604 54.5656C257.092 52.9533 258.073 51.5344 259.409 50.5085C260.746 49.4825 262.37 48.901 264.053 48.8458C265.737 48.7905 267.395 49.2642 268.796 50.2004C270.196 51.1365 271.268 52.4879 271.861 54.0648C272.485 55.7224 272.545 57.5397 272.032 59.235C271.519 60.9304 270.461 62.4092 269.023 63.4425Z" fill="#EBEBEB"/>
<path d="M18.7922 147.455C19.0531 147.609 19.2661 147.833 19.4074 148.101C19.5487 148.37 19.6127 148.672 19.5925 148.974C19.5925 149.143 19.5925 149.312 19.5925 149.481C19.5925 149.649 19.5925 149.824 19.5925 149.993C19.6129 150.294 19.5495 150.595 19.4093 150.862C19.2692 151.129 19.0577 151.352 18.7985 151.506L16.9604 152.581L20.4052 158.552L22.212 157.495C22.4757 157.344 22.7767 157.27 23.0806 157.281C23.3845 157.292 23.6792 157.388 23.9313 157.558C24.2178 157.744 24.5142 157.916 24.819 158.071C25.0896 158.206 25.3174 158.414 25.4773 158.671C25.6373 158.928 25.7232 159.225 25.7255 159.527V161.634H32.6026V159.527C32.6107 159.223 32.7032 158.926 32.8699 158.671C33.0366 158.416 33.2709 158.213 33.5466 158.083C33.8514 157.928 34.1478 157.757 34.4344 157.57C34.6864 157.4 34.9811 157.304 35.285 157.293C35.5889 157.282 35.8899 157.356 36.1536 157.508L37.9854 158.564L41.4302 152.594L39.5921 151.531C39.3312 151.378 39.1181 151.156 38.9767 150.889C38.8354 150.621 38.7714 150.32 38.7919 150.018C38.7919 149.849 38.7919 149.681 38.7919 149.512C38.7919 149.343 38.7919 149.174 38.7919 149.005C38.7656 148.698 38.8268 148.389 38.9684 148.115C39.11 147.84 39.3262 147.612 39.5921 147.455L41.4302 146.398L37.9854 140.428L36.1599 141.484C35.8963 141.635 35.5959 141.71 35.2922 141.7C34.9886 141.69 34.6938 141.596 34.4406 141.428C34.152 141.24 33.8535 141.066 33.5466 140.909C33.276 140.773 33.0482 140.566 32.8883 140.309C32.7283 140.052 32.6424 139.755 32.6401 139.453V137.346H25.763V139.453C25.7607 139.755 25.6748 140.052 25.5148 140.309C25.3549 140.566 25.1271 140.773 24.8565 140.909C24.5496 141.066 24.2512 141.24 23.9625 141.428C23.7093 141.596 23.4145 141.69 23.1109 141.7C22.8073 141.71 22.5069 141.635 22.2433 141.484L20.4177 140.428L16.973 146.398L18.7922 147.455ZM29.1953 143.835C30.3082 143.835 31.396 144.165 32.3213 144.783C33.2466 145.402 33.9678 146.28 34.3937 147.309C34.8195 148.337 34.931 149.468 34.7139 150.559C34.4967 151.651 33.9609 152.654 33.174 153.44C32.387 154.227 31.3845 154.763 30.293 154.98C29.2015 155.197 28.0702 155.086 27.0421 154.66C26.0139 154.234 25.1352 153.513 24.5169 152.588C23.8986 151.662 23.5686 150.575 23.5686 149.462C23.5736 147.973 24.1686 146.546 25.2233 145.495C26.2779 144.444 27.7063 143.854 29.1953 143.854V143.835Z" fill="#EBEBEB"/>
<path d="M234.193 37.5352L232.186 28.9515L229.542 29.5767C229.165 29.6617 228.771 29.64 228.406 29.5142C228.041 29.3883 227.717 29.1631 227.473 28.8639C227.198 28.5335 226.904 28.2203 226.591 27.9262C226.305 27.6588 226.099 27.3175 225.995 26.9401C225.892 26.5627 225.894 26.1639 226.003 25.788L226.779 23.206L218.339 20.6553L217.557 23.2435C217.45 23.6083 217.244 23.9361 216.961 24.1901C216.679 24.4441 216.331 24.6142 215.957 24.6815C215.495 24.7626 215.038 24.869 214.588 25.0003C214.221 25.1084 213.832 25.1117 213.464 25.0101C213.096 24.9084 212.764 24.7058 212.506 24.4251L210.63 22.4621L204.209 28.4951L206.085 30.4707C206.346 30.7494 206.525 31.0951 206.601 31.4693C206.677 31.8435 206.648 32.2315 206.516 32.59C206.441 32.8089 206.366 33.0214 206.298 33.2152C206.229 33.409 206.173 33.6591 206.123 33.8779C206.032 34.2484 205.841 34.5867 205.571 34.8558C205.301 35.1249 204.962 35.3143 204.591 35.4034L201.946 36.0286L203.959 44.6123L206.61 43.9872C206.988 43.9036 207.381 43.9265 207.747 44.0535C208.112 44.1804 208.435 44.4064 208.68 44.7061C208.955 45.0337 209.247 45.3467 209.555 45.6439C209.841 45.9099 210.047 46.2501 210.151 46.6265C210.255 47.003 210.252 47.4009 210.142 47.7758L209.361 50.3578L217.801 52.9085L218.582 50.3203C218.7 49.9479 218.918 49.6153 219.212 49.3593C219.507 49.1033 219.867 48.9338 220.252 48.8698C220.673 48.7941 221.091 48.696 221.502 48.576C221.871 48.461 222.265 48.451 222.639 48.5471C223.013 48.6431 223.353 48.8415 223.621 49.1199L225.497 51.108L231.924 45.0687L230.048 43.0994C229.789 42.8134 229.612 42.4618 229.538 42.0826C229.465 41.7034 229.496 41.3113 229.629 40.9488C229.704 40.7424 229.773 40.5361 229.836 40.3236C229.898 40.111 229.955 39.9047 230.011 39.6984C230.096 39.319 230.286 38.971 230.559 38.6937C230.832 38.4165 231.177 38.2209 231.555 38.1292L234.193 37.5352ZM225.203 37.9541C224.958 39.4427 224.253 40.8173 223.187 41.8847C222.121 42.9521 220.747 43.6588 219.259 43.9056C217.771 44.1523 216.242 43.9267 214.889 43.2604C213.535 42.5941 212.425 41.5206 211.712 40.1906C211 38.8606 210.722 37.341 210.918 35.8451C211.114 34.3493 211.773 32.9522 212.804 31.8503C213.834 30.7483 215.184 29.9967 216.663 29.701C218.142 29.4054 219.677 29.5805 221.052 30.2018C222.501 30.8567 223.693 31.9715 224.444 33.3732C225.194 34.7749 225.461 36.3852 225.203 37.9541Z" fill="#EBEBEB"/>
<path d="M109.731 55.5599C113.44 32.4561 97.7176 10.7201 74.6138 7.01122C51.5101 3.30232 29.7741 19.025 26.0652 42.1288C22.3563 65.2326 38.0789 86.9686 61.1827 90.6775C84.2865 94.3864 106.023 78.6637 109.731 55.5599Z" fill="#EBEBEB"/>
<path d="M69.8385 90.2067C92.1643 90.2067 110.263 72.1081 110.263 49.7823C110.263 27.4565 92.1643 9.35791 69.8385 9.35791C47.5127 9.35791 29.4141 27.4565 29.4141 49.7823C29.4141 72.1081 47.5127 90.2067 69.8385 90.2067Z" fill="#DBDBDB"/>
<path d="M69.839 87.6565C90.756 87.6565 107.713 70.6999 107.713 49.7828C107.713 28.8658 90.756 11.9092 69.839 11.9092C48.9219 11.9092 31.9653 28.8658 31.9653 49.7828C31.9653 70.6999 48.9219 87.6565 69.839 87.6565Z" fill="white"/>
<path opacity="0.5" d="M106.856 41.749C89.6076 52.1958 61.2617 69.3384 45.4196 78.7349C40.9406 74.9589 37.3988 70.1951 35.0728 64.8183L87.4694 16.2603C92.3639 18.8383 96.6353 22.4557 99.9843 26.8587C103.333 31.2617 105.679 36.3439 106.856 41.749Z" fill="#EBEBEB"/>
<path opacity="0.5" d="M107.68 51.1079C107.543 55.3203 106.697 59.4796 105.18 63.4115L57.9408 85.7556C55.8831 85.0732 53.8877 84.2157 51.9766 83.1924C66.2495 74.9337 92.3197 59.9293 107.68 51.1079Z" fill="#EBEBEB"/>
<path d="M70.2007 14.6597H69.4692V20.3989H70.2007V14.6597Z" fill="#C7C7C7"/>
<path d="M52.5895 19.1777L51.9561 19.5435L54.8256 24.5137L55.4591 24.148L52.5895 19.1777Z" fill="#C7C7C7"/>
<path d="M39.5982 31.9046L39.2324 32.5381L44.2027 35.4077L44.5684 34.7742L39.5982 31.9046Z" fill="#C7C7C7"/>
<path d="M40.4545 49.4199H34.7153V50.1514H40.4545V49.4199Z" fill="#C7C7C7"/>
<path d="M44.2056 64.1719L39.2354 67.0415L39.6011 67.675L44.5714 64.8054L44.2056 64.1719Z" fill="#C7C7C7"/>
<path d="M54.8255 75.0551L51.9585 80.0269L52.5922 80.3923L55.4591 75.4205L54.8255 75.0551Z" fill="#C7C7C7"/>
<path d="M70.2007 79.166H69.4692V84.9052H70.2007V79.166Z" fill="#C7C7C7"/>
<path d="M84.842 75.0517L84.2085 75.4175L87.0781 80.3878L87.7116 80.022L84.842 75.0517Z" fill="#C7C7C7"/>
<path d="M95.4639 64.1561L95.0981 64.7896L100.068 67.6591L100.434 67.0257L95.4639 64.1561Z" fill="#C7C7C7"/>
<path d="M104.961 49.4199H99.2222V50.1514H104.961V49.4199Z" fill="#C7C7C7"/>
<path d="M100.07 31.9146L95.0996 34.7842L95.4653 35.4176L100.436 32.5481L100.07 31.9146Z" fill="#C7C7C7"/>
<path d="M87.0784 19.1815L84.2114 24.1533L84.8451 24.5187L87.7121 19.5469L87.0784 19.1815Z" fill="#C7C7C7"/>
<path d="M70.3884 17.2605L71.6325 52.3396L68.0439 52.2959L69.4131 17.248L70.3884 17.2605Z" fill="#C7C7C7"/>
<path d="M92.239 37.5537L68.6383 52.6144L66.9253 49.4572L91.7764 36.6909L92.239 37.5537Z" fill="#A6A6A6"/>
<path d="M71.0637 49.7821C71.0637 50.0294 70.9904 50.2711 70.853 50.4768C70.7156 50.6824 70.5203 50.8426 70.2919 50.9373C70.0634 51.0319 69.812 51.0567 69.5694 51.0084C69.3269 50.9602 69.1041 50.8411 68.9292 50.6662C68.7543 50.4914 68.6353 50.2686 68.587 50.026C68.5388 49.7835 68.5635 49.5321 68.6582 49.3036C68.7528 49.0751 68.9131 48.8798 69.1187 48.7425C69.3243 48.6051 69.5661 48.5317 69.8134 48.5317C70.145 48.5317 70.463 48.6635 70.6975 48.898C70.932 49.1325 71.0637 49.4505 71.0637 49.7821Z" fill="#C7C7C7"/>
<path d="M252.63 163.904C252.63 163.904 242.84 161.684 237.476 156.739C232.112 151.794 229.148 142.941 229.148 142.941C232.869 143.656 236.536 144.621 240.127 145.83C241.472 147.212 242.592 148.796 243.446 150.525C243.529 149.407 243.529 148.285 243.446 147.168C244.698 147.709 245.87 148.42 246.929 149.281C251.374 153.176 252.63 163.904 252.63 163.904Z" fill="#DBDBDB"/>
<path d="M235.225 147.249C233.893 146.323 232.537 145.436 231.205 144.504C231.188 144.493 231.175 144.476 231.171 144.456C231.166 144.436 231.169 144.415 231.18 144.398C231.191 144.38 231.208 144.368 231.228 144.363C231.248 144.359 231.269 144.362 231.286 144.373C233.787 145.88 236.288 147.499 238.701 149.174C239.539 149.762 240.364 150.375 241.202 151L241.033 150.706C240.739 150.218 240.408 149.731 240.12 149.249C239.504 148.27 238.808 147.344 238.038 146.48C238.038 146.449 238.038 146.398 238.088 146.43C238.851 147.311 239.614 148.18 240.308 149.112C240.639 149.556 240.933 150.018 241.239 150.487C241.389 150.731 241.539 150.975 241.677 151.225L241.827 151.475C243.077 152.469 244.328 153.507 245.497 154.601C246.222 155.276 246.922 155.983 247.604 156.702C247.222 155.52 246.891 154.32 246.453 153.157C246.453 153.148 246.457 153.141 246.462 153.135C246.468 153.129 246.476 153.125 246.485 153.125C246.493 153.125 246.501 153.129 246.507 153.135C246.512 153.141 246.516 153.148 246.516 153.157C246.941 154.407 247.41 155.607 247.766 156.864C248.516 157.677 249.229 158.515 249.904 159.365C249.897 159.31 249.886 159.256 249.873 159.202C249.76 158.746 249.648 158.283 249.523 157.827C249.285 156.939 249.023 156.058 248.723 155.195C248.16 153.391 247.27 151.706 246.097 150.225C246.097 150.193 246.097 150.15 246.141 150.181C247.977 152.466 249.261 155.145 249.892 158.008C249.996 158.425 250.096 158.842 250.192 159.259C250.242 159.477 250.298 159.702 250.336 159.934C250.636 160.334 250.923 160.734 251.198 161.153C252.869 163.705 254.259 166.43 255.343 169.28C256.561 172.481 257.605 175.745 258.469 179.058C258.469 179.071 258.464 179.084 258.455 179.093C258.445 179.103 258.433 179.108 258.419 179.108C258.406 179.108 258.393 179.103 258.384 179.093C258.375 179.084 258.369 179.071 258.369 179.058C256.45 173.331 254.499 167.517 251.223 162.403C250.529 161.322 249.779 160.278 248.985 159.277C247.365 159.173 245.765 158.856 244.228 158.333C242.547 157.767 240.944 156.992 239.457 156.026C238.61 155.456 237.794 154.841 237.013 154.182C236.975 154.151 237.013 154.101 237.05 154.132C238.419 155.233 239.929 156.145 241.539 156.845C243.122 157.571 244.778 158.127 246.478 158.502C247.197 158.658 247.935 158.777 248.666 158.877C247.76 157.76 246.796 156.692 245.778 155.676C245.447 155.345 245.109 155.051 244.765 154.713C243.625 153.916 242.415 153.221 241.152 152.638C239.545 151.863 237.97 151.044 236.382 150.237C235.481 149.781 234.594 149.312 233.693 148.874C233.656 148.874 233.693 148.799 233.725 148.818C235.337 149.593 236.969 150.318 238.595 151.062C240.12 151.763 241.664 152.469 243.134 153.288L243.321 153.401C241.996 152.244 240.62 151.15 239.214 150.087C237.897 149.124 236.567 148.178 235.225 147.249Z" fill="#A6A6A6"/>
<path d="M235.781 152.294C236.582 152.644 237.388 152.95 238.176 153.319C238.964 153.688 239.758 154.144 240.527 154.569C240.534 154.573 240.54 154.58 240.542 154.588C240.544 154.597 240.543 154.606 240.539 154.613C240.535 154.62 240.528 154.626 240.52 154.628C240.512 154.631 240.503 154.63 240.495 154.625C239.714 154.25 238.926 153.9 238.151 153.513C237.376 153.125 236.575 152.687 235.763 152.331C235.725 152.337 235.744 152.275 235.781 152.294Z" fill="#A6A6A6"/>
<path d="M284.426 114.577C282.618 116.909 281.594 119.754 281.501 122.704C281.469 123.579 281.607 124.805 281.707 126.243C279.262 127.657 277.096 129.506 275.318 131.7C277.273 130.566 279.518 130.029 281.776 130.156C281.721 131.139 281.596 132.117 281.401 133.082C279.977 133.08 278.566 133.358 277.249 133.901C278.538 133.885 279.816 134.138 281 134.645C279.256 140.197 274.067 145.898 259.744 148.318C258.23 141.512 259.127 134.392 262.283 128.174C266.571 119.734 284.426 114.577 284.426 114.577Z" fill="#DBDBDB"/>
<path d="M254.78 172.075C255.024 169.705 255.337 167.336 255.706 164.985C256.431 160.265 257.395 155.585 258.594 150.962C259.155 148.795 259.846 146.663 260.663 144.579C260.62 144.197 260.601 143.813 260.607 143.429C260.607 142.972 260.607 142.516 260.607 142.053C260.607 141.141 260.663 140.222 260.738 139.309C260.885 137.498 261.179 135.701 261.62 133.938C261.882 132.919 262.182 131.913 262.483 130.906C262.483 130.898 262.486 130.89 262.492 130.884C262.498 130.878 262.505 130.875 262.514 130.875C262.522 130.875 262.53 130.878 262.536 130.884C262.542 130.89 262.545 130.898 262.545 130.906C262.071 132.666 261.718 134.456 261.488 136.264C261.234 138.047 261.074 139.841 261.007 141.641C261.007 142.128 261.007 142.622 261.007 143.116C261.007 143.322 261.007 143.535 261.007 143.741C261.708 142.026 262.514 140.356 263.42 138.74C264.873 136.179 266.511 133.728 268.322 131.406C268.325 131.136 268.363 130.867 268.434 130.606C268.503 130.287 268.572 129.981 268.647 129.65C268.789 128.995 268.951 128.345 269.134 127.699C269.491 126.399 269.96 125.148 270.385 123.867C270.385 123.858 270.388 123.851 270.394 123.845C270.4 123.839 270.408 123.835 270.416 123.835C270.424 123.835 270.432 123.839 270.438 123.845C270.444 123.851 270.447 123.858 270.447 123.867C270.072 125.117 269.822 126.449 269.528 127.737C269.385 128.362 269.247 128.987 269.103 129.656L268.897 130.612C268.9 130.637 268.9 130.663 268.897 130.688C269.478 129.956 270.066 129.237 270.672 128.531C273.404 125.323 276.405 122.36 279.425 119.428C279.794 119.065 280.175 118.715 280.55 118.359L280.594 118.403C277.712 121.416 274.874 124.454 272.185 127.643C271.56 128.399 270.935 129.162 270.31 129.944C270.635 129.718 270.935 129.506 271.285 129.318C272.117 128.774 272.961 128.243 273.83 127.755C274.699 127.268 275.574 126.793 276.468 126.349C277.362 125.905 278.343 125.523 279.256 125.011C279.294 125.011 279.325 125.055 279.287 125.067C278.382 125.485 277.508 125.97 276.674 126.518C275.805 127.03 274.93 127.555 274.08 128.099C273.229 128.643 272.392 129.156 271.579 129.7C270.879 130.15 270.197 130.644 269.472 131.063C267.779 133.202 266.213 135.44 264.783 137.765C263.917 139.224 263.126 140.726 262.414 142.266L262.926 142.041L264.239 141.459C265.083 141.084 265.927 140.722 266.771 140.353C268.378 139.653 270.01 139.015 271.585 138.246C272.474 137.83 273.334 137.356 274.161 136.827C274.198 136.827 274.23 136.858 274.192 136.883C271.26 138.909 267.94 140.334 264.714 141.772L263.308 142.397C262.92 142.566 262.533 142.76 262.132 142.91C261.171 145.061 260.362 147.278 259.713 149.543C258.428 154.103 257.385 158.727 256.587 163.397C255.768 168.074 255.212 172.775 254.786 177.514C254.73 178.101 254.674 178.689 254.611 179.283C254.611 179.333 254.592 179.381 254.556 179.416C254.521 179.451 254.474 179.471 254.424 179.471C254.374 179.471 254.326 179.451 254.291 179.416C254.256 179.381 254.236 179.333 254.236 179.283C254.286 176.839 254.536 174.463 254.78 172.075Z" fill="#A6A6A6"/>
<path d="M263.496 132.525C263.758 131.069 264.121 129.65 264.54 128.224C264.54 128.216 264.543 128.208 264.549 128.202C264.555 128.196 264.563 128.193 264.571 128.193C264.579 128.193 264.587 128.196 264.593 128.202C264.599 128.208 264.602 128.216 264.602 128.224C264.24 129.625 263.977 131.05 263.721 132.469C263.465 133.888 263.215 135.37 263.008 136.845H262.971C263.064 135.397 263.24 133.954 263.496 132.525Z" fill="#A6A6A6"/>
<path d="M269.667 136.477C270.667 135.822 271.711 135.237 272.792 134.726C273.311 134.451 273.843 134.195 274.368 133.939C274.893 133.682 275.481 133.457 276.018 133.182C276.062 133.182 276.093 133.226 276.056 133.245C275.531 133.507 275.031 133.826 274.518 134.107L272.911 134.951C271.861 135.514 270.836 136.133 269.735 136.589C269.722 136.588 269.71 136.584 269.699 136.578C269.688 136.571 269.679 136.562 269.672 136.551C269.665 136.54 269.661 136.527 269.66 136.514C269.659 136.502 269.662 136.489 269.667 136.477Z" fill="#A6A6A6"/>
<path opacity="0.1" d="M252.449 146.949C252.449 146.949 243.396 144.785 239.239 138.709C235.263 132.907 233.981 123.016 233.881 122.147C234.043 122.948 235.913 131.588 242.077 135.614C246.797 138.702 251.361 141.234 252.449 146.949Z" fill="#A6A6A6"/>
<path d="M244.09 131.3C245.7 132.781 246.858 134.689 247.428 136.802C246.76 134.741 245.609 132.869 244.071 131.344C244.015 131.319 244.059 131.269 244.09 131.3Z" fill="#A6A6A6"/>
<path d="M252.448 146.949C252.448 146.949 243.396 144.785 239.238 138.709C235.262 132.907 233.98 123.016 233.88 122.147C233.878 122.127 233.878 122.106 233.88 122.085C233.88 122.085 238.225 128.262 242.789 129.837C247.353 131.413 253.761 136.858 252.448 146.949Z" fill="#DBDBDB"/>
<path d="M235.475 125.492C236.286 127.157 237.223 128.757 238.276 130.281C239.34 131.728 240.603 133.018 242.027 134.113C243.277 135.088 244.528 135.989 245.778 136.933L245.747 136.889C245.515 136.539 245.265 136.201 245.009 135.876C244.49 135.213 243.921 134.588 243.352 133.969C242.227 132.719 241.077 131.55 240.07 130.218C239.507 129.49 239.019 128.707 238.613 127.88C238.613 127.843 238.657 127.824 238.676 127.88C240.145 130.937 243.083 132.882 245.172 135.482C245.471 135.849 245.75 136.23 246.009 136.626C246.217 136.913 246.393 137.221 246.534 137.545C247.68 138.466 248.716 139.515 249.623 140.671C249.544 140.078 249.422 139.491 249.26 138.915C249.051 138.108 248.726 137.335 248.297 136.62C248.297 136.583 248.335 136.545 248.354 136.583C248.796 137.298 249.151 138.064 249.41 138.865C249.601 139.499 249.712 140.154 249.742 140.815C250.188 141.424 250.595 142.061 250.961 142.722L250.848 142.14C250.673 141.24 250.473 140.34 250.223 139.446C249.797 137.633 249.061 135.907 248.047 134.344C248.047 134.307 248.079 134.276 248.104 134.307C249.14 135.852 249.952 137.536 250.517 139.308C250.804 140.196 251.036 141.096 251.236 142.009C251.336 142.453 251.43 142.903 251.511 143.353C251.555 143.585 251.605 143.822 251.642 144.06C252.541 146.032 253.242 148.089 253.737 150.199C254.622 153.972 255.265 157.798 255.662 161.653C256.133 165.688 256.342 169.75 256.287 173.812C256.287 174.319 256.25 174.825 256.225 175.338C256.225 175.469 256.018 175.488 256.012 175.338C255.925 173.325 255.875 171.318 255.756 169.305C255.637 167.292 255.462 165.291 255.243 163.29C254.837 159.355 254.211 155.446 253.368 151.581C252.636 148.267 251.686 144.935 249.873 142.034C248.974 140.591 247.873 139.283 246.603 138.152C245.353 137.008 243.946 136.014 242.608 134.957C241.253 133.929 240.024 132.746 238.945 131.431C237.836 129.969 236.87 128.403 236.063 126.755C235.85 126.342 235.631 125.936 235.437 125.504C235.4 125.492 235.456 125.454 235.475 125.492Z" fill="#A6A6A6"/>
<path d="M285.684 142.941C285.684 142.941 285.828 155.814 278.132 159.528C270.436 163.241 266.316 160.153 261.083 161.403C261.283 161.097 265.015 155.726 270.955 154.251C277.069 152.719 283.833 148.305 285.684 142.941Z" fill="#DBDBDB"/>
<path opacity="0.1" d="M285.684 142.941C285.684 142.941 285.828 155.814 278.132 159.528C270.436 163.241 266.316 160.153 261.083 161.403C263.845 160.084 266.8 159.213 269.836 158.821C274.693 158.221 283.965 155.064 285.684 142.941Z" fill="#A6A6A6"/>
<path d="M260.576 161.621C261.492 160.788 262.524 160.091 263.639 159.552C263.802 159.471 263.97 159.408 264.139 159.333C264.308 159.258 264.308 159.133 264.396 159.039C264.627 158.802 264.871 158.57 265.121 158.352C265.604 157.936 266.123 157.563 266.671 157.239C267.922 156.489 269.341 155.988 270.647 155.263C270.685 155.263 270.716 155.307 270.679 155.326C270.053 155.657 269.428 156.026 268.803 156.395C268.178 156.764 267.553 157.089 266.978 157.47C266.441 157.812 265.931 158.194 265.452 158.614C265.315 158.733 265.19 158.858 265.058 158.989C265.909 158.704 266.778 158.474 267.659 158.302C269.066 158.014 270.491 157.814 271.898 157.514C272.589 157.368 273.271 157.184 273.942 156.964C274.567 156.451 275.192 155.938 275.818 155.382C276.55 154.71 277.218 153.971 277.812 153.175C277.814 153.171 277.818 153.168 277.821 153.166C277.825 153.163 277.829 153.162 277.833 153.161C277.838 153.16 277.842 153.16 277.847 153.161C277.851 153.162 277.855 153.163 277.859 153.166C277.863 153.168 277.866 153.171 277.868 153.175C277.871 153.179 277.872 153.183 277.873 153.187C277.874 153.192 277.874 153.196 277.873 153.2C277.872 153.205 277.871 153.209 277.868 153.213C276.945 154.473 275.898 155.637 274.742 156.689C275.074 156.564 275.405 156.432 275.724 156.282C278.367 155.098 280.635 153.212 282.282 150.831C282.282 150.793 282.363 150.831 282.338 150.862C280.941 152.907 279.136 154.642 277.037 155.957C275.984 156.613 274.86 157.145 273.686 157.545C272.32 157.966 270.926 158.294 269.516 158.527C268.136 158.753 266.774 159.076 265.44 159.496C264.213 159.914 263.059 160.522 262.02 161.296C260.058 162.819 258.479 164.777 257.406 167.017C256.033 169.975 255.174 173.147 254.868 176.394C254.868 176.532 254.636 176.532 254.649 176.394C254.962 171.012 256.406 165.379 260.576 161.621Z" fill="#A6A6A6"/>
<path d="M269.509 157.458C269.911 156.858 270.454 156.366 271.091 156.027C271.817 155.642 272.455 155.112 272.967 154.47C272.967 154.432 273.048 154.47 273.023 154.501C272.56 155.091 271.997 155.594 271.36 155.989C270.661 156.363 270.045 156.873 269.547 157.489C269.534 157.489 269.491 157.458 269.509 157.458Z" fill="#A6A6A6"/>
<path d="M265.427 171.125L265.077 178.202L264.002 199.82H247.859L246.784 178.202L246.434 171.125H265.427Z" fill="#EBEBEB"/>
<path d="M265.427 171.125L265.077 178.202H246.784L246.434 171.125H265.427Z" fill="#DBDBDB"/>
<path d="M266.559 168.167H245.303V174.919H266.559V168.167Z" fill="#EBEBEB"/>
<path d="M148.5 245.702C230.514 245.702 297 238.347 297 229.273C297 220.199 230.514 212.843 148.5 212.843C66.4857 212.843 0 220.199 0 229.273C0 238.347 66.4857 245.702 148.5 245.702Z" fill="#EBEBEB"/>
<path d="M11.4341 199.821L45.7004 199.67L79.9668 199.614L148.499 199.514L217.032 199.614L251.298 199.67L285.565 199.821L251.298 199.977L217.032 200.033L148.499 200.133L79.9668 200.033L45.7004 199.977L11.4341 199.821Z" fill="#263238"/>
<path d="M251.911 70.2515H44.0371V209.305H251.911V70.2515Z" fill="#DBDBDB"/>
<path d="M250.398 71.9458H45.5503V207.605H250.398V71.9458Z" fill="#37474F"/>
<path d="M278.981 219.727H16.9604V229.267H278.981V219.727Z" fill="#C7C7C7"/>
<path d="M16.9604 219.727L44.0372 209.305H251.911L278.981 219.727H16.9604Z" fill="#DBDBDB"/>
<path d="M46.457 216.032L63.9247 209.305H232.024L249.492 216.032H46.457Z" fill="#37474F"/>
<path d="M238.819 82.2549H57.1216V197.301H238.819V82.2549Z" fill="white"/>
<path d="M238.826 82.2549H56.9722V86.6812H238.826V82.2549Z" fill="#A6A6A6"/>
<path d="M60.4921 84.468C60.4921 84.6856 60.4276 84.8984 60.3067 85.0793C60.1858 85.2603 60.014 85.4013 59.8129 85.4846C59.6118 85.5679 59.3906 85.5896 59.1772 85.5472C58.9637 85.5047 58.7677 85.3999 58.6138 85.2461C58.4599 85.0922 58.3551 84.8961 58.3126 84.6827C58.2702 84.4692 58.292 84.248 58.3753 84.0469C58.4585 83.8459 58.5996 83.674 58.7805 83.5531C58.9615 83.4322 59.1742 83.3677 59.3918 83.3677C59.5366 83.3669 59.68 83.3948 59.8139 83.4498C59.9478 83.5048 60.0694 83.5858 60.1717 83.6881C60.2741 83.7905 60.3551 83.9121 60.4101 84.046C60.4651 84.1798 60.493 84.3233 60.4921 84.468Z" fill="#C7C7C7"/>
<path d="M63.8743 85.5683C64.4819 85.5683 64.9746 85.0757 64.9746 84.468C64.9746 83.8603 64.4819 83.3677 63.8743 83.3677C63.2666 83.3677 62.7739 83.8603 62.7739 84.468C62.7739 85.0757 63.2666 85.5683 63.8743 85.5683Z" fill="white"/>
<path d="M69.4565 84.468C69.4565 84.6856 69.392 84.8984 69.2711 85.0793C69.1502 85.2603 68.9783 85.4013 68.7773 85.4846C68.5762 85.5679 68.355 85.5896 68.1415 85.5472C67.9281 85.5047 67.732 85.3999 67.5781 85.2461C67.4243 85.0922 67.3195 84.8961 67.277 84.6827C67.2345 84.4692 67.2563 84.248 67.3396 84.0469C67.4229 83.8459 67.5639 83.674 67.7449 83.5531C67.9258 83.4322 68.1386 83.3677 68.3562 83.3677C68.5009 83.3669 68.6444 83.3948 68.7782 83.4498C68.9121 83.5048 69.0337 83.5858 69.1361 83.6881C69.2384 83.7905 69.3194 83.9121 69.3744 84.046C69.4294 84.1798 69.4573 84.3233 69.4565 84.468Z" fill="#6A82FB"/>
<path d="M97.6155 72.6575C90.9948 81.4101 90.5759 94.3702 90.5759 94.3702C90.5759 94.3702 84.9868 108.124 88.0314 114.732C88.855 116.614 90.1225 118.268 91.7252 119.553C93.328 120.838 95.2182 121.715 97.2341 122.11L95.9837 118.396C95.9837 118.396 99.1597 122.947 107.725 123.754C116.29 124.56 126.88 120.447 132.169 116.752C135.311 114.583 137.835 111.636 139.497 108.199L138.146 114.051C138.146 114.051 146.149 112.626 149.706 103.423C153.263 94.2201 137.827 83.8483 136.264 81.3663C134.701 78.8843 130.506 59.7975 110.682 66.0118C110.669 65.9868 102.173 66.6245 97.6155 72.6575Z" fill="#263238"/>
<path d="M94.2398 122.028C91.7891 121.272 89.5572 119.209 88.0755 117.171C86.4819 115.03 85.652 112.417 85.7185 109.75C85.8373 106.549 87.0939 103.56 88.313 100.647C89.5634 97.6336 91.0576 94.7015 92.2642 91.6756C92.3267 91.5068 92.0767 91.4131 91.9829 91.5506C90.4782 93.923 89.1109 96.3798 87.8879 98.909C86.5999 101.245 85.5886 103.723 84.8745 106.292C84.208 108.661 84.234 111.171 84.9496 113.526C85.6214 115.438 86.7528 117.155 88.2443 118.527C90.001 120.178 92.0767 121.103 94.1585 122.241C94.1725 122.246 94.1874 122.249 94.2023 122.248C94.2172 122.248 94.2319 122.245 94.2456 122.238C94.2592 122.232 94.2715 122.224 94.2818 122.213C94.2921 122.202 94.3001 122.189 94.3054 122.175C94.3108 122.161 94.3133 122.146 94.3129 122.131C94.3125 122.117 94.3091 122.102 94.3031 122.088C94.297 122.075 94.2882 122.062 94.2774 122.052C94.2665 122.042 94.2538 122.034 94.2398 122.028Z" fill="#263238"/>
<path d="M150.156 94.3573C146.711 87.5991 139.684 83.998 134.92 78.3589C132.338 75.3017 130.182 71.8194 127.031 69.2937C126.943 69.2312 126.831 69.375 126.912 69.4437C129.531 71.7507 131.288 74.714 133.332 77.4899C135.484 80.2263 137.905 82.7397 140.56 84.9921C145.267 89.2433 150.894 94.2636 150.931 101.147C150.931 104.329 149.594 108.024 146.555 109.468C146.443 109.518 146.555 109.712 146.655 109.643C147.845 108.959 148.882 108.04 149.705 106.941C150.527 105.842 151.117 104.588 151.438 103.254C152.096 100.231 151.641 97.0718 150.156 94.3573Z" fill="#263238"/>
<path d="M150.725 96.2264C150.557 93.5053 149.553 90.9024 147.849 88.7742C146.123 86.6799 143.685 85.342 141.278 84.1854C138.496 82.8537 135.595 81.6346 133.601 79.1839C133.52 79.0776 133.376 79.2214 133.457 79.3214C136.639 83.3726 141.797 84.7418 145.617 87.9865C149.993 91.7001 150.869 97.8832 148.968 103.11C147.74 106.302 145.776 109.16 143.235 111.45C143.191 111.487 143.235 111.556 143.298 111.512C147.649 107.686 151.187 102.253 150.725 96.2264Z" fill="#263238"/>
<path d="M115.99 126.861C122.573 133.775 156.402 166.485 171.169 163.434C189.068 159.739 209.855 148.849 217.97 141.109C222.521 136.776 200.584 114.851 196.007 118.233C188.799 123.572 171.431 132.45 168.374 133.7C165.317 134.951 139.453 121.616 124.374 116.402C110.795 111.675 111.357 121.991 115.99 126.861Z" fill="#DD6A57"/>
<path d="M230.342 131.274C226.372 136.57 214.012 144.216 210.336 144.916C206.66 145.616 192.944 125.035 194.175 121.378C195.407 117.72 210.161 100.94 216.682 99.2587C223.202 97.5769 234.462 125.792 230.342 131.274Z" fill="#DD6A57"/>
<path d="M196.169 118.071C196.169 118.071 198.514 109.787 198.045 102.222C197.632 95.8579 196.301 86.4552 199.714 86.1051C206.723 85.3861 210.036 108.837 210.036 108.837C210.036 108.837 209.83 119.421 202.953 120.715C198.62 121.584 196.169 118.071 196.169 118.071Z" fill="#DD6A57"/>
<path d="M207.148 103.866C206.797 107.355 211.111 105.773 211.111 105.773C211.111 105.773 205.485 109.524 206.485 113.275C207.485 116.87 212.624 114.77 212.999 114.626C212.699 114.832 207.591 118.439 209.017 122.084C210.499 125.873 215.269 122.884 215.606 122.709C215.381 122.984 212.524 126.729 214.237 129.255C217.176 133.594 224.753 124.254 228.985 123.954C228.985 123.954 230.267 131.081 230.342 131.281C230.342 131.281 237.732 122.528 237.05 116.82C236.963 115.99 236.595 115.215 236.007 114.623C235.419 114.031 234.647 113.657 233.818 113.563C233.818 113.563 236.512 111 235.487 108.093C234.956 106.598 232.092 106.123 232.092 106.123C232.092 106.123 234.168 103.985 233.093 101.453C232.236 99.4338 229.504 99.2713 229.504 99.2713C229.504 99.2713 230.536 96.2891 228.998 94.5074C225.891 90.9 207.892 96.3954 207.148 103.866Z" fill="#DD6A57"/>
<path d="M229.073 99.1713C229.087 99.1713 229.099 99.166 229.109 99.1567C229.118 99.1473 229.123 99.1346 229.123 99.1213C229.123 99.108 229.118 99.0953 229.109 99.0859C229.099 99.0766 229.087 99.0713 229.073 99.0713C222.715 99.4339 215.838 101.785 210.874 105.83C210.712 105.967 210.874 106.286 211.062 106.173C216.97 102.979 222.478 100.622 229.073 99.1713Z" fill="#263238"/>
<path d="M232.174 106.055C232.243 106.055 232.218 105.923 232.174 105.923C225.622 106.336 217.957 109.193 212.793 114.532C212.618 114.713 212.643 115.057 212.862 114.863C216.525 111.575 226.228 107.33 232.174 106.055Z" fill="#263238"/>
<path d="M215.394 123.198C220.552 118.271 226.772 115.489 233.568 113.557C233.656 113.557 233.612 113.407 233.531 113.407C229.948 113.451 225.741 115.133 222.584 116.721C219.623 118.144 217.085 120.314 215.219 123.016C215.125 123.123 215.263 123.304 215.394 123.198Z" fill="#263238"/>
<path d="M211.018 105.742C210.824 105.898 211.274 106.011 211.08 106.174C210.28 106.874 205.829 111.481 206.923 113.482C207.81 115.089 210.58 115.014 211.63 114.57L214.281 113.451L212.18 115.42C211.244 116.29 210.454 117.305 209.842 118.427C209.528 118.931 209.324 119.496 209.244 120.084C209.165 120.673 209.211 121.271 209.38 121.841C209.543 122.364 209.879 122.817 210.334 123.124C210.788 123.43 211.334 123.573 211.88 123.529C213.107 123.396 214.28 122.953 215.288 122.241L218.132 120.365L216.05 123.072C215.473 123.819 214.994 124.636 214.625 125.504C214.242 126.314 214.107 127.219 214.237 128.105C214.311 128.501 214.494 128.868 214.766 129.166C215.038 129.463 215.387 129.678 215.775 129.787C216.681 129.9 217.6 129.755 218.426 129.368C220.219 128.548 221.945 127.591 223.59 126.505C224.44 125.986 225.297 125.467 226.178 124.985C227.032 124.452 227.988 124.104 228.985 123.966C228.023 124.207 227.117 124.632 226.316 125.217C225.484 125.754 224.678 126.336 223.871 126.923C222.265 128.144 220.549 129.214 218.745 130.118C217.777 130.632 216.679 130.849 215.588 130.743C215.002 130.618 214.465 130.325 214.043 129.9C213.621 129.475 213.332 128.936 213.212 128.349C213.023 127.254 213.162 126.127 213.612 125.11C214.008 124.136 214.529 123.218 215.163 122.378L215.938 123.197C214.758 124.058 213.375 124.597 211.924 124.76C211.116 124.82 210.312 124.599 209.648 124.135C209.012 123.662 208.533 123.008 208.273 122.26C208.059 121.539 208 120.782 208.1 120.037C208.201 119.293 208.458 118.578 208.854 117.94C209.542 116.713 210.429 115.61 211.48 114.676L212.03 115.526C210.674 116.051 207.585 116.47 205.904 114.151C204.141 110.781 209.892 106.455 211.018 105.742Z" fill="#263238"/>
<path d="M211.112 105.773C210.397 105.883 209.67 105.883 208.955 105.773C208.668 105.738 208.395 105.627 208.166 105.451C207.936 105.275 207.757 105.041 207.648 104.773C207.495 104.153 207.523 103.502 207.73 102.897C207.923 102.216 208.167 101.516 208.442 100.797C207.843 101.299 207.356 101.921 207.011 102.622C206.591 103.386 206.49 104.285 206.729 105.123C206.905 105.566 207.213 105.944 207.611 106.205C207.988 106.431 208.421 106.55 208.861 106.549C209.675 106.538 210.464 106.266 211.112 105.773Z" fill="#263238"/>
<path d="M190.762 120.516L216.176 149.237C216.176 149.237 178.452 167.704 166.161 164.866C153.87 162.028 128.494 142.897 117.397 129.231C106.299 115.564 113.02 111.763 128.481 116.877C143.942 121.991 165.798 131.975 168.018 131.881C170.237 131.788 190.762 120.516 190.762 120.516Z" fill="#6A82FB"/>
<path d="M216.176 149.236C216.176 149.236 178.452 167.698 166.161 164.866C158.509 163.109 145.792 155.025 134.602 145.866C134.554 145.838 134.51 145.804 134.47 145.766C127.731 140.24 121.554 134.338 117.39 129.205C113.783 124.772 112.064 121.378 111.901 118.99C111.861 118.544 111.893 118.094 111.995 117.658C112.858 113.907 119.041 113.744 128.475 116.864C143.954 121.972 165.792 131.956 168.018 131.868C170.243 131.781 190.756 120.515 190.756 120.515L216.176 149.236Z" fill="#6A82FB"/>
<path d="M147.449 146.391C147.923 146.228 148.434 146.2 148.924 146.31C149.191 146.41 149.423 146.588 149.588 146.821C149.753 147.054 149.844 147.331 149.849 147.617C149.845 147.806 149.889 147.994 149.978 148.161C150.066 148.329 150.197 148.471 150.356 148.573C150.531 148.689 150.734 148.756 150.943 148.767C151.181 148.811 151.412 148.836 151.65 148.898C151.171 149.068 150.652 149.088 150.162 148.955C149.903 148.844 149.682 148.659 149.527 148.423C149.373 148.187 149.291 147.911 149.293 147.629C149.288 147.441 149.235 147.257 149.14 147.094C149.045 146.931 148.911 146.795 148.749 146.698C148.56 146.585 148.344 146.525 148.124 146.523C147.918 146.479 147.68 146.454 147.449 146.391Z" fill="white"/>
<path d="M114.221 119.946C113.744 120.112 113.228 120.134 112.739 120.009C112.53 119.924 112.345 119.789 112.2 119.615C112.055 119.442 111.954 119.236 111.908 119.015C111.867 118.569 111.899 118.119 112.001 117.683C112.262 117.944 112.412 118.296 112.42 118.665C112.418 118.854 112.463 119.042 112.553 119.209C112.643 119.377 112.773 119.518 112.933 119.621C113.107 119.734 113.307 119.801 113.514 119.815C113.752 119.859 113.983 119.884 114.221 119.946Z" fill="white"/>
<path d="M183.185 136.495C183.663 136.337 184.175 136.311 184.667 136.42C184.934 136.519 185.166 136.697 185.33 136.93C185.494 137.164 185.583 137.442 185.586 137.727C185.584 137.916 185.63 138.103 185.72 138.271C185.81 138.438 185.94 138.58 186.098 138.683C186.274 138.797 186.477 138.862 186.686 138.871C186.917 138.921 187.155 138.946 187.386 139.008C186.909 139.177 186.393 139.196 185.905 139.065C185.644 138.954 185.421 138.768 185.266 138.531C185.11 138.294 185.028 138.017 185.029 137.733C185.026 137.546 184.976 137.362 184.881 137.2C184.787 137.038 184.653 136.903 184.492 136.808C184.304 136.693 184.087 136.632 183.867 136.633C183.654 136.583 183.423 136.558 183.185 136.495Z" fill="white"/>
<path d="M207.892 146.936C208.368 146.778 208.877 146.752 209.367 146.861C209.634 146.959 209.866 147.136 210.031 147.368C210.196 147.6 210.287 147.876 210.292 148.161C210.288 148.351 210.332 148.54 210.421 148.708C210.509 148.877 210.639 149.02 210.799 149.124C210.974 149.238 211.177 149.303 211.386 149.311C211.624 149.355 211.855 149.386 212.093 149.449C211.613 149.613 211.096 149.632 210.605 149.505C210.345 149.394 210.123 149.208 209.969 148.971C209.814 148.734 209.733 148.457 209.736 148.174C209.731 147.985 209.678 147.801 209.583 147.638C209.488 147.476 209.353 147.339 209.192 147.242C209.002 147.132 208.786 147.074 208.567 147.073C208.385 147.023 208.148 146.998 207.892 146.936Z" fill="white"/>
<path d="M159.834 153.706C160.312 153.548 160.824 153.522 161.316 153.631C161.588 153.73 161.824 153.91 161.992 154.147C162.159 154.384 162.251 154.666 162.253 154.957C162.249 155.146 162.294 155.333 162.383 155.5C162.471 155.668 162.601 155.81 162.76 155.913C162.935 156.027 163.138 156.092 163.348 156.101C163.585 156.151 163.816 156.176 164.054 156.238C163.575 156.405 163.056 156.425 162.566 156.294C162.306 156.183 162.084 155.997 161.93 155.76C161.775 155.523 161.694 155.246 161.697 154.963C161.692 154.775 161.639 154.592 161.544 154.43C161.449 154.268 161.314 154.133 161.153 154.037C160.965 153.922 160.749 153.862 160.528 153.862C160.303 153.812 160.065 153.781 159.834 153.706Z" fill="white"/>
<path d="M132.726 119.359C133.204 119.201 133.716 119.175 134.208 119.284C134.474 119.384 134.705 119.563 134.869 119.796C135.032 120.029 135.122 120.306 135.127 120.591C135.125 120.78 135.171 120.967 135.261 121.134C135.351 121.301 135.481 121.443 135.639 121.547C135.814 121.663 136.017 121.73 136.227 121.741C136.458 121.785 136.696 121.81 136.934 121.872C136.455 122.042 135.936 122.061 135.446 121.928C135.186 121.818 134.966 121.633 134.811 121.397C134.656 121.161 134.575 120.885 134.577 120.603C134.572 120.414 134.52 120.23 134.425 120.067C134.33 119.904 134.195 119.768 134.033 119.672C133.843 119.559 133.628 119.499 133.408 119.497C133.201 119.453 132.964 119.421 132.726 119.359Z" fill="white"/>
<path d="M191.299 152.356C191.078 152.807 190.736 153.188 190.311 153.456C190.052 153.575 189.763 153.613 189.482 153.565C189.201 153.517 188.941 153.385 188.736 153.187C188.603 153.052 188.439 152.951 188.257 152.895C188.076 152.84 187.884 152.831 187.698 152.869C187.493 152.912 187.303 153.009 187.148 153.15C186.948 153.281 186.766 153.431 186.554 153.55C186.823 153.169 187.023 152.7 187.567 152.462C187.829 152.356 188.117 152.331 188.394 152.389C188.671 152.447 188.925 152.585 189.123 152.787C189.259 152.917 189.425 153.011 189.607 153.059C189.788 153.107 189.979 153.108 190.161 153.062C190.365 153.01 190.552 152.907 190.705 152.762C190.905 152.625 191.093 152.456 191.299 152.356Z" fill="white"/>
<path d="M161.591 140.578C161.37 141.031 161.025 141.412 160.597 141.678C160.339 141.796 160.051 141.834 159.771 141.786C159.491 141.738 159.232 141.606 159.028 141.409C158.896 141.273 158.731 141.173 158.55 141.117C158.369 141.061 158.176 141.052 157.99 141.09C157.785 141.134 157.595 141.231 157.44 141.372C157.24 141.503 157.053 141.653 156.846 141.772C157.115 141.39 157.315 140.921 157.853 140.684C158.115 140.578 158.403 140.553 158.68 140.61C158.957 140.668 159.211 140.807 159.409 141.009C159.546 141.139 159.714 141.232 159.896 141.28C160.079 141.328 160.27 141.329 160.453 141.284C160.657 141.231 160.844 141.128 160.997 140.984C161.197 140.871 161.379 140.728 161.591 140.578Z" fill="white"/>
<path d="M176.039 147.029C175.816 147.479 175.474 147.86 175.051 148.13C174.791 148.248 174.502 148.286 174.22 148.236C173.939 148.187 173.679 148.054 173.475 147.855C173.343 147.718 173.179 147.618 172.997 147.563C172.815 147.509 172.623 147.501 172.438 147.542C172.232 147.583 172.041 147.68 171.887 147.823C171.687 147.955 171.506 148.105 171.262 148.223C171.531 147.842 171.731 147.373 172.275 147.136C172.537 147.031 172.824 147.005 173.101 147.062C173.378 147.118 173.632 147.255 173.832 147.454C173.966 147.586 174.132 147.681 174.314 147.729C174.496 147.777 174.687 147.777 174.869 147.73C175.075 147.678 175.265 147.575 175.42 147.429C175.645 147.298 175.832 147.148 176.039 147.029Z" fill="white"/>
<path d="M194.726 125.792C194.5 126.242 194.157 126.623 193.731 126.892C193.472 127.011 193.183 127.049 192.902 127.001C192.621 126.953 192.361 126.821 192.156 126.623C192.024 126.487 191.86 126.386 191.678 126.331C191.497 126.275 191.304 126.266 191.118 126.305C190.914 126.351 190.725 126.448 190.568 126.586C190.374 126.717 190.187 126.867 189.943 126.986C190.218 126.605 190.412 126.136 190.956 125.898C191.218 125.793 191.506 125.767 191.783 125.825C192.06 125.883 192.314 126.021 192.512 126.223C192.648 126.353 192.814 126.446 192.996 126.494C193.177 126.542 193.368 126.544 193.55 126.498C193.768 126.449 193.97 126.346 194.138 126.198C194.332 126.061 194.513 125.917 194.726 125.792Z" fill="white"/>
<path d="M123.423 124.323C123.581 124.801 123.607 125.313 123.498 125.804C123.398 126.071 123.219 126.301 122.986 126.465C122.753 126.629 122.476 126.719 122.191 126.723C122.002 126.722 121.815 126.768 121.648 126.858C121.481 126.947 121.339 127.077 121.235 127.236C121.119 127.411 121.052 127.614 121.041 127.824C120.997 128.055 120.972 128.293 120.91 128.53C120.74 128.051 120.721 127.533 120.854 127.042C120.964 126.783 121.149 126.562 121.385 126.408C121.621 126.253 121.897 126.172 122.179 126.173C122.367 126.168 122.551 126.115 122.714 126.02C122.877 125.925 123.013 125.791 123.11 125.629C123.223 125.44 123.283 125.224 123.286 125.004C123.329 124.779 123.354 124.542 123.423 124.323Z" fill="white"/>
<path d="M198.839 142.278C198.997 142.756 199.023 143.268 198.914 143.76C198.815 144.027 198.636 144.257 198.403 144.421C198.17 144.585 197.893 144.675 197.607 144.679C197.417 144.675 197.23 144.72 197.062 144.81C196.895 144.899 196.753 145.031 196.651 145.191C196.536 145.364 196.471 145.565 196.463 145.773C196.413 146.01 196.388 146.242 196.326 146.479C196.158 146.002 196.138 145.486 196.27 144.997C196.381 144.736 196.566 144.514 196.803 144.358C197.04 144.203 197.318 144.12 197.601 144.122C197.789 144.118 197.973 144.066 198.135 143.971C198.297 143.875 198.432 143.74 198.527 143.578C198.637 143.4 198.698 143.194 198.702 142.984C198.745 142.747 198.777 142.509 198.839 142.278Z" fill="white"/>
<path d="M177.664 157.826C177.823 158.304 177.848 158.816 177.74 159.308C177.641 159.575 177.463 159.807 177.229 159.971C176.996 160.135 176.718 160.224 176.433 160.227C176.243 160.225 176.056 160.271 175.889 160.361C175.722 160.451 175.58 160.581 175.476 160.74C175.362 160.915 175.298 161.118 175.289 161.327C175.239 161.559 175.214 161.796 175.151 162.034C174.984 161.554 174.965 161.036 175.095 160.546C175.206 160.285 175.392 160.064 175.629 159.909C175.866 159.755 176.144 159.674 176.427 159.677C176.614 159.671 176.797 159.619 176.959 159.524C177.121 159.429 177.256 159.294 177.352 159.133C177.467 158.945 177.528 158.728 177.527 158.508C177.577 158.301 177.602 158.082 177.664 157.826Z" fill="white"/>
<path d="M173.963 131.556C174.121 132.034 174.147 132.546 174.038 133.038C173.939 133.305 173.761 133.537 173.528 133.701C173.295 133.865 173.017 133.954 172.732 133.957C172.542 133.955 172.355 134.001 172.188 134.091C172.021 134.181 171.879 134.311 171.775 134.47C171.661 134.645 171.596 134.848 171.587 135.057C171.537 135.289 171.512 135.526 171.45 135.757C171.282 135.281 171.262 134.764 171.394 134.276C171.505 134.015 171.69 133.792 171.927 133.637C172.164 133.481 172.442 133.399 172.725 133.4C172.913 133.398 173.096 133.347 173.258 133.252C173.42 133.158 173.555 133.024 173.651 132.863C173.766 132.675 173.826 132.458 173.826 132.238C173.876 132.025 173.901 131.825 173.963 131.556Z" fill="white"/>
<path d="M149.518 129.456C149.679 129.933 149.705 130.446 149.593 130.937C149.495 131.204 149.318 131.434 149.086 131.598C148.853 131.763 148.577 131.852 148.293 131.856C148.102 131.855 147.914 131.901 147.746 131.99C147.578 132.08 147.435 132.21 147.33 132.369C147.216 132.544 147.151 132.747 147.142 132.957C147.099 133.188 147.067 133.425 147.005 133.657C146.841 133.179 146.821 132.664 146.949 132.175C147.06 131.915 147.246 131.693 147.483 131.537C147.72 131.382 147.997 131.299 148.28 131.3C148.469 131.297 148.653 131.247 148.816 131.153C148.979 131.058 149.116 130.924 149.212 130.762C149.322 130.572 149.38 130.357 149.381 130.137C149.431 129.949 149.456 129.693 149.518 129.456Z" fill="white"/>
<path d="M134.608 145.891C134.56 145.863 134.516 145.829 134.477 145.791C134.477 145.71 134.508 145.629 134.533 145.541C134.552 145.666 134.583 145.779 134.608 145.891Z" fill="white"/>
<path d="M132.182 134.888C132.408 134.439 132.752 134.059 133.176 133.788C133.436 133.671 133.725 133.635 134.006 133.684C134.286 133.733 134.546 133.865 134.751 134.063C134.959 134.272 135.241 134.393 135.536 134.399C135.831 134.404 136.117 134.295 136.333 134.094C136.533 133.963 136.72 133.819 136.958 133.694C136.683 134.076 136.489 134.545 135.945 134.782C135.683 134.887 135.396 134.913 135.119 134.856C134.842 134.799 134.588 134.663 134.389 134.463C134.253 134.332 134.085 134.237 133.903 134.189C133.72 134.141 133.527 134.14 133.344 134.188C133.14 134.238 132.952 134.342 132.801 134.488C132.576 134.62 132.394 134.77 132.182 134.888Z" fill="white"/>
<path d="M208.517 152.612C207.211 150.705 205.51 149.011 204.022 147.242C202.534 145.473 200.896 143.66 199.277 141.89C196.151 138.452 192.938 135.113 189.706 131.787C187.83 129.849 185.873 127.992 183.966 126.073C183.898 126.004 183.779 126.117 183.841 126.192C186.923 129.774 189.956 133.375 193.113 136.889C196.27 140.402 199.365 143.766 202.609 147.067C203.535 148.017 204.485 148.942 205.435 149.868C206.364 150.879 207.349 151.837 208.386 152.737C208.455 152.8 208.567 152.694 208.517 152.612Z" fill="#263238"/>
<path opacity="0.1" d="M179.703 163.484C174.213 164.922 169.343 165.616 166.167 164.891C158.515 163.134 145.799 155.05 134.608 145.892C134.561 145.863 134.517 145.83 134.477 145.791C127.737 140.265 121.56 134.363 117.397 129.23C113.789 124.798 112.07 121.403 111.908 119.015C111.867 118.569 111.899 118.119 112.001 117.683C112.401 115.958 113.939 114.989 116.378 114.757L179.703 163.484Z" fill="black"/>
<path d="M141.135 163.753L147.055 197.301H76.1343C78.1536 164.503 97.1842 128.63 105.574 118.409C109.775 113.288 118.078 112.194 124.373 116.371C125.868 117.358 143.267 143.028 144.692 146.773C147.53 154.157 141.135 163.753 141.135 163.753Z" fill="#6A82FB"/>
<path d="M117.616 138.702C118.094 138.544 118.606 138.518 119.097 138.627C119.364 138.728 119.593 138.906 119.757 139.139C119.921 139.372 120.011 139.649 120.016 139.933C120.013 140.229 120.126 140.515 120.33 140.729C120.535 140.942 120.815 141.068 121.11 141.077C121.348 141.127 121.579 141.152 121.817 141.215C121.338 141.384 120.819 141.404 120.329 141.271C120.07 141.16 119.849 140.976 119.694 140.74C119.54 140.504 119.458 140.228 119.46 139.946C119.456 139.757 119.404 139.573 119.308 139.41C119.213 139.247 119.078 139.111 118.916 139.014C118.727 138.902 118.511 138.842 118.291 138.839C118.085 138.777 117.866 138.746 117.616 138.702Z" fill="white"/>
<path d="M122.242 168.086C122.72 167.927 123.232 167.902 123.724 168.011C123.991 168.111 124.221 168.289 124.385 168.522C124.549 168.755 124.639 169.032 124.643 169.317C124.641 169.507 124.687 169.694 124.777 169.861C124.867 170.028 124.997 170.17 125.156 170.274C125.331 170.388 125.534 170.452 125.743 170.461C125.975 170.511 126.212 170.536 126.443 170.599C125.967 170.767 125.45 170.786 124.962 170.655C124.7 170.545 124.478 170.36 124.323 170.122C124.168 169.885 124.088 169.607 124.093 169.323C124.087 169.136 124.035 168.953 123.94 168.791C123.845 168.629 123.71 168.494 123.549 168.398C123.361 168.283 123.144 168.222 122.924 168.223C122.692 168.204 122.461 168.173 122.242 168.086Z" fill="white"/>
<path d="M104.843 148.492C105.32 148.329 105.833 148.301 106.325 148.411C106.591 148.512 106.821 148.69 106.985 148.923C107.148 149.156 107.239 149.433 107.244 149.717C107.241 149.907 107.286 150.095 107.376 150.262C107.466 150.43 107.597 150.571 107.757 150.674C107.929 150.791 108.13 150.858 108.338 150.868C108.576 150.911 108.807 150.936 109.044 150.999C108.568 151.167 108.051 151.187 107.563 151.055C107.302 150.945 107.08 150.761 106.925 150.525C106.769 150.289 106.686 150.013 106.688 149.73C106.684 149.541 106.632 149.356 106.537 149.193C106.442 149.03 106.306 148.894 106.144 148.798C105.963 148.691 105.759 148.631 105.55 148.623C105.312 148.58 105.081 148.555 104.843 148.492Z" fill="white"/>
<path d="M95.4214 178.626C95.8973 178.468 96.4073 178.442 96.8968 178.551C97.1649 178.649 97.3967 178.827 97.5609 179.061C97.7252 179.294 97.8141 179.572 97.8158 179.858C97.8143 180.047 97.8604 180.234 97.95 180.401C98.0396 180.569 98.1697 180.711 98.3285 180.814C98.5041 180.928 98.707 180.993 98.9162 181.002C99.1475 181.052 99.3851 181.077 99.6226 181.139C99.1434 181.306 98.6251 181.326 98.1347 181.196C97.8744 181.084 97.653 180.899 97.4983 180.662C97.3436 180.425 97.2627 180.147 97.2657 179.864C97.2604 179.676 97.2077 179.493 97.1126 179.331C97.0175 179.17 96.8831 179.035 96.7218 178.939C96.5337 178.823 96.3172 178.763 96.0966 178.764C95.8903 178.714 95.6527 178.714 95.4214 178.626Z" fill="white"/>
<path d="M137.828 193.262C138.306 193.104 138.818 193.078 139.31 193.187C139.576 193.287 139.807 193.465 139.971 193.699C140.135 193.932 140.225 194.209 140.229 194.493C140.227 194.683 140.273 194.87 140.363 195.037C140.453 195.204 140.583 195.346 140.741 195.45C140.917 195.564 141.12 195.629 141.329 195.638C141.56 195.688 141.798 195.713 142.036 195.775C141.556 195.942 141.038 195.962 140.548 195.831C140.287 195.72 140.066 195.534 139.911 195.297C139.757 195.06 139.676 194.783 139.679 194.5C139.673 194.312 139.621 194.129 139.526 193.967C139.431 193.805 139.296 193.67 139.135 193.574C138.947 193.459 138.73 193.399 138.51 193.399C138.303 193.356 138.066 193.324 137.828 193.262Z" fill="white"/>
<path d="M79.8732 182.552C79.394 182.719 78.8757 182.738 78.3852 182.608C78.2817 182.569 78.1847 182.514 78.0977 182.445C78.1289 182.239 78.1727 182.039 78.2164 181.82C78.3028 181.98 78.4274 182.115 78.5791 182.214C78.7546 182.328 78.9576 182.393 79.1667 182.402C79.4043 182.464 79.6356 182.464 79.8732 182.552Z" fill="white"/>
<path d="M110.02 117.446C110.496 117.282 111.009 117.254 111.501 117.364C111.767 117.465 111.997 117.644 112.161 117.877C112.325 118.11 112.415 118.386 112.42 118.671C112.416 118.86 112.46 119.048 112.549 119.215C112.637 119.383 112.767 119.525 112.927 119.628C113.102 119.743 113.305 119.81 113.514 119.821C113.752 119.865 113.983 119.89 114.221 119.953C113.744 120.121 113.227 120.14 112.739 120.009C112.478 119.9 112.256 119.715 112.1 119.479C111.944 119.243 111.862 118.966 111.864 118.683C111.86 118.495 111.808 118.31 111.713 118.147C111.618 117.984 111.483 117.848 111.32 117.752C111.131 117.64 110.915 117.579 110.695 117.577C110.488 117.527 110.251 117.502 110.02 117.446Z" fill="white"/>
<path d="M135.227 159.958C135.004 160.409 134.662 160.789 134.239 161.059C133.979 161.178 133.69 161.215 133.408 161.166C133.127 161.117 132.867 160.983 132.663 160.784C132.531 160.648 132.367 160.547 132.185 160.493C132.003 160.438 131.811 160.43 131.626 160.471C131.42 160.512 131.229 160.609 131.075 160.752C130.875 160.884 130.694 161.034 130.481 161.153C130.75 160.771 130.95 160.302 131.494 160.065C131.756 159.96 132.044 159.934 132.32 159.991C132.597 160.048 132.851 160.184 133.051 160.384C133.185 160.515 133.352 160.61 133.534 160.658C133.715 160.706 133.907 160.707 134.089 160.659C134.293 160.609 134.481 160.505 134.633 160.359C134.833 160.202 135.02 160.052 135.227 159.958Z" fill="white"/>
<path d="M89.6448 150.543C89.418 150.992 89.0747 151.372 88.6507 151.643C88.4736 151.722 88.2819 151.763 88.0881 151.763C87.8942 151.763 87.7025 151.722 87.5254 151.643C87.5942 151.474 87.6567 151.306 87.7317 151.137C87.9698 151.255 88.2412 151.288 88.5007 151.231C88.7062 151.175 88.895 151.07 89.0508 150.924C89.2509 150.806 89.4385 150.662 89.6448 150.543Z" fill="white"/>
<path d="M89.6446 170.78C89.4215 171.232 89.0774 171.613 88.6505 171.88C88.3922 171.998 88.1044 172.036 87.8244 171.988C87.5445 171.94 87.2855 171.809 87.0813 171.611C86.9489 171.475 86.7845 171.375 86.6031 171.319C86.4218 171.264 86.2293 171.254 86.0435 171.292C85.8385 171.336 85.6487 171.433 85.4933 171.574C85.2933 171.705 85.1057 171.855 84.8994 171.974C85.1682 171.593 85.3683 171.124 85.906 170.886C86.1685 170.78 86.4565 170.755 86.7336 170.813C87.0107 170.87 87.2644 171.009 87.4627 171.211C87.5997 171.341 87.7671 171.434 87.9496 171.482C88.132 171.53 88.3236 171.532 88.5067 171.486C88.711 171.432 88.8981 171.326 89.0506 171.18C89.2507 171.049 89.432 170.905 89.6446 170.78Z" fill="white"/>
<path d="M109.306 191.217C109.081 191.668 108.737 192.048 108.312 192.318C108.052 192.436 107.763 192.474 107.482 192.424C107.2 192.375 106.941 192.242 106.737 192.043C106.605 191.906 106.44 191.806 106.258 191.751C106.077 191.697 105.884 191.689 105.699 191.73C105.493 191.772 105.303 191.87 105.149 192.011C104.955 192.143 104.767 192.293 104.555 192.411C104.83 192.03 105.024 191.561 105.567 191.324C105.83 191.219 106.117 191.193 106.394 191.25C106.67 191.306 106.924 191.443 107.124 191.642C107.259 191.774 107.425 191.868 107.607 191.916C107.789 191.964 107.98 191.965 108.162 191.917C108.368 191.866 108.557 191.763 108.712 191.617C108.906 191.499 109.112 191.349 109.306 191.217Z" fill="white"/>
<path d="M110.782 166.416C110.555 166.866 110.212 167.246 109.788 167.517C109.529 167.634 109.241 167.671 108.961 167.622C108.681 167.572 108.422 167.44 108.219 167.242C108.009 167.034 107.727 166.914 107.432 166.907C107.137 166.9 106.85 167.007 106.631 167.204C106.43 167.342 106.243 167.486 106.037 167.611C106.305 167.229 106.499 166.76 107.043 166.523C107.305 166.415 107.593 166.387 107.87 166.444C108.148 166.501 108.402 166.639 108.6 166.842C108.737 166.971 108.904 167.064 109.087 167.113C109.269 167.161 109.461 167.162 109.644 167.117C109.848 167.064 110.035 166.961 110.188 166.817C110.363 166.679 110.569 166.535 110.782 166.416Z" fill="white"/>
<path d="M127.45 187.028C127.221 187.476 126.878 187.856 126.456 188.129C126.196 188.247 125.906 188.285 125.625 188.235C125.344 188.186 125.084 188.053 124.88 187.854C124.748 187.717 124.584 187.617 124.402 187.562C124.22 187.508 124.028 187.5 123.842 187.541C123.636 187.582 123.446 187.679 123.292 187.822C123.092 187.954 122.911 188.097 122.667 188.222C122.936 187.841 123.136 187.372 123.68 187.135C123.942 187.03 124.229 187.004 124.506 187.061C124.783 187.117 125.037 187.254 125.236 187.453C125.371 187.585 125.537 187.68 125.719 187.728C125.901 187.776 126.092 187.776 126.274 187.729C126.48 187.677 126.67 187.574 126.824 187.428C127.05 187.297 127.243 187.147 127.45 187.028Z" fill="white"/>
<path d="M123.423 124.323C123.581 124.801 123.607 125.313 123.498 125.804C123.398 126.071 123.219 126.301 122.986 126.465C122.753 126.629 122.476 126.719 122.191 126.723C122.002 126.722 121.815 126.768 121.648 126.858C121.481 126.947 121.339 127.077 121.235 127.236C121.119 127.411 121.052 127.614 121.041 127.824C120.997 128.055 120.972 128.293 120.91 128.53C120.74 128.051 120.721 127.533 120.854 127.042C120.964 126.783 121.149 126.562 121.385 126.408C121.621 126.253 121.897 126.172 122.179 126.173C122.367 126.168 122.551 126.115 122.714 126.02C122.877 125.925 123.013 125.791 123.11 125.629C123.223 125.44 123.283 125.224 123.286 125.004C123.329 124.779 123.354 124.542 123.423 124.323Z" fill="white"/>
<path d="M137.246 176.775C137.409 177.252 137.437 177.765 137.327 178.257C137.226 178.523 137.048 178.753 136.815 178.917C136.582 179.081 136.305 179.171 136.021 179.176C135.831 179.174 135.644 179.22 135.476 179.309C135.309 179.399 135.167 179.53 135.064 179.689C134.948 179.864 134.881 180.067 134.87 180.276C134.826 180.508 134.801 180.745 134.739 180.977C134.571 180.5 134.551 179.983 134.683 179.495C134.792 179.234 134.976 179.011 135.212 178.856C135.448 178.7 135.725 178.618 136.008 178.62C136.196 178.617 136.381 178.567 136.544 178.472C136.707 178.378 136.843 178.244 136.94 178.082C137.052 177.893 137.112 177.677 137.115 177.457C137.133 177.244 137.158 177.013 137.246 176.775Z" fill="white"/>
<path d="M134.533 145.541C134.694 146.019 134.72 146.531 134.608 147.023C134.509 147.289 134.331 147.519 134.099 147.683C133.867 147.847 133.591 147.937 133.307 147.942C133.117 147.939 132.929 147.985 132.76 148.074C132.592 148.164 132.449 148.295 132.345 148.454C132.23 148.63 132.165 148.833 132.157 149.042C132.113 149.273 132.082 149.511 132.02 149.742C131.856 149.265 131.836 148.749 131.963 148.261C132.074 148 132.26 147.777 132.497 147.622C132.734 147.466 133.011 147.384 133.295 147.385C133.484 147.382 133.668 147.33 133.831 147.235C133.995 147.139 134.13 147.004 134.226 146.841C134.331 146.661 134.39 146.456 134.395 146.247C134.445 146.01 134.47 145.779 134.533 145.541Z" fill="white"/>
<path d="M120.278 153.562C120.439 154.04 120.467 154.552 120.36 155.044C120.259 155.31 120.08 155.54 119.847 155.703C119.614 155.867 119.338 155.958 119.053 155.963C118.757 155.964 118.473 156.079 118.259 156.284C118.045 156.488 117.917 156.767 117.903 157.063C117.859 157.294 117.828 157.532 117.765 157.763C117.599 157.286 117.582 156.769 117.715 156.282C117.824 156.021 118.009 155.798 118.245 155.642C118.481 155.486 118.758 155.404 119.041 155.406C119.229 155.404 119.413 155.353 119.577 155.259C119.74 155.165 119.876 155.03 119.972 154.869C120.08 154.677 120.14 154.463 120.147 154.243C120.191 154.031 120.216 153.8 120.278 153.562Z" fill="white"/>
<path d="M88.5259 187.641C88.684 188.119 88.7099 188.631 88.601 189.123C88.5013 189.39 88.3232 189.621 88.09 189.785C87.8568 189.949 87.5794 190.038 87.2943 190.042C87.1045 190.039 86.9171 190.085 86.7498 190.174C86.5824 190.264 86.4407 190.395 86.3378 190.554C86.2237 190.728 86.1589 190.929 86.1503 191.136C86.1065 191.373 86.0752 191.611 86.0127 191.842C85.8488 191.365 85.8292 190.849 85.9565 190.361C86.0674 190.1 86.253 189.877 86.4899 189.722C86.7269 189.566 87.0046 189.484 87.2881 189.485C87.4769 189.482 87.6615 189.43 87.8246 189.335C87.9876 189.239 88.1236 189.104 88.2196 188.941C88.3246 188.761 88.3827 188.557 88.3884 188.348C88.4384 188.091 88.4822 187.879 88.5259 187.641Z" fill="white"/>
<path d="M98.7721 138.502C98.9322 138.979 98.9603 139.491 98.8534 139.984C98.7523 140.25 98.5738 140.48 98.3409 140.643C98.108 140.807 97.8314 140.897 97.5467 140.903C97.2507 140.901 96.9655 141.014 96.7509 141.218C96.5364 141.422 96.4093 141.701 96.3964 141.997C96.3527 142.234 96.3214 142.466 96.2589 142.703C96.0928 142.226 96.0754 141.709 96.2089 141.222C96.318 140.961 96.5023 140.738 96.7383 140.582C96.9744 140.426 97.2514 140.344 97.5342 140.346C97.723 140.343 97.9077 140.291 98.0708 140.195C98.2338 140.1 98.3698 139.965 98.4658 139.802C98.5708 139.622 98.6288 139.417 98.6346 139.208C98.6846 138.971 98.7096 138.733 98.7721 138.502Z" fill="white"/>
<path d="M98.7728 159.064C98.9329 159.542 98.961 160.053 98.8541 160.546C98.753 160.812 98.5745 161.042 98.3416 161.205C98.1087 161.369 97.8321 161.46 97.5474 161.465C97.2514 161.463 96.9661 161.576 96.7516 161.78C96.5371 161.984 96.41 162.263 96.3971 162.559C96.3533 162.796 96.3221 163.028 96.2596 163.265C96.0945 162.785 96.0771 162.267 96.2096 161.777C96.319 161.517 96.5035 161.295 96.7396 161.141C96.9757 160.986 97.2526 160.905 97.5349 160.908C97.7233 160.903 97.9073 160.85 98.0701 160.755C98.2329 160.66 98.3692 160.526 98.4665 160.364C98.5766 160.174 98.6349 159.959 98.6353 159.739C98.6853 159.533 98.7103 159.295 98.7728 159.064Z" fill="white"/>
<path d="M115.302 176.775C115.46 177.254 115.486 177.765 115.377 178.257C115.277 178.524 115.099 178.755 114.866 178.919C114.633 179.083 114.355 179.173 114.07 179.176C113.881 179.175 113.694 179.221 113.527 179.31C113.36 179.4 113.218 179.53 113.114 179.689C113 179.864 112.935 180.067 112.926 180.276C112.876 180.508 112.851 180.745 112.789 180.977C112.621 180.5 112.601 179.983 112.732 179.495C112.843 179.234 113.029 179.012 113.266 178.856C113.503 178.7 113.781 178.618 114.064 178.62C114.251 178.617 114.435 178.566 114.597 178.472C114.759 178.378 114.894 178.243 114.989 178.082C115.103 177.893 115.164 177.677 115.164 177.457C115.208 177.244 115.239 177.013 115.302 176.775Z" fill="white"/>
<path d="M132.182 134.888C132.408 134.439 132.752 134.059 133.176 133.788C133.436 133.671 133.725 133.635 134.006 133.684C134.286 133.733 134.546 133.865 134.751 134.063C134.959 134.272 135.241 134.393 135.536 134.399C135.831 134.404 136.117 134.295 136.333 134.094C136.533 133.963 136.72 133.819 136.958 133.694C136.683 134.076 136.489 134.545 135.945 134.782C135.683 134.887 135.396 134.913 135.119 134.856C134.842 134.799 134.588 134.663 134.389 134.463C134.253 134.332 134.085 134.237 133.903 134.189C133.72 134.141 133.527 134.14 133.344 134.188C133.14 134.238 132.952 134.342 132.801 134.488C132.576 134.62 132.394 134.77 132.182 134.888Z" fill="white"/>
<path d="M106.931 132.788C107.156 132.337 107.499 131.957 107.925 131.687C108.183 131.568 108.472 131.531 108.752 131.58C109.033 131.629 109.291 131.763 109.494 131.963C109.626 132.099 109.791 132.199 109.972 132.254C110.154 132.308 110.346 132.316 110.532 132.275C110.738 132.234 110.928 132.137 111.082 131.994C111.282 131.862 111.47 131.719 111.676 131.594C111.407 131.975 111.207 132.444 110.669 132.681C110.407 132.786 110.12 132.812 109.843 132.755C109.566 132.699 109.312 132.562 109.113 132.363C108.977 132.231 108.809 132.137 108.626 132.089C108.444 132.041 108.252 132.04 108.069 132.088C107.864 132.138 107.676 132.241 107.525 132.388C107.325 132.519 107.143 132.669 106.931 132.788Z" fill="white"/>
<path d="M102.036 121.616C92.6081 129.399 58.7356 158.226 60.7737 168.461C62.8243 178.826 70.6704 187.216 76.7034 181.402C81.7049 176.632 103.786 141.228 107.794 131.762C111.614 122.747 111.301 113.963 102.036 121.616Z" fill="#DD6A57"/>
<path d="M59.9111 165.585C59.9111 172.762 64.7188 186.291 74.0528 183.772C80.1671 182.127 105.525 140.328 109.613 130.412C114.346 118.928 110.238 114.414 101.486 121.184C92.7333 127.955 59.9236 155.338 59.9111 165.585Z" fill="#6A82FB"/>
<path d="M86.2436 135.532C85.7667 135.7 85.2501 135.72 84.7619 135.588C84.6873 135.558 84.6161 135.52 84.5493 135.476C84.6718 135.378 84.7887 135.274 84.8994 135.163L84.9557 135.207C85.1294 135.32 85.3301 135.385 85.5371 135.394C85.7747 135.444 86.0122 135.476 86.2436 135.532Z" fill="white"/>
<path d="M74.9087 159.908C75.3868 159.75 75.8988 159.724 76.3904 159.833C76.658 159.932 76.8892 160.11 77.0534 160.343C77.2175 160.576 77.3068 160.854 77.3094 161.139C77.3079 161.329 77.354 161.516 77.4436 161.683C77.5332 161.85 77.6633 161.992 77.8221 162.096C77.9976 162.21 78.2006 162.275 78.4097 162.284C78.641 162.334 78.8786 162.359 79.1099 162.421C78.6331 162.589 78.1165 162.609 77.6282 162.477C77.3673 162.366 77.145 162.181 76.9893 161.944C76.8335 161.707 76.7513 161.429 76.753 161.146C76.7501 160.958 76.6991 160.775 76.605 160.613C76.5109 160.451 76.3767 160.316 76.2153 160.22C76.0267 160.106 75.8106 160.046 75.5901 160.045C75.3526 159.995 75.1463 159.958 74.9087 159.908Z" fill="white"/>
<path d="M77.9033 180.646C77.7658 180.796 77.6282 180.946 77.4907 181.083C77.4597 180.931 77.3977 180.787 77.3084 180.66C77.2191 180.533 77.1045 180.426 76.9718 180.346C76.7818 180.236 76.5662 180.177 76.3466 180.177C76.1153 180.133 75.8777 180.102 75.6401 180.039C76.1183 179.882 76.6302 179.856 77.1218 179.964C77.2912 180.02 77.4477 180.108 77.582 180.226C77.7162 180.343 77.8255 180.486 77.9033 180.646Z" fill="white"/>
<path d="M89.6446 150.543C89.4196 150.993 89.0759 151.374 88.6505 151.643C88.392 151.762 88.1033 151.8 87.823 151.751C87.5426 151.702 87.2839 151.568 87.0813 151.368C86.9493 151.232 86.7847 151.132 86.603 151.077C86.4214 151.022 86.2288 151.015 86.0435 151.056C85.8376 151.097 85.6471 151.194 85.4933 151.337C85.2933 151.468 85.1057 151.612 84.8994 151.737C85.1682 151.356 85.3683 150.887 85.906 150.649C86.1682 150.544 86.4554 150.519 86.7321 150.575C87.0088 150.632 87.2628 150.769 87.4627 150.968C87.5987 151.099 87.7661 151.193 87.9489 151.242C88.1316 151.29 88.3237 151.29 88.5067 151.243C88.7114 151.193 88.8992 151.09 89.0506 150.943C89.2507 150.812 89.432 150.662 89.6446 150.543Z" fill="white"/>
<path d="M100.184 123.072C100.343 123.548 100.369 124.058 100.259 124.548C100.162 124.815 99.9859 125.047 99.7534 125.211C99.521 125.375 99.2438 125.465 98.9591 125.467C98.7685 125.465 98.5805 125.511 98.4123 125.6C98.2441 125.69 98.101 125.82 97.9963 125.979C97.8823 126.155 97.8176 126.358 97.8088 126.567C97.765 126.805 97.7338 127.036 97.6712 127.274C97.5075 126.794 97.488 126.276 97.615 125.786C97.7262 125.525 97.912 125.304 98.1491 125.149C98.3861 124.995 98.6636 124.914 98.9466 124.917C99.135 124.911 99.319 124.859 99.4818 124.763C99.6446 124.668 99.7808 124.534 99.8781 124.373C99.9883 124.183 100.047 123.967 100.047 123.747C100.097 123.541 100.122 123.304 100.184 123.072Z" fill="white"/>
<path d="M98.7721 138.502C98.9322 138.979 98.9603 139.491 98.8534 139.984C98.7523 140.25 98.5738 140.48 98.3409 140.643C98.108 140.807 97.8314 140.897 97.5467 140.903C97.2507 140.901 96.9655 141.014 96.7509 141.218C96.5364 141.422 96.4093 141.701 96.3964 141.997C96.3527 142.234 96.3214 142.466 96.2589 142.703C96.0928 142.226 96.0754 141.709 96.2089 141.222C96.318 140.961 96.5023 140.738 96.7383 140.582C96.9744 140.426 97.2514 140.344 97.5342 140.346C97.723 140.343 97.9077 140.291 98.0708 140.195C98.2338 140.1 98.3698 139.965 98.4658 139.802C98.5708 139.622 98.6288 139.417 98.6346 139.208C98.6846 138.971 98.7096 138.733 98.7721 138.502Z" fill="white"/>
<path d="M69.1503 171.393C69.3083 171.871 69.3343 172.383 69.2253 172.874C69.1268 173.141 68.9498 173.371 68.7177 173.535C68.4856 173.7 68.2092 173.789 67.9249 173.793C67.7344 173.791 67.5463 173.837 67.3781 173.927C67.2099 174.016 67.0669 174.147 66.9622 174.306C66.8482 174.481 66.7834 174.684 66.7746 174.894C66.7308 175.125 66.6996 175.362 66.6371 175.6C66.4733 175.12 66.4538 174.603 66.5808 174.112C66.692 173.852 66.8779 173.63 67.1149 173.476C67.3519 173.321 67.6294 173.24 67.9124 173.243C68.1008 173.238 68.2849 173.185 68.4476 173.09C68.6104 172.995 68.7467 172.861 68.844 172.699C68.9542 172.509 69.0124 172.294 69.0128 172.074C69.0628 171.868 69.1003 171.63 69.1503 171.393Z" fill="white"/>
<path d="M109.063 131.675C108.994 131.831 108.913 132 108.831 132.169C108.595 132.051 108.324 132.022 108.069 132.087C107.864 132.138 107.676 132.241 107.525 132.388C107.325 132.519 107.143 132.669 106.899 132.788C107.181 132.4 107.362 131.95 107.893 131.687C108.075 131.599 108.274 131.552 108.477 131.549C108.679 131.547 108.879 131.59 109.063 131.675Z" fill="white"/>
<path d="M103.58 144.873C102.736 146.048 101.805 147.161 100.904 148.293L100.279 149.105C100.842 148.026 101.392 146.938 101.93 145.842C102.751 144.272 103.488 142.658 104.137 141.009C104.18 140.903 104.018 140.853 103.962 140.94C103.118 142.266 102.442 143.679 101.642 145.029C100.842 146.379 100.073 147.749 99.3102 149.118C97.7723 151.85 96.1843 154.569 94.5651 157.245C91.3079 162.597 87.8381 167.83 84.2495 172.969C83.243 174.406 82.2489 175.857 81.1924 177.264C80.1358 178.67 79.1418 180.196 78.0665 181.609C78.029 181.659 78.0977 181.727 78.1415 181.677C79.1543 180.427 80.1983 179.258 81.2299 178.051C82.2615 176.845 83.1367 175.588 84.1057 174.338C86.0376 171.837 87.8569 169.286 89.6449 166.692C93.2092 161.47 96.5081 156.072 99.529 150.518L99.7479 150.093C100.261 149.549 100.761 148.986 101.236 148.399C102.13 147.286 102.905 146.092 103.687 144.898C103.712 144.867 103.618 144.817 103.58 144.873Z" fill="#263238"/>
<path d="M123.067 116.333C123.067 116.333 125.136 124.811 122.667 125.98C118.059 128.162 109.826 121.385 109.288 120.172C109.157 119.859 108.469 111.713 107.956 105.386C107.619 101.31 107.331 97.9839 107.331 97.9839L123.492 104.392L123.129 115.533L123.067 116.333Z" fill="#DD6A57"/>
<path d="M123.492 104.392L123.129 115.533C120.035 115 117.087 113.82 114.478 112.072C111.869 110.324 109.657 108.046 107.987 105.386C107.65 101.31 107.362 97.9839 107.362 97.9839L109.382 98.7091L123.492 104.392Z" fill="#263238"/>
<path d="M126.455 91.7255C126.699 96.2831 130.138 99.7966 134.133 99.5778C138.127 99.359 141.166 95.4954 140.922 90.944C140.678 86.3927 137.233 82.8729 133.239 83.0917C129.244 83.3105 126.205 87.1742 126.455 91.7255Z" fill="#455A64"/>
<path d="M124.117 92.1442C124.392 97.2082 128.219 101.116 132.664 100.897C137.109 100.678 140.485 96.3517 140.216 91.2877C139.947 86.2237 136.115 82.3101 131.67 82.5351C127.225 82.7602 123.855 87.074 124.117 92.1442Z" fill="#C7C7C7"/>
<path d="M137.696 88.4123C139.203 107.918 127.693 111.025 123.486 111.344C119.666 111.638 106.606 112.144 103.105 92.8949C99.6039 73.6454 108.181 66.7809 116.859 65.6493C125.537 64.5178 136.183 68.9003 137.696 88.4123Z" fill="#DD6A57"/>
<path d="M131.619 84.9356C131.172 84.8788 130.727 84.7995 130.288 84.6981C129.808 84.6771 129.349 84.4991 128.981 84.1917C128.887 84.07 128.835 83.9205 128.835 83.7665C128.835 83.6126 128.887 83.4631 128.981 83.3414C129.196 83.1218 129.466 82.9642 129.763 82.885C130.06 82.8058 130.373 82.808 130.669 82.8913C131.295 82.9642 131.872 83.2672 132.288 83.7415C132.377 83.857 132.43 83.9961 132.441 84.1415C132.452 84.287 132.419 84.4323 132.348 84.5596C132.277 84.6868 132.17 84.7903 132.04 84.8571C131.911 84.924 131.764 84.9513 131.619 84.9356Z" fill="#263238"/>
<path d="M118.234 85.9801C118.676 85.8834 119.112 85.7645 119.541 85.6238C120.015 85.5568 120.454 85.3374 120.791 84.9986C120.878 84.8724 120.92 84.7209 120.911 84.568C120.902 84.4151 120.842 84.2696 120.741 84.1546C120.508 83.9546 120.226 83.8208 119.923 83.7669C119.621 83.713 119.31 83.7411 119.022 83.8483C118.405 83.9751 117.856 84.3272 117.484 84.8361C117.404 84.9574 117.36 85.0998 117.36 85.2455C117.359 85.3912 117.402 85.5338 117.482 85.6557C117.562 85.7775 117.676 85.8732 117.809 85.9309C117.943 85.9886 118.091 86.0057 118.234 85.9801Z" fill="#263238"/>
<path d="M121.617 90.7313C121.617 90.6813 121.523 90.8063 121.529 90.8564C121.685 92.1817 121.648 93.7259 120.485 94.2699C120.447 94.2699 120.485 94.3511 120.485 94.3449C121.948 94.0073 121.979 91.9567 121.617 90.7313Z" fill="#263238"/>
<path d="M120.31 89.4498C118.159 89.4498 118.372 93.7698 120.366 93.7448C122.361 93.7198 122.111 89.4248 120.31 89.4498Z" fill="#263238"/>
<path d="M119.478 89.7185C119.116 89.9811 118.766 90.425 118.315 90.4937C117.865 90.5625 117.378 90.1436 117.015 89.7248C116.978 89.681 116.946 89.7247 116.946 89.781C116.946 90.6 117.334 91.4315 118.197 91.5128C119.059 91.5941 119.547 90.8251 119.71 89.9873C119.741 89.831 119.622 89.6122 119.478 89.7185Z" fill="#263238"/>
<path d="M129.375 89.862C129.375 89.8057 129.481 89.9183 129.481 89.9745C129.481 91.3062 129.731 92.8316 130.957 93.2193C130.994 93.2193 130.994 93.3005 130.957 93.2943C129.469 93.1505 129.175 91.1249 129.375 89.862Z" fill="#263238"/>
<path d="M130.506 88.4187C132.638 88.1686 133.007 92.4574 131.006 92.6887C129.006 92.92 128.718 88.6313 130.506 88.4187Z" fill="#263238"/>
<path d="M131.419 88.6307C131.776 88.8307 132.145 89.2183 132.551 89.2121C132.957 89.2058 133.332 88.7119 133.601 88.243C133.601 88.193 133.664 88.243 133.67 88.2868C133.758 89.0996 133.558 89.9748 132.782 90.1999C132.007 90.425 131.488 89.7372 131.232 88.9495C131.182 88.787 131.276 88.5494 131.419 88.6307Z" fill="#263238"/>
<path d="M122.829 101.041C123.148 101.353 123.454 101.779 123.954 101.816C124.45 101.804 124.937 101.689 125.386 101.478C125.395 101.471 125.407 101.467 125.419 101.469C125.43 101.47 125.441 101.476 125.449 101.485C125.456 101.494 125.46 101.506 125.458 101.517C125.457 101.529 125.451 101.54 125.442 101.547C125.253 101.81 124.996 102.016 124.699 102.143C124.401 102.271 124.075 102.316 123.754 102.272C123.482 102.206 123.236 102.059 123.049 101.85C122.861 101.641 122.741 101.381 122.704 101.103C122.679 101.022 122.785 100.997 122.829 101.041Z" fill="#263238"/>
<path d="M128.093 95.8955C128.093 95.8955 128.493 97.8648 128.55 98.8026C128.55 98.8901 128.331 98.9464 128.012 98.9839C128.012 98.9839 128.012 98.9839 127.974 98.9839C127.179 99.181 126.345 99.1546 125.564 98.9074C124.783 98.6603 124.085 98.2021 123.548 97.5835C123.479 97.4959 123.592 97.3959 123.679 97.4459C124.925 98.1887 126.376 98.5109 127.818 98.3649C127.868 98.1024 127.03 95.014 127.193 94.9952C127.924 95.0156 128.65 95.1333 129.35 95.3453C128.65 91.2191 127.287 87.2179 126.643 83.123C126.641 83.0936 126.649 83.0645 126.666 83.0403C126.683 83.0162 126.707 82.9983 126.735 82.9897C126.763 82.981 126.794 82.9821 126.821 82.9926C126.848 83.0032 126.872 83.0227 126.887 83.0479C128.606 87.1179 129.525 91.8443 130.363 96.0893C130.45 96.6144 128.493 96.033 128.093 95.8955Z" fill="#263238"/>
<path d="M127.362 98.515C126.93 99.2408 126.318 99.8435 125.586 100.266C125.18 100.48 124.717 100.563 124.261 100.503C123.261 100.366 123.136 99.4841 123.223 98.7026C123.272 98.288 123.371 97.8809 123.517 97.4897C124.656 98.2345 126.004 98.5939 127.362 98.515Z" fill="#263238"/>
<path d="M125.586 100.266C125.18 100.48 124.717 100.563 124.261 100.503C123.261 100.366 123.136 99.4843 123.223 98.7028C124.267 98.6903 125.368 99.2655 125.586 100.266Z" fill="#F392B9"/>
<path d="M103.392 91.1435C105.524 91.1435 111.351 85.5669 112.045 75.3201C112.045 75.3201 110.794 84.4791 110.025 85.7919C109.256 87.1048 113.283 82.666 113.958 74.4011C113.958 74.4011 118.372 77.9396 122.216 79.2338C126.061 80.5279 128.468 80.6154 128.756 80.3466C129.044 80.0778 123.392 77.9771 121.929 76.1016C121.929 76.1016 132.076 81.4657 136.846 82.0721C137.396 82.1409 136.127 73.6509 128.968 68.4368C121.81 63.2228 112.326 64.9858 109.019 67.8679C109.019 67.8679 105.268 68.2055 100.985 73.4946C96.7027 78.7836 101.098 91.1873 103.392 91.1435Z" fill="#263238"/>
<path d="M106.325 94.1572C106.325 94.1572 102.111 88.0054 99.3227 89.5058C96.5344 91.0062 99.6666 99.8838 102.911 101.128C103.316 101.315 103.755 101.419 104.201 101.432C104.647 101.446 105.091 101.369 105.507 101.207C105.923 101.045 106.301 100.8 106.62 100.488C106.939 100.176 107.192 99.8022 107.363 99.3899L106.325 94.1572Z" fill="#DD6A57"/>
<path d="M100.285 92.0317C100.277 92.035 100.27 92.0406 100.265 92.0478C100.26 92.0551 100.258 92.0636 100.258 92.0724C100.258 92.0811 100.26 92.0897 100.265 92.0969C100.27 92.1042 100.277 92.1098 100.285 92.113C102.561 93.0633 103.743 95.1889 104.562 97.3896C103.893 96.5393 102.967 96.0642 101.83 96.8644C101.773 96.9082 101.83 97.0019 101.892 96.9832C102.294 96.8609 102.724 96.8655 103.124 96.9964C103.523 97.1273 103.872 97.3781 104.124 97.7147C104.542 98.2827 104.896 98.8949 105.181 99.5402C105.287 99.7465 105.656 99.6402 105.581 99.4026V99.3526C105.631 96.4393 103.405 92.3506 100.285 92.0317Z" fill="#263238"/>
<path d="M104.737 100.278C104.733 100.414 104.689 100.546 104.61 100.657C104.531 100.768 104.421 100.854 104.294 100.902C104.166 100.95 104.027 100.96 103.895 100.929C103.762 100.898 103.641 100.829 103.548 100.729C103.455 100.63 103.393 100.505 103.371 100.371C103.349 100.236 103.367 100.098 103.423 99.9744C103.48 99.8504 103.572 99.7459 103.688 99.6742C103.804 99.6025 103.938 99.5668 104.074 99.5717C104.256 99.5783 104.427 99.6562 104.551 99.7885C104.675 99.9208 104.742 100.097 104.737 100.278Z" fill="white"/>
<path d="M102.861 99.0279C102.859 99.0846 102.845 99.1403 102.821 99.1917C102.797 99.2431 102.764 99.2893 102.722 99.3276C102.68 99.3659 102.631 99.3956 102.578 99.415C102.524 99.4344 102.468 99.4431 102.411 99.4406C102.355 99.439 102.299 99.4262 102.248 99.4029C102.196 99.3796 102.15 99.3464 102.112 99.3051C102.073 99.2637 102.044 99.2152 102.024 99.1623C102.005 99.1093 101.996 99.053 101.998 98.9967C102 98.94 102.013 98.8842 102.036 98.8325C102.059 98.7808 102.092 98.7342 102.134 98.6953C102.175 98.6564 102.223 98.626 102.276 98.6058C102.329 98.5857 102.386 98.5762 102.442 98.5778C102.557 98.5843 102.664 98.6347 102.742 98.7186C102.82 98.8025 102.863 98.9134 102.861 99.0279Z" fill="white"/>
<path d="M99.5165 93.3823L98.1724 93.6636C98.1375 93.6709 98.1015 93.6711 98.0665 93.6643C98.0315 93.6576 97.9981 93.6439 97.9685 93.6241C97.9388 93.6043 97.9133 93.5788 97.8936 93.5491C97.8739 93.5194 97.8603 93.4861 97.8536 93.451C97.8387 93.3814 97.8521 93.3087 97.8908 93.2489C97.9295 93.1892 97.9903 93.1472 98.0599 93.1322L99.404 92.8509C99.4389 92.8436 99.4749 92.8433 99.51 92.8501C99.545 92.8569 99.5783 92.8706 99.608 92.8904C99.6376 92.9101 99.6631 92.9356 99.6828 92.9653C99.7025 92.9951 99.7161 93.0284 99.7229 93.0634C99.7377 93.1331 99.7243 93.2057 99.6856 93.2655C99.647 93.3253 99.5861 93.3673 99.5165 93.3823Z" fill="#6A82FB"/>
<path d="M99.3665 92.5197L97.9974 92.601C97.9616 92.6035 97.9256 92.5989 97.8916 92.5873C97.8576 92.5757 97.8263 92.5574 97.7995 92.5335C97.7727 92.5096 97.7509 92.4806 97.7355 92.4482C97.7201 92.4158 97.7114 92.3806 97.7098 92.3447C97.7063 92.2727 97.7313 92.2023 97.7792 92.1485C97.8271 92.0947 97.8942 92.0619 97.9661 92.0571L99.329 91.9758C99.401 91.9706 99.4721 91.9939 99.5271 92.0407C99.5821 92.0875 99.6165 92.154 99.6228 92.2259C99.6264 92.2985 99.6016 92.3696 99.5538 92.4244C99.5061 92.4792 99.4389 92.5134 99.3665 92.5197Z" fill="#6A82FB"/>
<path d="M102.28 89.4625C102.28 89.4625 100.63 79.6221 102.987 73.8329C105.612 67.431 118.147 62.092 127.956 67.7186C127.956 67.7186 113.052 64.7553 106.95 73.8829C104.381 77.7278 105.612 89.3625 105.612 89.3625L102.28 89.4625Z" fill="#C7C7C7"/>
<path d="M105.043 103.548C109.467 103.063 112.605 98.5821 112.052 93.5402C111.499 88.4983 107.464 84.8044 103.04 85.2897C98.6157 85.775 95.4776 90.2557 96.0307 95.2977C96.5838 100.34 100.619 104.033 105.043 103.548Z" fill="#C7C7C7"/>
<path d="M109.688 93.5135C110.188 98.0461 107.368 102.072 103.392 102.51C99.4159 102.948 95.7836 99.6278 95.2647 95.0952C94.7458 90.5626 97.5904 86.5302 101.567 86.0988C105.543 85.6674 109.194 88.9809 109.688 93.5135Z" fill="#455A64"/>
<path d="M120.278 106.836L113.758 105.673L107.606 100.865L108.35 99.915L114.264 104.541L120.485 105.648L120.278 106.836Z" fill="#C7C7C7"/>
<path d="M119.422 106.042C119.597 104.167 124.58 103.685 124.317 106.499C124.055 109.312 119.247 107.905 119.422 106.042Z" fill="#37474F"/>
<path d="M123.117 116.089L121.472 125.217L108.794 116.715L106.537 120.753C106.537 120.753 120.291 135.576 120.184 134.795L122.16 126.824L128.218 130.837L125.186 118.234L123.117 116.089Z" fill="white"/>
<path d="M77.5414 180.483C71.7397 187.566 62.2994 179.476 61.2241 173.174C58.6921 158.376 61.9493 131.237 66.2631 118.377C67.651 114.238 95.1341 122.128 95.2029 126.786C95.2717 131.675 89.3074 166.11 77.5414 180.483Z" fill="#DD6A57"/>
<path d="M65.5244 125.817C65.5244 125.817 65.937 112.232 70.7697 103.179C74.1082 96.927 82.892 84.1107 104.055 83.173C109.056 82.9604 116.377 86.2114 108.306 89.5436C102.573 91.9068 98.2278 91.6755 95.1394 93.6573C95.1394 93.6573 103.942 98.8964 103.961 103.929C103.976 108.333 103.68 112.733 103.073 117.095C102.241 117.168 101.406 117.187 100.572 117.152C100.572 117.152 100.447 121.866 95.1831 126.755L65.5244 125.817Z" fill="#DD6A57"/>
<path d="M74.9087 97.7145C78.3847 96.3953 85.7994 93.7195 92.6264 93.6445C100.21 93.557 114.839 95.4325 114.845 101.028C114.845 105.135 109.219 104.91 109.219 104.91C109.219 104.91 115.102 106.961 114.295 110.668C113.558 114.051 109.2 113.613 109.2 113.613C109.2 113.613 112.557 115.488 111.219 118.614C109.613 122.365 102.842 117.858 97.9342 120.252C96.8214 120.765 74.9087 97.7145 74.9087 97.7145Z" fill="#DD6A57"/>
<path d="M91.382 101.672C94.858 100.966 103.154 101.385 109.125 104.798C109.262 104.873 109.275 105.017 109.125 104.973C103.358 103.189 97.396 102.112 91.3695 101.766C91.3445 101.741 91.3445 101.679 91.382 101.672Z" fill="#263238"/>
<path d="M91.6949 109.318C94.752 109.018 103.286 109.831 109.2 113.469C109.331 113.551 109.338 113.701 109.2 113.651C103.544 111.574 97.6721 110.143 91.6949 109.387C91.6882 109.384 91.6825 109.379 91.6785 109.373C91.6745 109.367 91.6724 109.36 91.6724 109.353C91.6724 109.345 91.6745 109.338 91.6785 109.332C91.6825 109.326 91.6882 109.321 91.6949 109.318Z" fill="#263238"/>
<path d="M114.189 98.5904C113.364 97.6776 112.195 97.34 111.169 96.7148C111.113 96.6835 111.063 96.7773 111.119 96.8023C112.926 97.5588 114.821 99.3468 114.52 101.466C114.158 104.017 111.101 104.667 108.981 104.723C108.875 104.723 108.925 104.842 109.031 104.861C111.388 105.274 114.714 104.455 115.152 101.679C115.235 101.125 115.192 100.559 115.025 100.024C114.858 99.4891 114.573 98.9989 114.189 98.5904Z" fill="#263238"/>
<path d="M108.688 104.642C108.632 104.642 108.588 104.704 108.644 104.729C111.908 105.979 113.921 108.249 114.083 109.537C114.2 110.16 114.125 110.805 113.867 111.384C113.609 111.964 113.181 112.451 112.639 112.781C111.506 113.406 110.19 113.614 108.919 113.369C108.813 113.369 108.776 113.507 108.876 113.525C110.407 113.807 113.352 114.151 114.415 111.681C115.303 109.618 114.309 106.192 108.688 104.642Z" fill="#263238"/>
<path d="M111.095 115.07C110.444 114.157 109.499 113.495 108.419 113.194C108.369 113.194 108.332 113.263 108.419 113.282C110.295 114.038 111.901 116.283 111.301 118.365C111.264 118.496 111.458 118.533 111.501 118.415C111.695 117.863 111.759 117.275 111.688 116.695C111.618 116.115 111.415 115.559 111.095 115.07Z" fill="#263238"/>
<path d="M112.12 86.1176C111.97 85.1798 110.788 84.242 108.519 83.8169C110.394 84.3295 111.763 85.3423 111.751 86.2551C111.738 87.1679 111.063 88.1307 109.075 89.1997C109.019 89.1997 109.075 89.256 109.119 89.231C110.294 88.6871 112.382 87.7993 112.12 86.1176Z" fill="#263238"/>
<path d="M64.0994 120.653L98.1094 132.106C98.1094 132.106 85.7183 170.274 79.8666 178.47C74.0148 186.666 65.9 185.191 61.2173 175.025C56.5347 164.86 64.0994 120.653 64.0994 120.653Z" fill="#6A82FB"/>
<path d="M82.0425 133.019C82.5206 132.861 83.0325 132.835 83.5242 132.944C83.7908 133.044 84.0211 133.223 84.185 133.456C84.3489 133.689 84.4389 133.966 84.4432 134.251C84.4416 134.44 84.4878 134.627 84.5774 134.794C84.6669 134.962 84.7971 135.104 84.9558 135.207C85.1314 135.321 85.3344 135.386 85.5435 135.395C85.7748 135.445 86.0124 135.47 86.2437 135.532C85.7669 135.7 85.2503 135.72 84.762 135.589C84.5011 135.478 84.2788 135.292 84.1231 135.055C83.9673 134.818 83.8851 134.541 83.8868 134.257C83.8839 134.07 83.8329 133.886 83.7388 133.724C83.6446 133.562 83.5105 133.427 83.3491 133.332C83.1598 133.219 82.9441 133.159 82.7239 133.157C82.5114 133.113 82.28 133.075 82.0425 133.019Z" fill="white"/>
<path d="M74.9087 159.908C75.3868 159.75 75.8988 159.724 76.3904 159.833C76.658 159.932 76.8892 160.11 77.0534 160.343C77.2175 160.576 77.3068 160.854 77.3094 161.139C77.3079 161.329 77.354 161.516 77.4436 161.683C77.5332 161.85 77.6633 161.992 77.8221 162.096C77.9976 162.21 78.2006 162.275 78.4097 162.284C78.641 162.334 78.8786 162.359 79.1099 162.421C78.6331 162.589 78.1165 162.609 77.6282 162.477C77.3673 162.366 77.145 162.181 76.9893 161.944C76.8335 161.707 76.7513 161.429 76.753 161.146C76.7501 160.958 76.6991 160.775 76.605 160.613C76.5109 160.451 76.3767 160.316 76.2153 160.22C76.0267 160.106 75.8106 160.046 75.5901 160.045C75.3526 159.995 75.1463 159.958 74.9087 159.908Z" fill="white"/>
<path d="M77.9475 180.74C77.7974 180.89 77.6474 181.027 77.4973 181.159C77.4755 180.992 77.4164 180.832 77.3244 180.691C77.2324 180.551 77.1099 180.433 76.9659 180.346C76.7768 180.234 76.5606 180.175 76.3407 180.177C76.1094 180.133 75.8718 180.102 75.6343 180.039C76.1124 179.882 76.6243 179.856 77.116 179.964C77.3028 180.025 77.474 180.126 77.6177 180.26C77.7614 180.394 77.8739 180.558 77.9475 180.74Z" fill="white"/>
<path d="M89.6446 150.543C89.4196 150.993 89.0759 151.374 88.6505 151.643C88.392 151.762 88.1033 151.8 87.823 151.751C87.5426 151.702 87.2839 151.568 87.0813 151.368C86.9493 151.232 86.7847 151.132 86.603 151.077C86.4214 151.022 86.2288 151.015 86.0435 151.056C85.8376 151.097 85.6471 151.194 85.4933 151.337C85.2933 151.468 85.1057 151.612 84.8994 151.737C85.1682 151.356 85.3683 150.887 85.906 150.649C86.1682 150.544 86.4554 150.519 86.7321 150.575C87.0088 150.632 87.2628 150.769 87.4627 150.968C87.5987 151.099 87.7661 151.193 87.9489 151.242C88.1316 151.29 88.3237 151.29 88.5067 151.243C88.7114 151.193 88.8992 151.09 89.0506 150.943C89.2507 150.812 89.432 150.662 89.6446 150.543Z" fill="white"/>
<path d="M66.4877 152.95C66.2607 153.399 65.9175 153.779 65.4937 154.05C65.234 154.169 64.9445 154.206 64.6633 154.157C64.3821 154.108 64.1223 153.975 63.9182 153.775C63.7862 153.639 63.6216 153.538 63.44 153.484C63.2583 153.429 63.0657 153.422 62.8804 153.462C62.6745 153.503 62.484 153.601 62.3303 153.744C62.1365 153.875 61.9489 154.025 61.7051 154.144C61.9802 153.762 62.174 153.294 62.7179 153.056C62.9801 152.951 63.2673 152.925 63.544 152.982C63.8207 153.039 64.0747 153.175 64.2746 153.375C64.4093 153.506 64.5756 153.6 64.7574 153.648C64.9392 153.697 65.1303 153.697 65.3124 153.65C65.5183 153.598 65.7076 153.495 65.8625 153.35C66.0876 153.219 66.2752 153.081 66.4877 152.95Z" fill="white"/>
<path d="M70.2696 127.893C70.0465 128.344 69.7024 128.725 69.2755 128.993C69.0172 129.111 68.7294 129.148 68.4495 129.101C68.1695 129.053 67.9106 128.921 67.7063 128.724C67.5739 128.588 67.4095 128.488 67.2281 128.432C67.0468 128.376 66.8544 128.367 66.6685 128.405C66.4635 128.449 66.2737 128.546 66.1183 128.687C65.9183 128.818 65.7307 128.968 65.4932 129.087C65.762 128.705 65.962 128.236 66.4997 127.999C66.7623 127.893 67.0503 127.868 67.3274 127.925C67.6044 127.983 67.8581 128.122 68.0564 128.324C68.1934 128.454 68.3609 128.547 68.5433 128.595C68.7257 128.643 68.9173 128.644 69.1005 128.599C69.3041 128.546 69.4912 128.443 69.6444 128.299C69.8757 128.161 70.0633 128.018 70.2696 127.893Z" fill="white"/>
<path d="M73.6647 140.578C73.8248 141.055 73.8529 141.567 73.746 142.059C73.6449 142.325 73.4664 142.555 73.2335 142.719C73.0006 142.883 72.724 142.973 72.4393 142.978C72.2492 142.974 72.0611 143.019 71.8935 143.109C71.7258 143.198 71.5843 143.33 71.4828 143.491C71.3632 143.662 71.2958 143.864 71.289 144.072C71.2452 144.31 71.214 144.541 71.1515 144.779C70.9854 144.301 70.968 143.785 71.1014 143.297C71.2106 143.036 71.3949 142.814 71.6309 142.658C71.8669 142.502 72.144 142.42 72.4268 142.422C72.6156 142.418 72.8003 142.366 72.9634 142.271C73.1264 142.176 73.2624 142.041 73.3584 141.878C73.4637 141.697 73.5237 141.493 73.5334 141.284C73.5772 141.072 73.6022 140.834 73.6647 140.578Z" fill="white"/>
<path d="M69.1503 171.393C69.3083 171.871 69.3343 172.383 69.2253 172.874C69.1268 173.141 68.9498 173.371 68.7177 173.535C68.4856 173.7 68.2092 173.789 67.9249 173.793C67.7344 173.791 67.5463 173.837 67.3781 173.927C67.2099 174.016 67.0669 174.147 66.9622 174.306C66.8482 174.481 66.7834 174.684 66.7746 174.894C66.7308 175.125 66.6996 175.362 66.6371 175.6C66.4733 175.12 66.4538 174.603 66.5808 174.112C66.692 173.852 66.8779 173.63 67.1149 173.476C67.3519 173.321 67.6294 173.24 67.9124 173.243C68.1008 173.238 68.2849 173.185 68.4476 173.09C68.6104 172.995 68.7467 172.861 68.844 172.699C68.9542 172.509 69.0124 172.294 69.0128 172.074C69.0628 171.868 69.1003 171.63 69.1503 171.393Z" fill="white"/>
<path d="M94.3148 138.477C92.4653 137.634 90.5725 136.889 88.6444 136.245C86.7063 135.495 84.7495 134.832 82.7927 134.163C78.9915 132.857 75.1592 131.694 71.3268 130.544C69.0949 129.868 66.8505 129.293 64.6186 128.668C64.5373 128.668 64.506 128.806 64.6186 128.837C68.4572 130.275 72.2833 131.769 76.1532 133.113C80.0231 134.457 83.7617 135.701 87.6003 136.833C88.6944 137.158 89.801 137.458 90.9013 137.752C92.0197 138.121 93.1597 138.422 94.3148 138.652C94.3711 138.665 94.3961 138.521 94.3148 138.477Z" fill="#263238"/>
<path d="M98.797 132.194C98.7032 131.888 94.9334 130.906 94.7396 130.85C94.6833 130.85 94.6583 130.925 94.7396 130.944C94.9209 131.006 98.1156 132.338 98.1031 132.363C96.2275 137.365 94.5145 142.416 92.714 147.442C90.9135 152.469 89.0692 157.508 87.3687 162.591C86.4121 165.435 86.4746 165.717 87.4874 163.266C88.5002 160.815 89.538 158.802 90.4696 156.314C92.3451 151.312 94.1019 146.23 95.8587 141.166C96.8339 138.296 98.8283 132.294 98.797 132.194Z" fill="#263238"/>
<path d="M158.17 191.612H138.827C136.953 191.61 135.156 190.864 133.831 189.539C132.507 188.213 131.763 186.415 131.763 184.541C131.762 183.612 131.944 182.693 132.299 181.835C132.653 180.976 133.173 180.196 133.829 179.539C134.485 178.882 135.264 178.361 136.122 178.004C136.979 177.648 137.899 177.465 138.827 177.464H158.17C160.045 177.466 161.842 178.211 163.166 179.537C164.491 180.863 165.235 182.66 165.235 184.535C165.236 185.463 165.054 186.383 164.699 187.241C164.345 188.099 163.824 188.879 163.168 189.536C162.512 190.194 161.733 190.715 160.876 191.071C160.018 191.427 159.099 191.611 158.17 191.612Z" fill="#455A64"/>
<path d="M143.06 184.422C143.069 184.197 143.143 183.98 143.273 183.797C143.323 183.709 143.385 183.628 143.441 183.54L143.817 183.171C143.96 183.065 144.098 182.959 144.248 182.859C144.842 182.481 145.505 182.224 146.198 182.102C147.796 181.784 149.44 181.784 151.037 182.102C151.722 182.22 152.377 182.473 152.963 182.846C153.119 182.946 153.263 183.059 153.413 183.165L153.769 183.528C153.865 183.664 153.953 183.806 154.032 183.953C154.093 184.104 154.145 184.259 154.188 184.416H154.076H151C150.974 184.419 150.948 184.414 150.926 184.402C150.903 184.39 150.885 184.37 150.875 184.347C150.789 184.178 150.659 184.036 150.5 183.934C150.341 183.831 150.157 183.773 149.968 183.765C149.048 183.706 148.125 183.706 147.205 183.765C147.017 183.773 146.834 183.83 146.674 183.931C146.515 184.032 146.385 184.173 146.299 184.341C146.293 184.363 146.28 184.382 146.262 184.396C146.243 184.409 146.221 184.416 146.198 184.416H143.073L143.06 184.422Z" fill="white"/>
<path d="M143.053 186.216V185.135C143.05 185.11 143.05 185.084 143.053 185.06H146.179C146.179 185.128 146.179 185.21 146.179 185.285C146.179 185.591 146.179 185.91 146.179 186.204C146.186 186.258 146.181 186.313 146.163 186.365C146.146 186.417 146.117 186.464 146.078 186.503C146.039 186.541 145.992 186.57 145.94 186.588C145.889 186.606 145.833 186.611 145.779 186.604H143.441C143.389 186.61 143.336 186.604 143.286 186.586C143.236 186.569 143.191 186.541 143.154 186.503C143.116 186.466 143.088 186.421 143.071 186.371C143.053 186.322 143.047 186.269 143.053 186.216Z" fill="white"/>
<path d="M151.036 186.216C151.036 185.822 151.036 185.434 151.068 185.041H154.156C154.156 185.041 154.156 185.084 154.156 185.109V186.216C154.162 186.267 154.156 186.32 154.139 186.369C154.122 186.418 154.094 186.462 154.058 186.499C154.021 186.536 153.976 186.563 153.927 186.58C153.878 186.598 153.826 186.603 153.775 186.597H151.412C151.36 186.602 151.309 186.596 151.261 186.578C151.213 186.561 151.169 186.533 151.133 186.496C151.097 186.46 151.07 186.415 151.053 186.367C151.036 186.318 151.031 186.267 151.036 186.216Z" fill="white"/>
<path d="M280.025 82.2984C281.597 83.8672 282.699 85.8441 283.208 88.0059C283.716 90.1677 283.61 92.4286 282.901 94.5333L275.993 87.6563L270.904 90.0757L268.478 95.171L275.355 102.086C273.34 102.762 271.18 102.888 269.099 102.45C267.018 102.012 265.092 101.026 263.521 99.5944C261.949 98.1626 260.788 96.3369 260.158 94.306C259.528 92.2752 259.453 90.1129 259.939 88.043C260.425 85.973 261.455 84.0705 262.923 82.5322C264.39 80.9939 266.243 79.8756 268.288 79.2931C270.332 78.7105 272.496 78.6849 274.554 79.2188C276.612 79.7526 278.49 80.8266 279.994 82.3297L280.025 82.2984Z" fill="#6A82FB"/>
<path d="M225.072 61.0921C223.501 59.5229 222.399 57.5461 221.891 55.3844C221.383 53.2227 221.489 50.962 222.196 48.8572L229.104 55.7655L234.193 53.3398L236.619 48.2508L229.711 41.3363C231.727 40.6596 233.887 40.5338 235.967 40.9717C238.048 41.4097 239.974 42.3956 241.546 43.8274C243.118 45.2592 244.278 47.0849 244.908 49.1158C245.538 51.1466 245.614 53.3088 245.128 55.3788C244.642 57.4487 243.611 59.3513 242.144 60.8896C240.676 62.4279 238.824 63.5462 236.779 64.1287C234.734 64.7112 232.57 64.7369 230.512 64.203C228.454 63.6692 226.576 62.5951 225.072 61.0921Z" fill="#6A82FB"/>
<path d="M240.541 52.1703L233.025 59.6855L263.603 90.2637L271.119 82.7484L240.541 52.1703Z" fill="#6A82FB"/>
<path d="M150.569 72.57C149.358 70.7763 148.705 68.6639 148.693 66.4995C148.693 58.8097 157.139 52.5767 167.549 52.5767C177.958 52.5767 186.398 58.8285 186.398 66.4995C186.398 74.1705 177.958 80.4286 167.549 80.4286C162.923 80.5024 158.385 79.1585 154.545 76.5775L148.049 78.228L150.569 72.57Z" fill="#6A82FB"/>
<path d="M174.326 66.4994C174.324 66.887 174.438 67.2662 174.653 67.5889C174.867 67.9117 175.173 68.1635 175.531 68.3123C175.889 68.4612 176.283 68.5005 176.663 68.4252C177.043 68.3499 177.392 68.1634 177.666 67.8894C177.94 67.6153 178.127 67.2661 178.202 66.8859C178.277 66.5057 178.238 66.1118 178.089 65.7539C177.94 65.3961 177.689 65.0906 177.366 64.876C177.043 64.6615 176.664 64.5476 176.276 64.5488C175.759 64.5505 175.264 64.7565 174.899 65.122C174.533 65.4874 174.327 65.9826 174.326 66.4994Z" fill="#263238"/>
<path d="M167.543 68.4566C168.623 68.4566 169.5 67.5805 169.5 66.4998C169.5 65.4191 168.623 64.543 167.543 64.543C166.462 64.543 165.586 65.4191 165.586 66.4998C165.586 67.5805 166.462 68.4566 167.543 68.4566Z" fill="#263238"/>
<path d="M156.852 66.4994C156.85 66.887 156.964 67.2662 157.179 67.5889C157.393 67.9117 157.699 68.1635 158.057 68.3123C158.414 68.4612 158.808 68.5005 159.189 68.4252C159.569 68.3499 159.918 68.1634 160.192 67.8894C160.466 67.6153 160.653 67.2661 160.728 66.8859C160.803 66.5057 160.764 66.1118 160.615 65.7539C160.466 65.3961 160.214 65.0906 159.892 64.876C159.569 64.6615 159.19 64.5476 158.802 64.5488C158.285 64.5505 157.79 64.7565 157.425 65.122C157.059 65.4874 156.853 65.9826 156.852 66.4994Z" fill="#263238"/>
</svg>
